%TF.GenerationSoftware,KiCad,Pcbnew,9.0.3*%
%TF.CreationDate,2025-10-28T10:39:51+01:00*%
%TF.ProjectId,DC_Motor,44435f4d-6f74-46f7-922e-6b696361645f,R.Casas*%
%TF.SameCoordinates,Original*%
%TF.FileFunction,Paste,Top*%
%TF.FilePolarity,Positive*%
%FSLAX46Y46*%
G04 Gerber Fmt 4.6, Leading zero omitted, Abs format (unit mm)*
G04 Created by KiCad (PCBNEW 9.0.3) date 2025-10-28 10:39:51*
%MOMM*%
%LPD*%
G01*
G04 APERTURE LIST*
G04 Aperture macros list*
%AMRoundRect*
0 Rectangle with rounded corners*
0 $1 Rounding radius*
0 $2 $3 $4 $5 $6 $7 $8 $9 X,Y pos of 4 corners*
0 Add a 4 corners polygon primitive as box body*
4,1,4,$2,$3,$4,$5,$6,$7,$8,$9,$2,$3,0*
0 Add four circle primitives for the rounded corners*
1,1,$1+$1,$2,$3*
1,1,$1+$1,$4,$5*
1,1,$1+$1,$6,$7*
1,1,$1+$1,$8,$9*
0 Add four rect primitives between the rounded corners*
20,1,$1+$1,$2,$3,$4,$5,0*
20,1,$1+$1,$4,$5,$6,$7,0*
20,1,$1+$1,$6,$7,$8,$9,0*
20,1,$1+$1,$8,$9,$2,$3,0*%
G04 Aperture macros list end*
%ADD10RoundRect,0.225000X-0.250000X0.225000X-0.250000X-0.225000X0.250000X-0.225000X0.250000X0.225000X0*%
%ADD11RoundRect,0.090000X-0.090000X0.139000X-0.090000X-0.139000X0.090000X-0.139000X0.090000X0.139000X0*%
%ADD12RoundRect,0.250000X-0.650000X1.000000X-0.650000X-1.000000X0.650000X-1.000000X0.650000X1.000000X0*%
%ADD13RoundRect,0.225000X-0.225000X-0.250000X0.225000X-0.250000X0.225000X0.250000X-0.225000X0.250000X0*%
%ADD14RoundRect,0.237500X0.287500X0.237500X-0.287500X0.237500X-0.287500X-0.237500X0.287500X-0.237500X0*%
%ADD15RoundRect,0.125000X0.125000X-0.625000X0.125000X0.625000X-0.125000X0.625000X-0.125000X-0.625000X0*%
%ADD16RoundRect,0.125000X0.625000X-0.125000X0.625000X0.125000X-0.625000X0.125000X-0.625000X-0.125000X0*%
%ADD17RoundRect,0.225000X0.225000X0.250000X-0.225000X0.250000X-0.225000X-0.250000X0.225000X-0.250000X0*%
%ADD18RoundRect,0.237500X-0.237500X0.300000X-0.237500X-0.300000X0.237500X-0.300000X0.237500X0.300000X0*%
%ADD19RoundRect,0.200000X-0.200000X-0.275000X0.200000X-0.275000X0.200000X0.275000X-0.200000X0.275000X0*%
%ADD20RoundRect,0.250000X-1.000000X-0.650000X1.000000X-0.650000X1.000000X0.650000X-1.000000X0.650000X0*%
%ADD21RoundRect,0.250000X0.550000X-1.075000X0.550000X1.075000X-0.550000X1.075000X-0.550000X-1.075000X0*%
%ADD22RoundRect,0.237500X0.300000X0.237500X-0.300000X0.237500X-0.300000X-0.237500X0.300000X-0.237500X0*%
%ADD23RoundRect,0.090000X0.090000X-0.139000X0.090000X0.139000X-0.090000X0.139000X-0.090000X-0.139000X0*%
%ADD24RoundRect,0.200000X0.200000X0.275000X-0.200000X0.275000X-0.200000X-0.275000X0.200000X-0.275000X0*%
%ADD25RoundRect,0.071250X0.213750X-0.903750X0.213750X0.903750X-0.213750X0.903750X-0.213750X-0.903750X0*%
G04 APERTURE END LIST*
D10*
%TO.C,C113*%
X154978000Y-75133000D03*
X154978000Y-76683000D03*
%TD*%
D11*
%TO.C,R109*%
X123990000Y-112547500D03*
X123990000Y-113412500D03*
%TD*%
%TO.C,R104*%
X118910000Y-110960000D03*
X118910000Y-111825000D03*
%TD*%
D12*
%TO.C,D101*%
X113830000Y-103880000D03*
X113830000Y-107880000D03*
%TD*%
D13*
%TO.C,C107*%
X148361000Y-104605475D03*
X149911000Y-104605475D03*
%TD*%
D14*
%TO.C,D104*%
X126135000Y-114770000D03*
X124385000Y-114770000D03*
%TD*%
D15*
%TO.C,U101*%
X140748000Y-112952475D03*
X141548000Y-112952475D03*
X142348000Y-112952475D03*
X143148000Y-112952475D03*
X143948000Y-112952475D03*
X144748000Y-112952475D03*
X145548000Y-112952475D03*
X146348000Y-112952475D03*
D16*
X147723000Y-111577475D03*
X147723000Y-110777475D03*
X147723000Y-109977475D03*
X147723000Y-109177475D03*
X147723000Y-108377475D03*
X147723000Y-107577475D03*
X147723000Y-106777475D03*
X147723000Y-105977475D03*
D15*
X146348000Y-104602475D03*
X145548000Y-104602475D03*
X144748000Y-104602475D03*
X143948000Y-104602475D03*
X143148000Y-104602475D03*
X142348000Y-104602475D03*
X141548000Y-104602475D03*
X140748000Y-104602475D03*
D16*
X139373000Y-105977475D03*
X139373000Y-106777475D03*
X139373000Y-107577475D03*
X139373000Y-108377475D03*
X139373000Y-109177475D03*
X139373000Y-109977475D03*
X139373000Y-110777475D03*
X139373000Y-111577475D03*
%TD*%
D17*
%TO.C,C101*%
X146863000Y-116289475D03*
X145313000Y-116289475D03*
%TD*%
D18*
%TO.C,C103*%
X106210000Y-110097500D03*
X106210000Y-111822500D03*
%TD*%
D19*
%TO.C,R102*%
X135103000Y-110701475D03*
X136753000Y-110701475D03*
%TD*%
%TO.C,R101*%
X145263000Y-114765475D03*
X146913000Y-114765475D03*
%TD*%
D13*
%TO.C,C105*%
X148361000Y-101557475D03*
X149911000Y-101557475D03*
%TD*%
D17*
%TO.C,C109*%
X143815000Y-114765475D03*
X142265000Y-114765475D03*
%TD*%
D20*
%TO.C,D102*%
X109290000Y-98260000D03*
X113290000Y-98260000D03*
%TD*%
D21*
%TO.C,C102*%
X123990000Y-110095000D03*
X123990000Y-106745000D03*
%TD*%
D12*
%TO.C,D103*%
X113830000Y-111500000D03*
X113830000Y-115500000D03*
%TD*%
D18*
%TO.C,C104*%
X118910000Y-113500000D03*
X118910000Y-115225000D03*
%TD*%
D17*
%TO.C,C108*%
X143815000Y-116289475D03*
X142265000Y-116289475D03*
%TD*%
D10*
%TO.C,C112*%
X163106000Y-75133000D03*
X163106000Y-76683000D03*
%TD*%
D11*
%TO.C,R108*%
X166662000Y-78015500D03*
X166662000Y-78880500D03*
%TD*%
D22*
%TO.C,C110*%
X164984500Y-65748000D03*
X163259500Y-65748000D03*
%TD*%
D11*
%TO.C,R106*%
X152946000Y-83603500D03*
X152946000Y-84468500D03*
%TD*%
D22*
%TO.C,C111*%
X156856500Y-65748000D03*
X155131500Y-65748000D03*
%TD*%
D23*
%TO.C,R105*%
X166662000Y-58052500D03*
X166662000Y-57187500D03*
%TD*%
D13*
%TO.C,C106*%
X148361000Y-103081475D03*
X149911000Y-103081475D03*
%TD*%
D24*
%TO.C,R103*%
X136753000Y-112225475D03*
X135103000Y-112225475D03*
%TD*%
D25*
%TO.C,U103*%
X162725000Y-72800000D03*
X163995000Y-72800000D03*
X165265000Y-72800000D03*
X166535000Y-72800000D03*
X166535000Y-67840000D03*
X165265000Y-67840000D03*
X163995000Y-67840000D03*
X162725000Y-67840000D03*
%TD*%
D23*
%TO.C,R107*%
X152946000Y-62624500D03*
X152946000Y-61759500D03*
%TD*%
D25*
%TO.C,U104*%
X154597000Y-72800000D03*
X155867000Y-72800000D03*
X157137000Y-72800000D03*
X158407000Y-72800000D03*
X158407000Y-67840000D03*
X157137000Y-67840000D03*
X155867000Y-67840000D03*
X154597000Y-67840000D03*
%TD*%
M02*
