%TF.GenerationSoftware,KiCad,Pcbnew,9.0.3*%
%TF.CreationDate,2025-10-29T18:14:43+01:00*%
%TF.ProjectId,DC_Motor,44435f4d-6f74-46f7-922e-6b696361645f,R.Casas*%
%TF.SameCoordinates,Original*%
%TF.FileFunction,Legend,Top*%
%TF.FilePolarity,Positive*%
%FSLAX46Y46*%
G04 Gerber Fmt 4.6, Leading zero omitted, Abs format (unit mm)*
G04 Created by KiCad (PCBNEW 9.0.3) date 2025-10-29 18:14:43*
%MOMM*%
%LPD*%
G01*
G04 APERTURE LIST*
%ADD10C,0.250000*%
%ADD11C,0.150000*%
%ADD12C,0.120000*%
%ADD13C,0.127000*%
%ADD14C,0.200000*%
G04 APERTURE END LIST*
D10*
X155740000Y-103848000D02*
X179362000Y-103848000D01*
X179362000Y-116040000D01*
X155740000Y-116040000D01*
X155740000Y-103848000D01*
D11*
X84424819Y-95735714D02*
X85139104Y-95735714D01*
X85139104Y-95735714D02*
X85281961Y-95783333D01*
X85281961Y-95783333D02*
X85377200Y-95878571D01*
X85377200Y-95878571D02*
X85424819Y-96021428D01*
X85424819Y-96021428D02*
X85424819Y-96116666D01*
X85424819Y-94735714D02*
X85424819Y-95307142D01*
X85424819Y-95021428D02*
X84424819Y-95021428D01*
X84424819Y-95021428D02*
X84567676Y-95116666D01*
X84567676Y-95116666D02*
X84662914Y-95211904D01*
X84662914Y-95211904D02*
X84710533Y-95307142D01*
X84424819Y-94116666D02*
X84424819Y-94021428D01*
X84424819Y-94021428D02*
X84472438Y-93926190D01*
X84472438Y-93926190D02*
X84520057Y-93878571D01*
X84520057Y-93878571D02*
X84615295Y-93830952D01*
X84615295Y-93830952D02*
X84805771Y-93783333D01*
X84805771Y-93783333D02*
X85043866Y-93783333D01*
X85043866Y-93783333D02*
X85234342Y-93830952D01*
X85234342Y-93830952D02*
X85329580Y-93878571D01*
X85329580Y-93878571D02*
X85377200Y-93926190D01*
X85377200Y-93926190D02*
X85424819Y-94021428D01*
X85424819Y-94021428D02*
X85424819Y-94116666D01*
X85424819Y-94116666D02*
X85377200Y-94211904D01*
X85377200Y-94211904D02*
X85329580Y-94259523D01*
X85329580Y-94259523D02*
X85234342Y-94307142D01*
X85234342Y-94307142D02*
X85043866Y-94354761D01*
X85043866Y-94354761D02*
X84805771Y-94354761D01*
X84805771Y-94354761D02*
X84615295Y-94307142D01*
X84615295Y-94307142D02*
X84520057Y-94259523D01*
X84520057Y-94259523D02*
X84472438Y-94211904D01*
X84472438Y-94211904D02*
X84424819Y-94116666D01*
X85424819Y-92830952D02*
X85424819Y-93402380D01*
X85424819Y-93116666D02*
X84424819Y-93116666D01*
X84424819Y-93116666D02*
X84567676Y-93211904D01*
X84567676Y-93211904D02*
X84662914Y-93307142D01*
X84662914Y-93307142D02*
X84710533Y-93402380D01*
X153858952Y-78807580D02*
X153811333Y-78855200D01*
X153811333Y-78855200D02*
X153668476Y-78902819D01*
X153668476Y-78902819D02*
X153573238Y-78902819D01*
X153573238Y-78902819D02*
X153430381Y-78855200D01*
X153430381Y-78855200D02*
X153335143Y-78759961D01*
X153335143Y-78759961D02*
X153287524Y-78664723D01*
X153287524Y-78664723D02*
X153239905Y-78474247D01*
X153239905Y-78474247D02*
X153239905Y-78331390D01*
X153239905Y-78331390D02*
X153287524Y-78140914D01*
X153287524Y-78140914D02*
X153335143Y-78045676D01*
X153335143Y-78045676D02*
X153430381Y-77950438D01*
X153430381Y-77950438D02*
X153573238Y-77902819D01*
X153573238Y-77902819D02*
X153668476Y-77902819D01*
X153668476Y-77902819D02*
X153811333Y-77950438D01*
X153811333Y-77950438D02*
X153858952Y-77998057D01*
X154811333Y-78902819D02*
X154239905Y-78902819D01*
X154525619Y-78902819D02*
X154525619Y-77902819D01*
X154525619Y-77902819D02*
X154430381Y-78045676D01*
X154430381Y-78045676D02*
X154335143Y-78140914D01*
X154335143Y-78140914D02*
X154239905Y-78188533D01*
X155763714Y-78902819D02*
X155192286Y-78902819D01*
X155478000Y-78902819D02*
X155478000Y-77902819D01*
X155478000Y-77902819D02*
X155382762Y-78045676D01*
X155382762Y-78045676D02*
X155287524Y-78140914D01*
X155287524Y-78140914D02*
X155192286Y-78188533D01*
X156097048Y-77902819D02*
X156716095Y-77902819D01*
X156716095Y-77902819D02*
X156382762Y-78283771D01*
X156382762Y-78283771D02*
X156525619Y-78283771D01*
X156525619Y-78283771D02*
X156620857Y-78331390D01*
X156620857Y-78331390D02*
X156668476Y-78379009D01*
X156668476Y-78379009D02*
X156716095Y-78474247D01*
X156716095Y-78474247D02*
X156716095Y-78712342D01*
X156716095Y-78712342D02*
X156668476Y-78807580D01*
X156668476Y-78807580D02*
X156620857Y-78855200D01*
X156620857Y-78855200D02*
X156525619Y-78902819D01*
X156525619Y-78902819D02*
X156239905Y-78902819D01*
X156239905Y-78902819D02*
X156144667Y-78855200D01*
X156144667Y-78855200D02*
X156097048Y-78807580D01*
X141754285Y-118994819D02*
X141754285Y-119709104D01*
X141754285Y-119709104D02*
X141706666Y-119851961D01*
X141706666Y-119851961D02*
X141611428Y-119947200D01*
X141611428Y-119947200D02*
X141468571Y-119994819D01*
X141468571Y-119994819D02*
X141373333Y-119994819D01*
X142754285Y-119994819D02*
X142182857Y-119994819D01*
X142468571Y-119994819D02*
X142468571Y-118994819D01*
X142468571Y-118994819D02*
X142373333Y-119137676D01*
X142373333Y-119137676D02*
X142278095Y-119232914D01*
X142278095Y-119232914D02*
X142182857Y-119280533D01*
X143373333Y-118994819D02*
X143468571Y-118994819D01*
X143468571Y-118994819D02*
X143563809Y-119042438D01*
X143563809Y-119042438D02*
X143611428Y-119090057D01*
X143611428Y-119090057D02*
X143659047Y-119185295D01*
X143659047Y-119185295D02*
X143706666Y-119375771D01*
X143706666Y-119375771D02*
X143706666Y-119613866D01*
X143706666Y-119613866D02*
X143659047Y-119804342D01*
X143659047Y-119804342D02*
X143611428Y-119899580D01*
X143611428Y-119899580D02*
X143563809Y-119947200D01*
X143563809Y-119947200D02*
X143468571Y-119994819D01*
X143468571Y-119994819D02*
X143373333Y-119994819D01*
X143373333Y-119994819D02*
X143278095Y-119947200D01*
X143278095Y-119947200D02*
X143230476Y-119899580D01*
X143230476Y-119899580D02*
X143182857Y-119804342D01*
X143182857Y-119804342D02*
X143135238Y-119613866D01*
X143135238Y-119613866D02*
X143135238Y-119375771D01*
X143135238Y-119375771D02*
X143182857Y-119185295D01*
X143182857Y-119185295D02*
X143230476Y-119090057D01*
X143230476Y-119090057D02*
X143278095Y-119042438D01*
X143278095Y-119042438D02*
X143373333Y-118994819D01*
X144087619Y-119090057D02*
X144135238Y-119042438D01*
X144135238Y-119042438D02*
X144230476Y-118994819D01*
X144230476Y-118994819D02*
X144468571Y-118994819D01*
X144468571Y-118994819D02*
X144563809Y-119042438D01*
X144563809Y-119042438D02*
X144611428Y-119090057D01*
X144611428Y-119090057D02*
X144659047Y-119185295D01*
X144659047Y-119185295D02*
X144659047Y-119280533D01*
X144659047Y-119280533D02*
X144611428Y-119423390D01*
X144611428Y-119423390D02*
X144040000Y-119994819D01*
X144040000Y-119994819D02*
X144659047Y-119994819D01*
X123174819Y-114619047D02*
X122698628Y-114952380D01*
X123174819Y-115190475D02*
X122174819Y-115190475D01*
X122174819Y-115190475D02*
X122174819Y-114809523D01*
X122174819Y-114809523D02*
X122222438Y-114714285D01*
X122222438Y-114714285D02*
X122270057Y-114666666D01*
X122270057Y-114666666D02*
X122365295Y-114619047D01*
X122365295Y-114619047D02*
X122508152Y-114619047D01*
X122508152Y-114619047D02*
X122603390Y-114666666D01*
X122603390Y-114666666D02*
X122651009Y-114714285D01*
X122651009Y-114714285D02*
X122698628Y-114809523D01*
X122698628Y-114809523D02*
X122698628Y-115190475D01*
X123174819Y-113666666D02*
X123174819Y-114238094D01*
X123174819Y-113952380D02*
X122174819Y-113952380D01*
X122174819Y-113952380D02*
X122317676Y-114047618D01*
X122317676Y-114047618D02*
X122412914Y-114142856D01*
X122412914Y-114142856D02*
X122460533Y-114238094D01*
X122174819Y-113047618D02*
X122174819Y-112952380D01*
X122174819Y-112952380D02*
X122222438Y-112857142D01*
X122222438Y-112857142D02*
X122270057Y-112809523D01*
X122270057Y-112809523D02*
X122365295Y-112761904D01*
X122365295Y-112761904D02*
X122555771Y-112714285D01*
X122555771Y-112714285D02*
X122793866Y-112714285D01*
X122793866Y-112714285D02*
X122984342Y-112761904D01*
X122984342Y-112761904D02*
X123079580Y-112809523D01*
X123079580Y-112809523D02*
X123127200Y-112857142D01*
X123127200Y-112857142D02*
X123174819Y-112952380D01*
X123174819Y-112952380D02*
X123174819Y-113047618D01*
X123174819Y-113047618D02*
X123127200Y-113142856D01*
X123127200Y-113142856D02*
X123079580Y-113190475D01*
X123079580Y-113190475D02*
X122984342Y-113238094D01*
X122984342Y-113238094D02*
X122793866Y-113285713D01*
X122793866Y-113285713D02*
X122555771Y-113285713D01*
X122555771Y-113285713D02*
X122365295Y-113238094D01*
X122365295Y-113238094D02*
X122270057Y-113190475D01*
X122270057Y-113190475D02*
X122222438Y-113142856D01*
X122222438Y-113142856D02*
X122174819Y-113047618D01*
X123174819Y-112238094D02*
X123174819Y-112047618D01*
X123174819Y-112047618D02*
X123127200Y-111952380D01*
X123127200Y-111952380D02*
X123079580Y-111904761D01*
X123079580Y-111904761D02*
X122936723Y-111809523D01*
X122936723Y-111809523D02*
X122746247Y-111761904D01*
X122746247Y-111761904D02*
X122365295Y-111761904D01*
X122365295Y-111761904D02*
X122270057Y-111809523D01*
X122270057Y-111809523D02*
X122222438Y-111857142D01*
X122222438Y-111857142D02*
X122174819Y-111952380D01*
X122174819Y-111952380D02*
X122174819Y-112142856D01*
X122174819Y-112142856D02*
X122222438Y-112238094D01*
X122222438Y-112238094D02*
X122270057Y-112285713D01*
X122270057Y-112285713D02*
X122365295Y-112333332D01*
X122365295Y-112333332D02*
X122603390Y-112333332D01*
X122603390Y-112333332D02*
X122698628Y-112285713D01*
X122698628Y-112285713D02*
X122746247Y-112238094D01*
X122746247Y-112238094D02*
X122793866Y-112142856D01*
X122793866Y-112142856D02*
X122793866Y-111952380D01*
X122793866Y-111952380D02*
X122746247Y-111857142D01*
X122746247Y-111857142D02*
X122698628Y-111809523D01*
X122698628Y-111809523D02*
X122603390Y-111761904D01*
X119364819Y-109539047D02*
X118888628Y-109872380D01*
X119364819Y-110110475D02*
X118364819Y-110110475D01*
X118364819Y-110110475D02*
X118364819Y-109729523D01*
X118364819Y-109729523D02*
X118412438Y-109634285D01*
X118412438Y-109634285D02*
X118460057Y-109586666D01*
X118460057Y-109586666D02*
X118555295Y-109539047D01*
X118555295Y-109539047D02*
X118698152Y-109539047D01*
X118698152Y-109539047D02*
X118793390Y-109586666D01*
X118793390Y-109586666D02*
X118841009Y-109634285D01*
X118841009Y-109634285D02*
X118888628Y-109729523D01*
X118888628Y-109729523D02*
X118888628Y-110110475D01*
X119364819Y-108586666D02*
X119364819Y-109158094D01*
X119364819Y-108872380D02*
X118364819Y-108872380D01*
X118364819Y-108872380D02*
X118507676Y-108967618D01*
X118507676Y-108967618D02*
X118602914Y-109062856D01*
X118602914Y-109062856D02*
X118650533Y-109158094D01*
X118364819Y-107967618D02*
X118364819Y-107872380D01*
X118364819Y-107872380D02*
X118412438Y-107777142D01*
X118412438Y-107777142D02*
X118460057Y-107729523D01*
X118460057Y-107729523D02*
X118555295Y-107681904D01*
X118555295Y-107681904D02*
X118745771Y-107634285D01*
X118745771Y-107634285D02*
X118983866Y-107634285D01*
X118983866Y-107634285D02*
X119174342Y-107681904D01*
X119174342Y-107681904D02*
X119269580Y-107729523D01*
X119269580Y-107729523D02*
X119317200Y-107777142D01*
X119317200Y-107777142D02*
X119364819Y-107872380D01*
X119364819Y-107872380D02*
X119364819Y-107967618D01*
X119364819Y-107967618D02*
X119317200Y-108062856D01*
X119317200Y-108062856D02*
X119269580Y-108110475D01*
X119269580Y-108110475D02*
X119174342Y-108158094D01*
X119174342Y-108158094D02*
X118983866Y-108205713D01*
X118983866Y-108205713D02*
X118745771Y-108205713D01*
X118745771Y-108205713D02*
X118555295Y-108158094D01*
X118555295Y-108158094D02*
X118460057Y-108110475D01*
X118460057Y-108110475D02*
X118412438Y-108062856D01*
X118412438Y-108062856D02*
X118364819Y-107967618D01*
X118698152Y-106777142D02*
X119364819Y-106777142D01*
X118317200Y-107015237D02*
X119031485Y-107253332D01*
X119031485Y-107253332D02*
X119031485Y-106634285D01*
X116784819Y-107570475D02*
X115784819Y-107570475D01*
X115784819Y-107570475D02*
X115784819Y-107332380D01*
X115784819Y-107332380D02*
X115832438Y-107189523D01*
X115832438Y-107189523D02*
X115927676Y-107094285D01*
X115927676Y-107094285D02*
X116022914Y-107046666D01*
X116022914Y-107046666D02*
X116213390Y-106999047D01*
X116213390Y-106999047D02*
X116356247Y-106999047D01*
X116356247Y-106999047D02*
X116546723Y-107046666D01*
X116546723Y-107046666D02*
X116641961Y-107094285D01*
X116641961Y-107094285D02*
X116737200Y-107189523D01*
X116737200Y-107189523D02*
X116784819Y-107332380D01*
X116784819Y-107332380D02*
X116784819Y-107570475D01*
X116784819Y-106046666D02*
X116784819Y-106618094D01*
X116784819Y-106332380D02*
X115784819Y-106332380D01*
X115784819Y-106332380D02*
X115927676Y-106427618D01*
X115927676Y-106427618D02*
X116022914Y-106522856D01*
X116022914Y-106522856D02*
X116070533Y-106618094D01*
X115784819Y-105427618D02*
X115784819Y-105332380D01*
X115784819Y-105332380D02*
X115832438Y-105237142D01*
X115832438Y-105237142D02*
X115880057Y-105189523D01*
X115880057Y-105189523D02*
X115975295Y-105141904D01*
X115975295Y-105141904D02*
X116165771Y-105094285D01*
X116165771Y-105094285D02*
X116403866Y-105094285D01*
X116403866Y-105094285D02*
X116594342Y-105141904D01*
X116594342Y-105141904D02*
X116689580Y-105189523D01*
X116689580Y-105189523D02*
X116737200Y-105237142D01*
X116737200Y-105237142D02*
X116784819Y-105332380D01*
X116784819Y-105332380D02*
X116784819Y-105427618D01*
X116784819Y-105427618D02*
X116737200Y-105522856D01*
X116737200Y-105522856D02*
X116689580Y-105570475D01*
X116689580Y-105570475D02*
X116594342Y-105618094D01*
X116594342Y-105618094D02*
X116403866Y-105665713D01*
X116403866Y-105665713D02*
X116165771Y-105665713D01*
X116165771Y-105665713D02*
X115975295Y-105618094D01*
X115975295Y-105618094D02*
X115880057Y-105570475D01*
X115880057Y-105570475D02*
X115832438Y-105522856D01*
X115832438Y-105522856D02*
X115784819Y-105427618D01*
X116784819Y-104141904D02*
X116784819Y-104713332D01*
X116784819Y-104427618D02*
X115784819Y-104427618D01*
X115784819Y-104427618D02*
X115927676Y-104522856D01*
X115927676Y-104522856D02*
X116022914Y-104618094D01*
X116022914Y-104618094D02*
X116070533Y-104713332D01*
X151572952Y-104965055D02*
X151525333Y-105012675D01*
X151525333Y-105012675D02*
X151382476Y-105060294D01*
X151382476Y-105060294D02*
X151287238Y-105060294D01*
X151287238Y-105060294D02*
X151144381Y-105012675D01*
X151144381Y-105012675D02*
X151049143Y-104917436D01*
X151049143Y-104917436D02*
X151001524Y-104822198D01*
X151001524Y-104822198D02*
X150953905Y-104631722D01*
X150953905Y-104631722D02*
X150953905Y-104488865D01*
X150953905Y-104488865D02*
X151001524Y-104298389D01*
X151001524Y-104298389D02*
X151049143Y-104203151D01*
X151049143Y-104203151D02*
X151144381Y-104107913D01*
X151144381Y-104107913D02*
X151287238Y-104060294D01*
X151287238Y-104060294D02*
X151382476Y-104060294D01*
X151382476Y-104060294D02*
X151525333Y-104107913D01*
X151525333Y-104107913D02*
X151572952Y-104155532D01*
X152525333Y-105060294D02*
X151953905Y-105060294D01*
X152239619Y-105060294D02*
X152239619Y-104060294D01*
X152239619Y-104060294D02*
X152144381Y-104203151D01*
X152144381Y-104203151D02*
X152049143Y-104298389D01*
X152049143Y-104298389D02*
X151953905Y-104346008D01*
X153144381Y-104060294D02*
X153239619Y-104060294D01*
X153239619Y-104060294D02*
X153334857Y-104107913D01*
X153334857Y-104107913D02*
X153382476Y-104155532D01*
X153382476Y-104155532D02*
X153430095Y-104250770D01*
X153430095Y-104250770D02*
X153477714Y-104441246D01*
X153477714Y-104441246D02*
X153477714Y-104679341D01*
X153477714Y-104679341D02*
X153430095Y-104869817D01*
X153430095Y-104869817D02*
X153382476Y-104965055D01*
X153382476Y-104965055D02*
X153334857Y-105012675D01*
X153334857Y-105012675D02*
X153239619Y-105060294D01*
X153239619Y-105060294D02*
X153144381Y-105060294D01*
X153144381Y-105060294D02*
X153049143Y-105012675D01*
X153049143Y-105012675D02*
X153001524Y-104965055D01*
X153001524Y-104965055D02*
X152953905Y-104869817D01*
X152953905Y-104869817D02*
X152906286Y-104679341D01*
X152906286Y-104679341D02*
X152906286Y-104441246D01*
X152906286Y-104441246D02*
X152953905Y-104250770D01*
X152953905Y-104250770D02*
X153001524Y-104155532D01*
X153001524Y-104155532D02*
X153049143Y-104107913D01*
X153049143Y-104107913D02*
X153144381Y-104060294D01*
X153811048Y-104060294D02*
X154477714Y-104060294D01*
X154477714Y-104060294D02*
X154049143Y-105060294D01*
X89255714Y-37634819D02*
X89255714Y-36634819D01*
X89255714Y-37111009D02*
X89827142Y-37111009D01*
X89827142Y-37634819D02*
X89827142Y-36634819D01*
X90827142Y-37634819D02*
X90255714Y-37634819D01*
X90541428Y-37634819D02*
X90541428Y-36634819D01*
X90541428Y-36634819D02*
X90446190Y-36777676D01*
X90446190Y-36777676D02*
X90350952Y-36872914D01*
X90350952Y-36872914D02*
X90255714Y-36920533D01*
X91446190Y-36634819D02*
X91541428Y-36634819D01*
X91541428Y-36634819D02*
X91636666Y-36682438D01*
X91636666Y-36682438D02*
X91684285Y-36730057D01*
X91684285Y-36730057D02*
X91731904Y-36825295D01*
X91731904Y-36825295D02*
X91779523Y-37015771D01*
X91779523Y-37015771D02*
X91779523Y-37253866D01*
X91779523Y-37253866D02*
X91731904Y-37444342D01*
X91731904Y-37444342D02*
X91684285Y-37539580D01*
X91684285Y-37539580D02*
X91636666Y-37587200D01*
X91636666Y-37587200D02*
X91541428Y-37634819D01*
X91541428Y-37634819D02*
X91446190Y-37634819D01*
X91446190Y-37634819D02*
X91350952Y-37587200D01*
X91350952Y-37587200D02*
X91303333Y-37539580D01*
X91303333Y-37539580D02*
X91255714Y-37444342D01*
X91255714Y-37444342D02*
X91208095Y-37253866D01*
X91208095Y-37253866D02*
X91208095Y-37015771D01*
X91208095Y-37015771D02*
X91255714Y-36825295D01*
X91255714Y-36825295D02*
X91303333Y-36730057D01*
X91303333Y-36730057D02*
X91350952Y-36682438D01*
X91350952Y-36682438D02*
X91446190Y-36634819D01*
X92731904Y-37634819D02*
X92160476Y-37634819D01*
X92446190Y-37634819D02*
X92446190Y-36634819D01*
X92446190Y-36634819D02*
X92350952Y-36777676D01*
X92350952Y-36777676D02*
X92255714Y-36872914D01*
X92255714Y-36872914D02*
X92160476Y-36920533D01*
X123569524Y-117002819D02*
X123569524Y-116002819D01*
X123569524Y-116002819D02*
X123807619Y-116002819D01*
X123807619Y-116002819D02*
X123950476Y-116050438D01*
X123950476Y-116050438D02*
X124045714Y-116145676D01*
X124045714Y-116145676D02*
X124093333Y-116240914D01*
X124093333Y-116240914D02*
X124140952Y-116431390D01*
X124140952Y-116431390D02*
X124140952Y-116574247D01*
X124140952Y-116574247D02*
X124093333Y-116764723D01*
X124093333Y-116764723D02*
X124045714Y-116859961D01*
X124045714Y-116859961D02*
X123950476Y-116955200D01*
X123950476Y-116955200D02*
X123807619Y-117002819D01*
X123807619Y-117002819D02*
X123569524Y-117002819D01*
X125093333Y-117002819D02*
X124521905Y-117002819D01*
X124807619Y-117002819D02*
X124807619Y-116002819D01*
X124807619Y-116002819D02*
X124712381Y-116145676D01*
X124712381Y-116145676D02*
X124617143Y-116240914D01*
X124617143Y-116240914D02*
X124521905Y-116288533D01*
X125712381Y-116002819D02*
X125807619Y-116002819D01*
X125807619Y-116002819D02*
X125902857Y-116050438D01*
X125902857Y-116050438D02*
X125950476Y-116098057D01*
X125950476Y-116098057D02*
X125998095Y-116193295D01*
X125998095Y-116193295D02*
X126045714Y-116383771D01*
X126045714Y-116383771D02*
X126045714Y-116621866D01*
X126045714Y-116621866D02*
X125998095Y-116812342D01*
X125998095Y-116812342D02*
X125950476Y-116907580D01*
X125950476Y-116907580D02*
X125902857Y-116955200D01*
X125902857Y-116955200D02*
X125807619Y-117002819D01*
X125807619Y-117002819D02*
X125712381Y-117002819D01*
X125712381Y-117002819D02*
X125617143Y-116955200D01*
X125617143Y-116955200D02*
X125569524Y-116907580D01*
X125569524Y-116907580D02*
X125521905Y-116812342D01*
X125521905Y-116812342D02*
X125474286Y-116621866D01*
X125474286Y-116621866D02*
X125474286Y-116383771D01*
X125474286Y-116383771D02*
X125521905Y-116193295D01*
X125521905Y-116193295D02*
X125569524Y-116098057D01*
X125569524Y-116098057D02*
X125617143Y-116050438D01*
X125617143Y-116050438D02*
X125712381Y-116002819D01*
X126902857Y-116336152D02*
X126902857Y-117002819D01*
X126664762Y-115955200D02*
X126426667Y-116669485D01*
X126426667Y-116669485D02*
X127045714Y-116669485D01*
X110744819Y-112674285D02*
X111554342Y-112674285D01*
X111554342Y-112674285D02*
X111649580Y-112626666D01*
X111649580Y-112626666D02*
X111697200Y-112579047D01*
X111697200Y-112579047D02*
X111744819Y-112483809D01*
X111744819Y-112483809D02*
X111744819Y-112293333D01*
X111744819Y-112293333D02*
X111697200Y-112198095D01*
X111697200Y-112198095D02*
X111649580Y-112150476D01*
X111649580Y-112150476D02*
X111554342Y-112102857D01*
X111554342Y-112102857D02*
X110744819Y-112102857D01*
X111744819Y-111102857D02*
X111744819Y-111674285D01*
X111744819Y-111388571D02*
X110744819Y-111388571D01*
X110744819Y-111388571D02*
X110887676Y-111483809D01*
X110887676Y-111483809D02*
X110982914Y-111579047D01*
X110982914Y-111579047D02*
X111030533Y-111674285D01*
X110744819Y-110483809D02*
X110744819Y-110388571D01*
X110744819Y-110388571D02*
X110792438Y-110293333D01*
X110792438Y-110293333D02*
X110840057Y-110245714D01*
X110840057Y-110245714D02*
X110935295Y-110198095D01*
X110935295Y-110198095D02*
X111125771Y-110150476D01*
X111125771Y-110150476D02*
X111363866Y-110150476D01*
X111363866Y-110150476D02*
X111554342Y-110198095D01*
X111554342Y-110198095D02*
X111649580Y-110245714D01*
X111649580Y-110245714D02*
X111697200Y-110293333D01*
X111697200Y-110293333D02*
X111744819Y-110388571D01*
X111744819Y-110388571D02*
X111744819Y-110483809D01*
X111744819Y-110483809D02*
X111697200Y-110579047D01*
X111697200Y-110579047D02*
X111649580Y-110626666D01*
X111649580Y-110626666D02*
X111554342Y-110674285D01*
X111554342Y-110674285D02*
X111363866Y-110721904D01*
X111363866Y-110721904D02*
X111125771Y-110721904D01*
X111125771Y-110721904D02*
X110935295Y-110674285D01*
X110935295Y-110674285D02*
X110840057Y-110626666D01*
X110840057Y-110626666D02*
X110792438Y-110579047D01*
X110792438Y-110579047D02*
X110744819Y-110483809D01*
X110840057Y-109769523D02*
X110792438Y-109721904D01*
X110792438Y-109721904D02*
X110744819Y-109626666D01*
X110744819Y-109626666D02*
X110744819Y-109388571D01*
X110744819Y-109388571D02*
X110792438Y-109293333D01*
X110792438Y-109293333D02*
X110840057Y-109245714D01*
X110840057Y-109245714D02*
X110935295Y-109198095D01*
X110935295Y-109198095D02*
X111030533Y-109198095D01*
X111030533Y-109198095D02*
X111173390Y-109245714D01*
X111173390Y-109245714D02*
X111744819Y-109817142D01*
X111744819Y-109817142D02*
X111744819Y-109198095D01*
X107564285Y-67951009D02*
X107230952Y-67951009D01*
X107230952Y-68474819D02*
X107230952Y-67474819D01*
X107230952Y-67474819D02*
X107707142Y-67474819D01*
X108611904Y-68474819D02*
X108040476Y-68474819D01*
X108326190Y-68474819D02*
X108326190Y-67474819D01*
X108326190Y-67474819D02*
X108230952Y-67617676D01*
X108230952Y-67617676D02*
X108135714Y-67712914D01*
X108135714Y-67712914D02*
X108040476Y-67760533D01*
X109230952Y-67474819D02*
X109326190Y-67474819D01*
X109326190Y-67474819D02*
X109421428Y-67522438D01*
X109421428Y-67522438D02*
X109469047Y-67570057D01*
X109469047Y-67570057D02*
X109516666Y-67665295D01*
X109516666Y-67665295D02*
X109564285Y-67855771D01*
X109564285Y-67855771D02*
X109564285Y-68093866D01*
X109564285Y-68093866D02*
X109516666Y-68284342D01*
X109516666Y-68284342D02*
X109469047Y-68379580D01*
X109469047Y-68379580D02*
X109421428Y-68427200D01*
X109421428Y-68427200D02*
X109326190Y-68474819D01*
X109326190Y-68474819D02*
X109230952Y-68474819D01*
X109230952Y-68474819D02*
X109135714Y-68427200D01*
X109135714Y-68427200D02*
X109088095Y-68379580D01*
X109088095Y-68379580D02*
X109040476Y-68284342D01*
X109040476Y-68284342D02*
X108992857Y-68093866D01*
X108992857Y-68093866D02*
X108992857Y-67855771D01*
X108992857Y-67855771D02*
X109040476Y-67665295D01*
X109040476Y-67665295D02*
X109088095Y-67570057D01*
X109088095Y-67570057D02*
X109135714Y-67522438D01*
X109135714Y-67522438D02*
X109230952Y-67474819D01*
X110516666Y-68474819D02*
X109945238Y-68474819D01*
X110230952Y-68474819D02*
X110230952Y-67474819D01*
X110230952Y-67474819D02*
X110135714Y-67617676D01*
X110135714Y-67617676D02*
X110040476Y-67712914D01*
X110040476Y-67712914D02*
X109945238Y-67760533D01*
X148524952Y-116649055D02*
X148477333Y-116696675D01*
X148477333Y-116696675D02*
X148334476Y-116744294D01*
X148334476Y-116744294D02*
X148239238Y-116744294D01*
X148239238Y-116744294D02*
X148096381Y-116696675D01*
X148096381Y-116696675D02*
X148001143Y-116601436D01*
X148001143Y-116601436D02*
X147953524Y-116506198D01*
X147953524Y-116506198D02*
X147905905Y-116315722D01*
X147905905Y-116315722D02*
X147905905Y-116172865D01*
X147905905Y-116172865D02*
X147953524Y-115982389D01*
X147953524Y-115982389D02*
X148001143Y-115887151D01*
X148001143Y-115887151D02*
X148096381Y-115791913D01*
X148096381Y-115791913D02*
X148239238Y-115744294D01*
X148239238Y-115744294D02*
X148334476Y-115744294D01*
X148334476Y-115744294D02*
X148477333Y-115791913D01*
X148477333Y-115791913D02*
X148524952Y-115839532D01*
X149477333Y-116744294D02*
X148905905Y-116744294D01*
X149191619Y-116744294D02*
X149191619Y-115744294D01*
X149191619Y-115744294D02*
X149096381Y-115887151D01*
X149096381Y-115887151D02*
X149001143Y-115982389D01*
X149001143Y-115982389D02*
X148905905Y-116030008D01*
X150096381Y-115744294D02*
X150191619Y-115744294D01*
X150191619Y-115744294D02*
X150286857Y-115791913D01*
X150286857Y-115791913D02*
X150334476Y-115839532D01*
X150334476Y-115839532D02*
X150382095Y-115934770D01*
X150382095Y-115934770D02*
X150429714Y-116125246D01*
X150429714Y-116125246D02*
X150429714Y-116363341D01*
X150429714Y-116363341D02*
X150382095Y-116553817D01*
X150382095Y-116553817D02*
X150334476Y-116649055D01*
X150334476Y-116649055D02*
X150286857Y-116696675D01*
X150286857Y-116696675D02*
X150191619Y-116744294D01*
X150191619Y-116744294D02*
X150096381Y-116744294D01*
X150096381Y-116744294D02*
X150001143Y-116696675D01*
X150001143Y-116696675D02*
X149953524Y-116649055D01*
X149953524Y-116649055D02*
X149905905Y-116553817D01*
X149905905Y-116553817D02*
X149858286Y-116363341D01*
X149858286Y-116363341D02*
X149858286Y-116125246D01*
X149858286Y-116125246D02*
X149905905Y-115934770D01*
X149905905Y-115934770D02*
X149953524Y-115839532D01*
X149953524Y-115839532D02*
X150001143Y-115791913D01*
X150001143Y-115791913D02*
X150096381Y-115744294D01*
X151382095Y-116744294D02*
X150810667Y-116744294D01*
X151096381Y-116744294D02*
X151096381Y-115744294D01*
X151096381Y-115744294D02*
X151001143Y-115887151D01*
X151001143Y-115887151D02*
X150905905Y-115982389D01*
X150905905Y-115982389D02*
X150810667Y-116030008D01*
X162606190Y-39861009D02*
X162272857Y-39861009D01*
X162272857Y-40384819D02*
X162272857Y-39384819D01*
X162272857Y-39384819D02*
X162749047Y-39384819D01*
X163130000Y-40384819D02*
X163130000Y-39384819D01*
X163606190Y-40384819D02*
X163606190Y-39384819D01*
X163606190Y-39384819D02*
X163844285Y-39384819D01*
X163844285Y-39384819D02*
X163987142Y-39432438D01*
X163987142Y-39432438D02*
X164082380Y-39527676D01*
X164082380Y-39527676D02*
X164129999Y-39622914D01*
X164129999Y-39622914D02*
X164177618Y-39813390D01*
X164177618Y-39813390D02*
X164177618Y-39956247D01*
X164177618Y-39956247D02*
X164129999Y-40146723D01*
X164129999Y-40146723D02*
X164082380Y-40241961D01*
X164082380Y-40241961D02*
X163987142Y-40337200D01*
X163987142Y-40337200D02*
X163844285Y-40384819D01*
X163844285Y-40384819D02*
X163606190Y-40384819D01*
X165129999Y-40384819D02*
X164558571Y-40384819D01*
X164844285Y-40384819D02*
X164844285Y-39384819D01*
X164844285Y-39384819D02*
X164749047Y-39527676D01*
X164749047Y-39527676D02*
X164653809Y-39622914D01*
X164653809Y-39622914D02*
X164558571Y-39670533D01*
X165749047Y-39384819D02*
X165844285Y-39384819D01*
X165844285Y-39384819D02*
X165939523Y-39432438D01*
X165939523Y-39432438D02*
X165987142Y-39480057D01*
X165987142Y-39480057D02*
X166034761Y-39575295D01*
X166034761Y-39575295D02*
X166082380Y-39765771D01*
X166082380Y-39765771D02*
X166082380Y-40003866D01*
X166082380Y-40003866D02*
X166034761Y-40194342D01*
X166034761Y-40194342D02*
X165987142Y-40289580D01*
X165987142Y-40289580D02*
X165939523Y-40337200D01*
X165939523Y-40337200D02*
X165844285Y-40384819D01*
X165844285Y-40384819D02*
X165749047Y-40384819D01*
X165749047Y-40384819D02*
X165653809Y-40337200D01*
X165653809Y-40337200D02*
X165606190Y-40289580D01*
X165606190Y-40289580D02*
X165558571Y-40194342D01*
X165558571Y-40194342D02*
X165510952Y-40003866D01*
X165510952Y-40003866D02*
X165510952Y-39765771D01*
X165510952Y-39765771D02*
X165558571Y-39575295D01*
X165558571Y-39575295D02*
X165606190Y-39480057D01*
X165606190Y-39480057D02*
X165653809Y-39432438D01*
X165653809Y-39432438D02*
X165749047Y-39384819D01*
X166463333Y-39480057D02*
X166510952Y-39432438D01*
X166510952Y-39432438D02*
X166606190Y-39384819D01*
X166606190Y-39384819D02*
X166844285Y-39384819D01*
X166844285Y-39384819D02*
X166939523Y-39432438D01*
X166939523Y-39432438D02*
X166987142Y-39480057D01*
X166987142Y-39480057D02*
X167034761Y-39575295D01*
X167034761Y-39575295D02*
X167034761Y-39670533D01*
X167034761Y-39670533D02*
X166987142Y-39813390D01*
X166987142Y-39813390D02*
X166415714Y-40384819D01*
X166415714Y-40384819D02*
X167034761Y-40384819D01*
X170535714Y-118914819D02*
X170535714Y-117914819D01*
X170535714Y-118391009D02*
X171107142Y-118391009D01*
X171107142Y-118914819D02*
X171107142Y-117914819D01*
X172107142Y-118914819D02*
X171535714Y-118914819D01*
X171821428Y-118914819D02*
X171821428Y-117914819D01*
X171821428Y-117914819D02*
X171726190Y-118057676D01*
X171726190Y-118057676D02*
X171630952Y-118152914D01*
X171630952Y-118152914D02*
X171535714Y-118200533D01*
X172726190Y-117914819D02*
X172821428Y-117914819D01*
X172821428Y-117914819D02*
X172916666Y-117962438D01*
X172916666Y-117962438D02*
X172964285Y-118010057D01*
X172964285Y-118010057D02*
X173011904Y-118105295D01*
X173011904Y-118105295D02*
X173059523Y-118295771D01*
X173059523Y-118295771D02*
X173059523Y-118533866D01*
X173059523Y-118533866D02*
X173011904Y-118724342D01*
X173011904Y-118724342D02*
X172964285Y-118819580D01*
X172964285Y-118819580D02*
X172916666Y-118867200D01*
X172916666Y-118867200D02*
X172821428Y-118914819D01*
X172821428Y-118914819D02*
X172726190Y-118914819D01*
X172726190Y-118914819D02*
X172630952Y-118867200D01*
X172630952Y-118867200D02*
X172583333Y-118819580D01*
X172583333Y-118819580D02*
X172535714Y-118724342D01*
X172535714Y-118724342D02*
X172488095Y-118533866D01*
X172488095Y-118533866D02*
X172488095Y-118295771D01*
X172488095Y-118295771D02*
X172535714Y-118105295D01*
X172535714Y-118105295D02*
X172583333Y-118010057D01*
X172583333Y-118010057D02*
X172630952Y-117962438D01*
X172630952Y-117962438D02*
X172726190Y-117914819D01*
X173916666Y-118248152D02*
X173916666Y-118914819D01*
X173678571Y-117867200D02*
X173440476Y-118581485D01*
X173440476Y-118581485D02*
X174059523Y-118581485D01*
X170535714Y-37634819D02*
X170535714Y-36634819D01*
X170535714Y-37111009D02*
X171107142Y-37111009D01*
X171107142Y-37634819D02*
X171107142Y-36634819D01*
X172107142Y-37634819D02*
X171535714Y-37634819D01*
X171821428Y-37634819D02*
X171821428Y-36634819D01*
X171821428Y-36634819D02*
X171726190Y-36777676D01*
X171726190Y-36777676D02*
X171630952Y-36872914D01*
X171630952Y-36872914D02*
X171535714Y-36920533D01*
X172726190Y-36634819D02*
X172821428Y-36634819D01*
X172821428Y-36634819D02*
X172916666Y-36682438D01*
X172916666Y-36682438D02*
X172964285Y-36730057D01*
X172964285Y-36730057D02*
X173011904Y-36825295D01*
X173011904Y-36825295D02*
X173059523Y-37015771D01*
X173059523Y-37015771D02*
X173059523Y-37253866D01*
X173059523Y-37253866D02*
X173011904Y-37444342D01*
X173011904Y-37444342D02*
X172964285Y-37539580D01*
X172964285Y-37539580D02*
X172916666Y-37587200D01*
X172916666Y-37587200D02*
X172821428Y-37634819D01*
X172821428Y-37634819D02*
X172726190Y-37634819D01*
X172726190Y-37634819D02*
X172630952Y-37587200D01*
X172630952Y-37587200D02*
X172583333Y-37539580D01*
X172583333Y-37539580D02*
X172535714Y-37444342D01*
X172535714Y-37444342D02*
X172488095Y-37253866D01*
X172488095Y-37253866D02*
X172488095Y-37015771D01*
X172488095Y-37015771D02*
X172535714Y-36825295D01*
X172535714Y-36825295D02*
X172583333Y-36730057D01*
X172583333Y-36730057D02*
X172630952Y-36682438D01*
X172630952Y-36682438D02*
X172726190Y-36634819D01*
X173440476Y-36730057D02*
X173488095Y-36682438D01*
X173488095Y-36682438D02*
X173583333Y-36634819D01*
X173583333Y-36634819D02*
X173821428Y-36634819D01*
X173821428Y-36634819D02*
X173916666Y-36682438D01*
X173916666Y-36682438D02*
X173964285Y-36730057D01*
X173964285Y-36730057D02*
X174011904Y-36825295D01*
X174011904Y-36825295D02*
X174011904Y-36920533D01*
X174011904Y-36920533D02*
X173964285Y-37063390D01*
X173964285Y-37063390D02*
X173392857Y-37634819D01*
X173392857Y-37634819D02*
X174011904Y-37634819D01*
X104029580Y-112079047D02*
X104077200Y-112126666D01*
X104077200Y-112126666D02*
X104124819Y-112269523D01*
X104124819Y-112269523D02*
X104124819Y-112364761D01*
X104124819Y-112364761D02*
X104077200Y-112507618D01*
X104077200Y-112507618D02*
X103981961Y-112602856D01*
X103981961Y-112602856D02*
X103886723Y-112650475D01*
X103886723Y-112650475D02*
X103696247Y-112698094D01*
X103696247Y-112698094D02*
X103553390Y-112698094D01*
X103553390Y-112698094D02*
X103362914Y-112650475D01*
X103362914Y-112650475D02*
X103267676Y-112602856D01*
X103267676Y-112602856D02*
X103172438Y-112507618D01*
X103172438Y-112507618D02*
X103124819Y-112364761D01*
X103124819Y-112364761D02*
X103124819Y-112269523D01*
X103124819Y-112269523D02*
X103172438Y-112126666D01*
X103172438Y-112126666D02*
X103220057Y-112079047D01*
X104124819Y-111126666D02*
X104124819Y-111698094D01*
X104124819Y-111412380D02*
X103124819Y-111412380D01*
X103124819Y-111412380D02*
X103267676Y-111507618D01*
X103267676Y-111507618D02*
X103362914Y-111602856D01*
X103362914Y-111602856D02*
X103410533Y-111698094D01*
X103124819Y-110507618D02*
X103124819Y-110412380D01*
X103124819Y-110412380D02*
X103172438Y-110317142D01*
X103172438Y-110317142D02*
X103220057Y-110269523D01*
X103220057Y-110269523D02*
X103315295Y-110221904D01*
X103315295Y-110221904D02*
X103505771Y-110174285D01*
X103505771Y-110174285D02*
X103743866Y-110174285D01*
X103743866Y-110174285D02*
X103934342Y-110221904D01*
X103934342Y-110221904D02*
X104029580Y-110269523D01*
X104029580Y-110269523D02*
X104077200Y-110317142D01*
X104077200Y-110317142D02*
X104124819Y-110412380D01*
X104124819Y-110412380D02*
X104124819Y-110507618D01*
X104124819Y-110507618D02*
X104077200Y-110602856D01*
X104077200Y-110602856D02*
X104029580Y-110650475D01*
X104029580Y-110650475D02*
X103934342Y-110698094D01*
X103934342Y-110698094D02*
X103743866Y-110745713D01*
X103743866Y-110745713D02*
X103505771Y-110745713D01*
X103505771Y-110745713D02*
X103315295Y-110698094D01*
X103315295Y-110698094D02*
X103220057Y-110650475D01*
X103220057Y-110650475D02*
X103172438Y-110602856D01*
X103172438Y-110602856D02*
X103124819Y-110507618D01*
X103124819Y-109840951D02*
X103124819Y-109221904D01*
X103124819Y-109221904D02*
X103505771Y-109555237D01*
X103505771Y-109555237D02*
X103505771Y-109412380D01*
X103505771Y-109412380D02*
X103553390Y-109317142D01*
X103553390Y-109317142D02*
X103601009Y-109269523D01*
X103601009Y-109269523D02*
X103696247Y-109221904D01*
X103696247Y-109221904D02*
X103934342Y-109221904D01*
X103934342Y-109221904D02*
X104029580Y-109269523D01*
X104029580Y-109269523D02*
X104077200Y-109317142D01*
X104077200Y-109317142D02*
X104124819Y-109412380D01*
X104124819Y-109412380D02*
X104124819Y-109698094D01*
X104124819Y-109698094D02*
X104077200Y-109793332D01*
X104077200Y-109793332D02*
X104029580Y-109840951D01*
X96566190Y-39861009D02*
X96232857Y-39861009D01*
X96232857Y-40384819D02*
X96232857Y-39384819D01*
X96232857Y-39384819D02*
X96709047Y-39384819D01*
X97090000Y-40384819D02*
X97090000Y-39384819D01*
X97566190Y-40384819D02*
X97566190Y-39384819D01*
X97566190Y-39384819D02*
X97804285Y-39384819D01*
X97804285Y-39384819D02*
X97947142Y-39432438D01*
X97947142Y-39432438D02*
X98042380Y-39527676D01*
X98042380Y-39527676D02*
X98089999Y-39622914D01*
X98089999Y-39622914D02*
X98137618Y-39813390D01*
X98137618Y-39813390D02*
X98137618Y-39956247D01*
X98137618Y-39956247D02*
X98089999Y-40146723D01*
X98089999Y-40146723D02*
X98042380Y-40241961D01*
X98042380Y-40241961D02*
X97947142Y-40337200D01*
X97947142Y-40337200D02*
X97804285Y-40384819D01*
X97804285Y-40384819D02*
X97566190Y-40384819D01*
X99089999Y-40384819D02*
X98518571Y-40384819D01*
X98804285Y-40384819D02*
X98804285Y-39384819D01*
X98804285Y-39384819D02*
X98709047Y-39527676D01*
X98709047Y-39527676D02*
X98613809Y-39622914D01*
X98613809Y-39622914D02*
X98518571Y-39670533D01*
X99709047Y-39384819D02*
X99804285Y-39384819D01*
X99804285Y-39384819D02*
X99899523Y-39432438D01*
X99899523Y-39432438D02*
X99947142Y-39480057D01*
X99947142Y-39480057D02*
X99994761Y-39575295D01*
X99994761Y-39575295D02*
X100042380Y-39765771D01*
X100042380Y-39765771D02*
X100042380Y-40003866D01*
X100042380Y-40003866D02*
X99994761Y-40194342D01*
X99994761Y-40194342D02*
X99947142Y-40289580D01*
X99947142Y-40289580D02*
X99899523Y-40337200D01*
X99899523Y-40337200D02*
X99804285Y-40384819D01*
X99804285Y-40384819D02*
X99709047Y-40384819D01*
X99709047Y-40384819D02*
X99613809Y-40337200D01*
X99613809Y-40337200D02*
X99566190Y-40289580D01*
X99566190Y-40289580D02*
X99518571Y-40194342D01*
X99518571Y-40194342D02*
X99470952Y-40003866D01*
X99470952Y-40003866D02*
X99470952Y-39765771D01*
X99470952Y-39765771D02*
X99518571Y-39575295D01*
X99518571Y-39575295D02*
X99566190Y-39480057D01*
X99566190Y-39480057D02*
X99613809Y-39432438D01*
X99613809Y-39432438D02*
X99709047Y-39384819D01*
X100994761Y-40384819D02*
X100423333Y-40384819D01*
X100709047Y-40384819D02*
X100709047Y-39384819D01*
X100709047Y-39384819D02*
X100613809Y-39527676D01*
X100613809Y-39527676D02*
X100518571Y-39622914D01*
X100518571Y-39622914D02*
X100423333Y-39670533D01*
X131252952Y-111156294D02*
X130919619Y-110680103D01*
X130681524Y-111156294D02*
X130681524Y-110156294D01*
X130681524Y-110156294D02*
X131062476Y-110156294D01*
X131062476Y-110156294D02*
X131157714Y-110203913D01*
X131157714Y-110203913D02*
X131205333Y-110251532D01*
X131205333Y-110251532D02*
X131252952Y-110346770D01*
X131252952Y-110346770D02*
X131252952Y-110489627D01*
X131252952Y-110489627D02*
X131205333Y-110584865D01*
X131205333Y-110584865D02*
X131157714Y-110632484D01*
X131157714Y-110632484D02*
X131062476Y-110680103D01*
X131062476Y-110680103D02*
X130681524Y-110680103D01*
X132205333Y-111156294D02*
X131633905Y-111156294D01*
X131919619Y-111156294D02*
X131919619Y-110156294D01*
X131919619Y-110156294D02*
X131824381Y-110299151D01*
X131824381Y-110299151D02*
X131729143Y-110394389D01*
X131729143Y-110394389D02*
X131633905Y-110442008D01*
X132824381Y-110156294D02*
X132919619Y-110156294D01*
X132919619Y-110156294D02*
X133014857Y-110203913D01*
X133014857Y-110203913D02*
X133062476Y-110251532D01*
X133062476Y-110251532D02*
X133110095Y-110346770D01*
X133110095Y-110346770D02*
X133157714Y-110537246D01*
X133157714Y-110537246D02*
X133157714Y-110775341D01*
X133157714Y-110775341D02*
X133110095Y-110965817D01*
X133110095Y-110965817D02*
X133062476Y-111061055D01*
X133062476Y-111061055D02*
X133014857Y-111108675D01*
X133014857Y-111108675D02*
X132919619Y-111156294D01*
X132919619Y-111156294D02*
X132824381Y-111156294D01*
X132824381Y-111156294D02*
X132729143Y-111108675D01*
X132729143Y-111108675D02*
X132681524Y-111061055D01*
X132681524Y-111061055D02*
X132633905Y-110965817D01*
X132633905Y-110965817D02*
X132586286Y-110775341D01*
X132586286Y-110775341D02*
X132586286Y-110537246D01*
X132586286Y-110537246D02*
X132633905Y-110346770D01*
X132633905Y-110346770D02*
X132681524Y-110251532D01*
X132681524Y-110251532D02*
X132729143Y-110203913D01*
X132729143Y-110203913D02*
X132824381Y-110156294D01*
X133538667Y-110251532D02*
X133586286Y-110203913D01*
X133586286Y-110203913D02*
X133681524Y-110156294D01*
X133681524Y-110156294D02*
X133919619Y-110156294D01*
X133919619Y-110156294D02*
X134014857Y-110203913D01*
X134014857Y-110203913D02*
X134062476Y-110251532D01*
X134062476Y-110251532D02*
X134110095Y-110346770D01*
X134110095Y-110346770D02*
X134110095Y-110442008D01*
X134110095Y-110442008D02*
X134062476Y-110584865D01*
X134062476Y-110584865D02*
X133491048Y-111156294D01*
X133491048Y-111156294D02*
X134110095Y-111156294D01*
X148524952Y-115220294D02*
X148191619Y-114744103D01*
X147953524Y-115220294D02*
X147953524Y-114220294D01*
X147953524Y-114220294D02*
X148334476Y-114220294D01*
X148334476Y-114220294D02*
X148429714Y-114267913D01*
X148429714Y-114267913D02*
X148477333Y-114315532D01*
X148477333Y-114315532D02*
X148524952Y-114410770D01*
X148524952Y-114410770D02*
X148524952Y-114553627D01*
X148524952Y-114553627D02*
X148477333Y-114648865D01*
X148477333Y-114648865D02*
X148429714Y-114696484D01*
X148429714Y-114696484D02*
X148334476Y-114744103D01*
X148334476Y-114744103D02*
X147953524Y-114744103D01*
X149477333Y-115220294D02*
X148905905Y-115220294D01*
X149191619Y-115220294D02*
X149191619Y-114220294D01*
X149191619Y-114220294D02*
X149096381Y-114363151D01*
X149096381Y-114363151D02*
X149001143Y-114458389D01*
X149001143Y-114458389D02*
X148905905Y-114506008D01*
X150096381Y-114220294D02*
X150191619Y-114220294D01*
X150191619Y-114220294D02*
X150286857Y-114267913D01*
X150286857Y-114267913D02*
X150334476Y-114315532D01*
X150334476Y-114315532D02*
X150382095Y-114410770D01*
X150382095Y-114410770D02*
X150429714Y-114601246D01*
X150429714Y-114601246D02*
X150429714Y-114839341D01*
X150429714Y-114839341D02*
X150382095Y-115029817D01*
X150382095Y-115029817D02*
X150334476Y-115125055D01*
X150334476Y-115125055D02*
X150286857Y-115172675D01*
X150286857Y-115172675D02*
X150191619Y-115220294D01*
X150191619Y-115220294D02*
X150096381Y-115220294D01*
X150096381Y-115220294D02*
X150001143Y-115172675D01*
X150001143Y-115172675D02*
X149953524Y-115125055D01*
X149953524Y-115125055D02*
X149905905Y-115029817D01*
X149905905Y-115029817D02*
X149858286Y-114839341D01*
X149858286Y-114839341D02*
X149858286Y-114601246D01*
X149858286Y-114601246D02*
X149905905Y-114410770D01*
X149905905Y-114410770D02*
X149953524Y-114315532D01*
X149953524Y-114315532D02*
X150001143Y-114267913D01*
X150001143Y-114267913D02*
X150096381Y-114220294D01*
X151382095Y-115220294D02*
X150810667Y-115220294D01*
X151096381Y-115220294D02*
X151096381Y-114220294D01*
X151096381Y-114220294D02*
X151001143Y-114363151D01*
X151001143Y-114363151D02*
X150905905Y-114458389D01*
X150905905Y-114458389D02*
X150810667Y-114506008D01*
X151572952Y-101917055D02*
X151525333Y-101964675D01*
X151525333Y-101964675D02*
X151382476Y-102012294D01*
X151382476Y-102012294D02*
X151287238Y-102012294D01*
X151287238Y-102012294D02*
X151144381Y-101964675D01*
X151144381Y-101964675D02*
X151049143Y-101869436D01*
X151049143Y-101869436D02*
X151001524Y-101774198D01*
X151001524Y-101774198D02*
X150953905Y-101583722D01*
X150953905Y-101583722D02*
X150953905Y-101440865D01*
X150953905Y-101440865D02*
X151001524Y-101250389D01*
X151001524Y-101250389D02*
X151049143Y-101155151D01*
X151049143Y-101155151D02*
X151144381Y-101059913D01*
X151144381Y-101059913D02*
X151287238Y-101012294D01*
X151287238Y-101012294D02*
X151382476Y-101012294D01*
X151382476Y-101012294D02*
X151525333Y-101059913D01*
X151525333Y-101059913D02*
X151572952Y-101107532D01*
X152525333Y-102012294D02*
X151953905Y-102012294D01*
X152239619Y-102012294D02*
X152239619Y-101012294D01*
X152239619Y-101012294D02*
X152144381Y-101155151D01*
X152144381Y-101155151D02*
X152049143Y-101250389D01*
X152049143Y-101250389D02*
X151953905Y-101298008D01*
X153144381Y-101012294D02*
X153239619Y-101012294D01*
X153239619Y-101012294D02*
X153334857Y-101059913D01*
X153334857Y-101059913D02*
X153382476Y-101107532D01*
X153382476Y-101107532D02*
X153430095Y-101202770D01*
X153430095Y-101202770D02*
X153477714Y-101393246D01*
X153477714Y-101393246D02*
X153477714Y-101631341D01*
X153477714Y-101631341D02*
X153430095Y-101821817D01*
X153430095Y-101821817D02*
X153382476Y-101917055D01*
X153382476Y-101917055D02*
X153334857Y-101964675D01*
X153334857Y-101964675D02*
X153239619Y-102012294D01*
X153239619Y-102012294D02*
X153144381Y-102012294D01*
X153144381Y-102012294D02*
X153049143Y-101964675D01*
X153049143Y-101964675D02*
X153001524Y-101917055D01*
X153001524Y-101917055D02*
X152953905Y-101821817D01*
X152953905Y-101821817D02*
X152906286Y-101631341D01*
X152906286Y-101631341D02*
X152906286Y-101393246D01*
X152906286Y-101393246D02*
X152953905Y-101202770D01*
X152953905Y-101202770D02*
X153001524Y-101107532D01*
X153001524Y-101107532D02*
X153049143Y-101059913D01*
X153049143Y-101059913D02*
X153144381Y-101012294D01*
X154382476Y-101012294D02*
X153906286Y-101012294D01*
X153906286Y-101012294D02*
X153858667Y-101488484D01*
X153858667Y-101488484D02*
X153906286Y-101440865D01*
X153906286Y-101440865D02*
X154001524Y-101393246D01*
X154001524Y-101393246D02*
X154239619Y-101393246D01*
X154239619Y-101393246D02*
X154334857Y-101440865D01*
X154334857Y-101440865D02*
X154382476Y-101488484D01*
X154382476Y-101488484D02*
X154430095Y-101583722D01*
X154430095Y-101583722D02*
X154430095Y-101821817D01*
X154430095Y-101821817D02*
X154382476Y-101917055D01*
X154382476Y-101917055D02*
X154334857Y-101964675D01*
X154334857Y-101964675D02*
X154239619Y-102012294D01*
X154239619Y-102012294D02*
X154001524Y-102012294D01*
X154001524Y-102012294D02*
X153906286Y-101964675D01*
X153906286Y-101964675D02*
X153858667Y-101917055D01*
X138364952Y-115095055D02*
X138317333Y-115142675D01*
X138317333Y-115142675D02*
X138174476Y-115190294D01*
X138174476Y-115190294D02*
X138079238Y-115190294D01*
X138079238Y-115190294D02*
X137936381Y-115142675D01*
X137936381Y-115142675D02*
X137841143Y-115047436D01*
X137841143Y-115047436D02*
X137793524Y-114952198D01*
X137793524Y-114952198D02*
X137745905Y-114761722D01*
X137745905Y-114761722D02*
X137745905Y-114618865D01*
X137745905Y-114618865D02*
X137793524Y-114428389D01*
X137793524Y-114428389D02*
X137841143Y-114333151D01*
X137841143Y-114333151D02*
X137936381Y-114237913D01*
X137936381Y-114237913D02*
X138079238Y-114190294D01*
X138079238Y-114190294D02*
X138174476Y-114190294D01*
X138174476Y-114190294D02*
X138317333Y-114237913D01*
X138317333Y-114237913D02*
X138364952Y-114285532D01*
X139317333Y-115190294D02*
X138745905Y-115190294D01*
X139031619Y-115190294D02*
X139031619Y-114190294D01*
X139031619Y-114190294D02*
X138936381Y-114333151D01*
X138936381Y-114333151D02*
X138841143Y-114428389D01*
X138841143Y-114428389D02*
X138745905Y-114476008D01*
X139936381Y-114190294D02*
X140031619Y-114190294D01*
X140031619Y-114190294D02*
X140126857Y-114237913D01*
X140126857Y-114237913D02*
X140174476Y-114285532D01*
X140174476Y-114285532D02*
X140222095Y-114380770D01*
X140222095Y-114380770D02*
X140269714Y-114571246D01*
X140269714Y-114571246D02*
X140269714Y-114809341D01*
X140269714Y-114809341D02*
X140222095Y-114999817D01*
X140222095Y-114999817D02*
X140174476Y-115095055D01*
X140174476Y-115095055D02*
X140126857Y-115142675D01*
X140126857Y-115142675D02*
X140031619Y-115190294D01*
X140031619Y-115190294D02*
X139936381Y-115190294D01*
X139936381Y-115190294D02*
X139841143Y-115142675D01*
X139841143Y-115142675D02*
X139793524Y-115095055D01*
X139793524Y-115095055D02*
X139745905Y-114999817D01*
X139745905Y-114999817D02*
X139698286Y-114809341D01*
X139698286Y-114809341D02*
X139698286Y-114571246D01*
X139698286Y-114571246D02*
X139745905Y-114380770D01*
X139745905Y-114380770D02*
X139793524Y-114285532D01*
X139793524Y-114285532D02*
X139841143Y-114237913D01*
X139841143Y-114237913D02*
X139936381Y-114190294D01*
X140745905Y-115190294D02*
X140936381Y-115190294D01*
X140936381Y-115190294D02*
X141031619Y-115142675D01*
X141031619Y-115142675D02*
X141079238Y-115095055D01*
X141079238Y-115095055D02*
X141174476Y-114952198D01*
X141174476Y-114952198D02*
X141222095Y-114761722D01*
X141222095Y-114761722D02*
X141222095Y-114380770D01*
X141222095Y-114380770D02*
X141174476Y-114285532D01*
X141174476Y-114285532D02*
X141126857Y-114237913D01*
X141126857Y-114237913D02*
X141031619Y-114190294D01*
X141031619Y-114190294D02*
X140841143Y-114190294D01*
X140841143Y-114190294D02*
X140745905Y-114237913D01*
X140745905Y-114237913D02*
X140698286Y-114285532D01*
X140698286Y-114285532D02*
X140650667Y-114380770D01*
X140650667Y-114380770D02*
X140650667Y-114618865D01*
X140650667Y-114618865D02*
X140698286Y-114714103D01*
X140698286Y-114714103D02*
X140745905Y-114761722D01*
X140745905Y-114761722D02*
X140841143Y-114809341D01*
X140841143Y-114809341D02*
X141031619Y-114809341D01*
X141031619Y-114809341D02*
X141126857Y-114761722D01*
X141126857Y-114761722D02*
X141174476Y-114714103D01*
X141174476Y-114714103D02*
X141222095Y-114618865D01*
X109599524Y-96214819D02*
X109599524Y-95214819D01*
X109599524Y-95214819D02*
X109837619Y-95214819D01*
X109837619Y-95214819D02*
X109980476Y-95262438D01*
X109980476Y-95262438D02*
X110075714Y-95357676D01*
X110075714Y-95357676D02*
X110123333Y-95452914D01*
X110123333Y-95452914D02*
X110170952Y-95643390D01*
X110170952Y-95643390D02*
X110170952Y-95786247D01*
X110170952Y-95786247D02*
X110123333Y-95976723D01*
X110123333Y-95976723D02*
X110075714Y-96071961D01*
X110075714Y-96071961D02*
X109980476Y-96167200D01*
X109980476Y-96167200D02*
X109837619Y-96214819D01*
X109837619Y-96214819D02*
X109599524Y-96214819D01*
X111123333Y-96214819D02*
X110551905Y-96214819D01*
X110837619Y-96214819D02*
X110837619Y-95214819D01*
X110837619Y-95214819D02*
X110742381Y-95357676D01*
X110742381Y-95357676D02*
X110647143Y-95452914D01*
X110647143Y-95452914D02*
X110551905Y-95500533D01*
X111742381Y-95214819D02*
X111837619Y-95214819D01*
X111837619Y-95214819D02*
X111932857Y-95262438D01*
X111932857Y-95262438D02*
X111980476Y-95310057D01*
X111980476Y-95310057D02*
X112028095Y-95405295D01*
X112028095Y-95405295D02*
X112075714Y-95595771D01*
X112075714Y-95595771D02*
X112075714Y-95833866D01*
X112075714Y-95833866D02*
X112028095Y-96024342D01*
X112028095Y-96024342D02*
X111980476Y-96119580D01*
X111980476Y-96119580D02*
X111932857Y-96167200D01*
X111932857Y-96167200D02*
X111837619Y-96214819D01*
X111837619Y-96214819D02*
X111742381Y-96214819D01*
X111742381Y-96214819D02*
X111647143Y-96167200D01*
X111647143Y-96167200D02*
X111599524Y-96119580D01*
X111599524Y-96119580D02*
X111551905Y-96024342D01*
X111551905Y-96024342D02*
X111504286Y-95833866D01*
X111504286Y-95833866D02*
X111504286Y-95595771D01*
X111504286Y-95595771D02*
X111551905Y-95405295D01*
X111551905Y-95405295D02*
X111599524Y-95310057D01*
X111599524Y-95310057D02*
X111647143Y-95262438D01*
X111647143Y-95262438D02*
X111742381Y-95214819D01*
X112456667Y-95310057D02*
X112504286Y-95262438D01*
X112504286Y-95262438D02*
X112599524Y-95214819D01*
X112599524Y-95214819D02*
X112837619Y-95214819D01*
X112837619Y-95214819D02*
X112932857Y-95262438D01*
X112932857Y-95262438D02*
X112980476Y-95310057D01*
X112980476Y-95310057D02*
X113028095Y-95405295D01*
X113028095Y-95405295D02*
X113028095Y-95500533D01*
X113028095Y-95500533D02*
X112980476Y-95643390D01*
X112980476Y-95643390D02*
X112409048Y-96214819D01*
X112409048Y-96214819D02*
X113028095Y-96214819D01*
X121149580Y-109539047D02*
X121197200Y-109586666D01*
X121197200Y-109586666D02*
X121244819Y-109729523D01*
X121244819Y-109729523D02*
X121244819Y-109824761D01*
X121244819Y-109824761D02*
X121197200Y-109967618D01*
X121197200Y-109967618D02*
X121101961Y-110062856D01*
X121101961Y-110062856D02*
X121006723Y-110110475D01*
X121006723Y-110110475D02*
X120816247Y-110158094D01*
X120816247Y-110158094D02*
X120673390Y-110158094D01*
X120673390Y-110158094D02*
X120482914Y-110110475D01*
X120482914Y-110110475D02*
X120387676Y-110062856D01*
X120387676Y-110062856D02*
X120292438Y-109967618D01*
X120292438Y-109967618D02*
X120244819Y-109824761D01*
X120244819Y-109824761D02*
X120244819Y-109729523D01*
X120244819Y-109729523D02*
X120292438Y-109586666D01*
X120292438Y-109586666D02*
X120340057Y-109539047D01*
X121244819Y-108586666D02*
X121244819Y-109158094D01*
X121244819Y-108872380D02*
X120244819Y-108872380D01*
X120244819Y-108872380D02*
X120387676Y-108967618D01*
X120387676Y-108967618D02*
X120482914Y-109062856D01*
X120482914Y-109062856D02*
X120530533Y-109158094D01*
X120244819Y-107967618D02*
X120244819Y-107872380D01*
X120244819Y-107872380D02*
X120292438Y-107777142D01*
X120292438Y-107777142D02*
X120340057Y-107729523D01*
X120340057Y-107729523D02*
X120435295Y-107681904D01*
X120435295Y-107681904D02*
X120625771Y-107634285D01*
X120625771Y-107634285D02*
X120863866Y-107634285D01*
X120863866Y-107634285D02*
X121054342Y-107681904D01*
X121054342Y-107681904D02*
X121149580Y-107729523D01*
X121149580Y-107729523D02*
X121197200Y-107777142D01*
X121197200Y-107777142D02*
X121244819Y-107872380D01*
X121244819Y-107872380D02*
X121244819Y-107967618D01*
X121244819Y-107967618D02*
X121197200Y-108062856D01*
X121197200Y-108062856D02*
X121149580Y-108110475D01*
X121149580Y-108110475D02*
X121054342Y-108158094D01*
X121054342Y-108158094D02*
X120863866Y-108205713D01*
X120863866Y-108205713D02*
X120625771Y-108205713D01*
X120625771Y-108205713D02*
X120435295Y-108158094D01*
X120435295Y-108158094D02*
X120340057Y-108110475D01*
X120340057Y-108110475D02*
X120292438Y-108062856D01*
X120292438Y-108062856D02*
X120244819Y-107967618D01*
X120340057Y-107253332D02*
X120292438Y-107205713D01*
X120292438Y-107205713D02*
X120244819Y-107110475D01*
X120244819Y-107110475D02*
X120244819Y-106872380D01*
X120244819Y-106872380D02*
X120292438Y-106777142D01*
X120292438Y-106777142D02*
X120340057Y-106729523D01*
X120340057Y-106729523D02*
X120435295Y-106681904D01*
X120435295Y-106681904D02*
X120530533Y-106681904D01*
X120530533Y-106681904D02*
X120673390Y-106729523D01*
X120673390Y-106729523D02*
X121244819Y-107300951D01*
X121244819Y-107300951D02*
X121244819Y-106681904D01*
X116784819Y-115190475D02*
X115784819Y-115190475D01*
X115784819Y-115190475D02*
X115784819Y-114952380D01*
X115784819Y-114952380D02*
X115832438Y-114809523D01*
X115832438Y-114809523D02*
X115927676Y-114714285D01*
X115927676Y-114714285D02*
X116022914Y-114666666D01*
X116022914Y-114666666D02*
X116213390Y-114619047D01*
X116213390Y-114619047D02*
X116356247Y-114619047D01*
X116356247Y-114619047D02*
X116546723Y-114666666D01*
X116546723Y-114666666D02*
X116641961Y-114714285D01*
X116641961Y-114714285D02*
X116737200Y-114809523D01*
X116737200Y-114809523D02*
X116784819Y-114952380D01*
X116784819Y-114952380D02*
X116784819Y-115190475D01*
X116784819Y-113666666D02*
X116784819Y-114238094D01*
X116784819Y-113952380D02*
X115784819Y-113952380D01*
X115784819Y-113952380D02*
X115927676Y-114047618D01*
X115927676Y-114047618D02*
X116022914Y-114142856D01*
X116022914Y-114142856D02*
X116070533Y-114238094D01*
X115784819Y-113047618D02*
X115784819Y-112952380D01*
X115784819Y-112952380D02*
X115832438Y-112857142D01*
X115832438Y-112857142D02*
X115880057Y-112809523D01*
X115880057Y-112809523D02*
X115975295Y-112761904D01*
X115975295Y-112761904D02*
X116165771Y-112714285D01*
X116165771Y-112714285D02*
X116403866Y-112714285D01*
X116403866Y-112714285D02*
X116594342Y-112761904D01*
X116594342Y-112761904D02*
X116689580Y-112809523D01*
X116689580Y-112809523D02*
X116737200Y-112857142D01*
X116737200Y-112857142D02*
X116784819Y-112952380D01*
X116784819Y-112952380D02*
X116784819Y-113047618D01*
X116784819Y-113047618D02*
X116737200Y-113142856D01*
X116737200Y-113142856D02*
X116689580Y-113190475D01*
X116689580Y-113190475D02*
X116594342Y-113238094D01*
X116594342Y-113238094D02*
X116403866Y-113285713D01*
X116403866Y-113285713D02*
X116165771Y-113285713D01*
X116165771Y-113285713D02*
X115975295Y-113238094D01*
X115975295Y-113238094D02*
X115880057Y-113190475D01*
X115880057Y-113190475D02*
X115832438Y-113142856D01*
X115832438Y-113142856D02*
X115784819Y-113047618D01*
X115784819Y-112380951D02*
X115784819Y-111761904D01*
X115784819Y-111761904D02*
X116165771Y-112095237D01*
X116165771Y-112095237D02*
X116165771Y-111952380D01*
X116165771Y-111952380D02*
X116213390Y-111857142D01*
X116213390Y-111857142D02*
X116261009Y-111809523D01*
X116261009Y-111809523D02*
X116356247Y-111761904D01*
X116356247Y-111761904D02*
X116594342Y-111761904D01*
X116594342Y-111761904D02*
X116689580Y-111809523D01*
X116689580Y-111809523D02*
X116737200Y-111857142D01*
X116737200Y-111857142D02*
X116784819Y-111952380D01*
X116784819Y-111952380D02*
X116784819Y-112238094D01*
X116784819Y-112238094D02*
X116737200Y-112333332D01*
X116737200Y-112333332D02*
X116689580Y-112380951D01*
X120699580Y-115481547D02*
X120747200Y-115529166D01*
X120747200Y-115529166D02*
X120794819Y-115672023D01*
X120794819Y-115672023D02*
X120794819Y-115767261D01*
X120794819Y-115767261D02*
X120747200Y-115910118D01*
X120747200Y-115910118D02*
X120651961Y-116005356D01*
X120651961Y-116005356D02*
X120556723Y-116052975D01*
X120556723Y-116052975D02*
X120366247Y-116100594D01*
X120366247Y-116100594D02*
X120223390Y-116100594D01*
X120223390Y-116100594D02*
X120032914Y-116052975D01*
X120032914Y-116052975D02*
X119937676Y-116005356D01*
X119937676Y-116005356D02*
X119842438Y-115910118D01*
X119842438Y-115910118D02*
X119794819Y-115767261D01*
X119794819Y-115767261D02*
X119794819Y-115672023D01*
X119794819Y-115672023D02*
X119842438Y-115529166D01*
X119842438Y-115529166D02*
X119890057Y-115481547D01*
X120794819Y-114529166D02*
X120794819Y-115100594D01*
X120794819Y-114814880D02*
X119794819Y-114814880D01*
X119794819Y-114814880D02*
X119937676Y-114910118D01*
X119937676Y-114910118D02*
X120032914Y-115005356D01*
X120032914Y-115005356D02*
X120080533Y-115100594D01*
X119794819Y-113910118D02*
X119794819Y-113814880D01*
X119794819Y-113814880D02*
X119842438Y-113719642D01*
X119842438Y-113719642D02*
X119890057Y-113672023D01*
X119890057Y-113672023D02*
X119985295Y-113624404D01*
X119985295Y-113624404D02*
X120175771Y-113576785D01*
X120175771Y-113576785D02*
X120413866Y-113576785D01*
X120413866Y-113576785D02*
X120604342Y-113624404D01*
X120604342Y-113624404D02*
X120699580Y-113672023D01*
X120699580Y-113672023D02*
X120747200Y-113719642D01*
X120747200Y-113719642D02*
X120794819Y-113814880D01*
X120794819Y-113814880D02*
X120794819Y-113910118D01*
X120794819Y-113910118D02*
X120747200Y-114005356D01*
X120747200Y-114005356D02*
X120699580Y-114052975D01*
X120699580Y-114052975D02*
X120604342Y-114100594D01*
X120604342Y-114100594D02*
X120413866Y-114148213D01*
X120413866Y-114148213D02*
X120175771Y-114148213D01*
X120175771Y-114148213D02*
X119985295Y-114100594D01*
X119985295Y-114100594D02*
X119890057Y-114052975D01*
X119890057Y-114052975D02*
X119842438Y-114005356D01*
X119842438Y-114005356D02*
X119794819Y-113910118D01*
X120128152Y-112719642D02*
X120794819Y-112719642D01*
X119747200Y-112957737D02*
X120461485Y-113195832D01*
X120461485Y-113195832D02*
X120461485Y-112576785D01*
X138364952Y-116649055D02*
X138317333Y-116696675D01*
X138317333Y-116696675D02*
X138174476Y-116744294D01*
X138174476Y-116744294D02*
X138079238Y-116744294D01*
X138079238Y-116744294D02*
X137936381Y-116696675D01*
X137936381Y-116696675D02*
X137841143Y-116601436D01*
X137841143Y-116601436D02*
X137793524Y-116506198D01*
X137793524Y-116506198D02*
X137745905Y-116315722D01*
X137745905Y-116315722D02*
X137745905Y-116172865D01*
X137745905Y-116172865D02*
X137793524Y-115982389D01*
X137793524Y-115982389D02*
X137841143Y-115887151D01*
X137841143Y-115887151D02*
X137936381Y-115791913D01*
X137936381Y-115791913D02*
X138079238Y-115744294D01*
X138079238Y-115744294D02*
X138174476Y-115744294D01*
X138174476Y-115744294D02*
X138317333Y-115791913D01*
X138317333Y-115791913D02*
X138364952Y-115839532D01*
X139317333Y-116744294D02*
X138745905Y-116744294D01*
X139031619Y-116744294D02*
X139031619Y-115744294D01*
X139031619Y-115744294D02*
X138936381Y-115887151D01*
X138936381Y-115887151D02*
X138841143Y-115982389D01*
X138841143Y-115982389D02*
X138745905Y-116030008D01*
X139936381Y-115744294D02*
X140031619Y-115744294D01*
X140031619Y-115744294D02*
X140126857Y-115791913D01*
X140126857Y-115791913D02*
X140174476Y-115839532D01*
X140174476Y-115839532D02*
X140222095Y-115934770D01*
X140222095Y-115934770D02*
X140269714Y-116125246D01*
X140269714Y-116125246D02*
X140269714Y-116363341D01*
X140269714Y-116363341D02*
X140222095Y-116553817D01*
X140222095Y-116553817D02*
X140174476Y-116649055D01*
X140174476Y-116649055D02*
X140126857Y-116696675D01*
X140126857Y-116696675D02*
X140031619Y-116744294D01*
X140031619Y-116744294D02*
X139936381Y-116744294D01*
X139936381Y-116744294D02*
X139841143Y-116696675D01*
X139841143Y-116696675D02*
X139793524Y-116649055D01*
X139793524Y-116649055D02*
X139745905Y-116553817D01*
X139745905Y-116553817D02*
X139698286Y-116363341D01*
X139698286Y-116363341D02*
X139698286Y-116125246D01*
X139698286Y-116125246D02*
X139745905Y-115934770D01*
X139745905Y-115934770D02*
X139793524Y-115839532D01*
X139793524Y-115839532D02*
X139841143Y-115791913D01*
X139841143Y-115791913D02*
X139936381Y-115744294D01*
X140841143Y-116172865D02*
X140745905Y-116125246D01*
X140745905Y-116125246D02*
X140698286Y-116077627D01*
X140698286Y-116077627D02*
X140650667Y-115982389D01*
X140650667Y-115982389D02*
X140650667Y-115934770D01*
X140650667Y-115934770D02*
X140698286Y-115839532D01*
X140698286Y-115839532D02*
X140745905Y-115791913D01*
X140745905Y-115791913D02*
X140841143Y-115744294D01*
X140841143Y-115744294D02*
X141031619Y-115744294D01*
X141031619Y-115744294D02*
X141126857Y-115791913D01*
X141126857Y-115791913D02*
X141174476Y-115839532D01*
X141174476Y-115839532D02*
X141222095Y-115934770D01*
X141222095Y-115934770D02*
X141222095Y-115982389D01*
X141222095Y-115982389D02*
X141174476Y-116077627D01*
X141174476Y-116077627D02*
X141126857Y-116125246D01*
X141126857Y-116125246D02*
X141031619Y-116172865D01*
X141031619Y-116172865D02*
X140841143Y-116172865D01*
X140841143Y-116172865D02*
X140745905Y-116220484D01*
X140745905Y-116220484D02*
X140698286Y-116268103D01*
X140698286Y-116268103D02*
X140650667Y-116363341D01*
X140650667Y-116363341D02*
X140650667Y-116553817D01*
X140650667Y-116553817D02*
X140698286Y-116649055D01*
X140698286Y-116649055D02*
X140745905Y-116696675D01*
X140745905Y-116696675D02*
X140841143Y-116744294D01*
X140841143Y-116744294D02*
X141031619Y-116744294D01*
X141031619Y-116744294D02*
X141126857Y-116696675D01*
X141126857Y-116696675D02*
X141174476Y-116649055D01*
X141174476Y-116649055D02*
X141222095Y-116553817D01*
X141222095Y-116553817D02*
X141222095Y-116363341D01*
X141222095Y-116363341D02*
X141174476Y-116268103D01*
X141174476Y-116268103D02*
X141126857Y-116220484D01*
X141126857Y-116220484D02*
X141031619Y-116172865D01*
X147410057Y-59937619D02*
X147362438Y-60032857D01*
X147362438Y-60032857D02*
X147267200Y-60128095D01*
X147267200Y-60128095D02*
X147124342Y-60270952D01*
X147124342Y-60270952D02*
X147076723Y-60366190D01*
X147076723Y-60366190D02*
X147076723Y-60461428D01*
X147314819Y-60413809D02*
X147267200Y-60509047D01*
X147267200Y-60509047D02*
X147171961Y-60604285D01*
X147171961Y-60604285D02*
X146981485Y-60651904D01*
X146981485Y-60651904D02*
X146648152Y-60651904D01*
X146648152Y-60651904D02*
X146457676Y-60604285D01*
X146457676Y-60604285D02*
X146362438Y-60509047D01*
X146362438Y-60509047D02*
X146314819Y-60413809D01*
X146314819Y-60413809D02*
X146314819Y-60223333D01*
X146314819Y-60223333D02*
X146362438Y-60128095D01*
X146362438Y-60128095D02*
X146457676Y-60032857D01*
X146457676Y-60032857D02*
X146648152Y-59985238D01*
X146648152Y-59985238D02*
X146981485Y-59985238D01*
X146981485Y-59985238D02*
X147171961Y-60032857D01*
X147171961Y-60032857D02*
X147267200Y-60128095D01*
X147267200Y-60128095D02*
X147314819Y-60223333D01*
X147314819Y-60223333D02*
X147314819Y-60413809D01*
X147314819Y-59032857D02*
X147314819Y-59604285D01*
X147314819Y-59318571D02*
X146314819Y-59318571D01*
X146314819Y-59318571D02*
X146457676Y-59413809D01*
X146457676Y-59413809D02*
X146552914Y-59509047D01*
X146552914Y-59509047D02*
X146600533Y-59604285D01*
X146314819Y-58413809D02*
X146314819Y-58318571D01*
X146314819Y-58318571D02*
X146362438Y-58223333D01*
X146362438Y-58223333D02*
X146410057Y-58175714D01*
X146410057Y-58175714D02*
X146505295Y-58128095D01*
X146505295Y-58128095D02*
X146695771Y-58080476D01*
X146695771Y-58080476D02*
X146933866Y-58080476D01*
X146933866Y-58080476D02*
X147124342Y-58128095D01*
X147124342Y-58128095D02*
X147219580Y-58175714D01*
X147219580Y-58175714D02*
X147267200Y-58223333D01*
X147267200Y-58223333D02*
X147314819Y-58318571D01*
X147314819Y-58318571D02*
X147314819Y-58413809D01*
X147314819Y-58413809D02*
X147267200Y-58509047D01*
X147267200Y-58509047D02*
X147219580Y-58556666D01*
X147219580Y-58556666D02*
X147124342Y-58604285D01*
X147124342Y-58604285D02*
X146933866Y-58651904D01*
X146933866Y-58651904D02*
X146695771Y-58651904D01*
X146695771Y-58651904D02*
X146505295Y-58604285D01*
X146505295Y-58604285D02*
X146410057Y-58556666D01*
X146410057Y-58556666D02*
X146362438Y-58509047D01*
X146362438Y-58509047D02*
X146314819Y-58413809D01*
X146648152Y-57223333D02*
X147314819Y-57223333D01*
X146267200Y-57461428D02*
X146981485Y-57699523D01*
X146981485Y-57699523D02*
X146981485Y-57080476D01*
X161986952Y-78807580D02*
X161939333Y-78855200D01*
X161939333Y-78855200D02*
X161796476Y-78902819D01*
X161796476Y-78902819D02*
X161701238Y-78902819D01*
X161701238Y-78902819D02*
X161558381Y-78855200D01*
X161558381Y-78855200D02*
X161463143Y-78759961D01*
X161463143Y-78759961D02*
X161415524Y-78664723D01*
X161415524Y-78664723D02*
X161367905Y-78474247D01*
X161367905Y-78474247D02*
X161367905Y-78331390D01*
X161367905Y-78331390D02*
X161415524Y-78140914D01*
X161415524Y-78140914D02*
X161463143Y-78045676D01*
X161463143Y-78045676D02*
X161558381Y-77950438D01*
X161558381Y-77950438D02*
X161701238Y-77902819D01*
X161701238Y-77902819D02*
X161796476Y-77902819D01*
X161796476Y-77902819D02*
X161939333Y-77950438D01*
X161939333Y-77950438D02*
X161986952Y-77998057D01*
X162939333Y-78902819D02*
X162367905Y-78902819D01*
X162653619Y-78902819D02*
X162653619Y-77902819D01*
X162653619Y-77902819D02*
X162558381Y-78045676D01*
X162558381Y-78045676D02*
X162463143Y-78140914D01*
X162463143Y-78140914D02*
X162367905Y-78188533D01*
X163891714Y-78902819D02*
X163320286Y-78902819D01*
X163606000Y-78902819D02*
X163606000Y-77902819D01*
X163606000Y-77902819D02*
X163510762Y-78045676D01*
X163510762Y-78045676D02*
X163415524Y-78140914D01*
X163415524Y-78140914D02*
X163320286Y-78188533D01*
X164272667Y-77998057D02*
X164320286Y-77950438D01*
X164320286Y-77950438D02*
X164415524Y-77902819D01*
X164415524Y-77902819D02*
X164653619Y-77902819D01*
X164653619Y-77902819D02*
X164748857Y-77950438D01*
X164748857Y-77950438D02*
X164796476Y-77998057D01*
X164796476Y-77998057D02*
X164844095Y-78093295D01*
X164844095Y-78093295D02*
X164844095Y-78188533D01*
X164844095Y-78188533D02*
X164796476Y-78331390D01*
X164796476Y-78331390D02*
X164225048Y-78902819D01*
X164225048Y-78902819D02*
X164844095Y-78902819D01*
X173390057Y-59937619D02*
X173342438Y-60032857D01*
X173342438Y-60032857D02*
X173247200Y-60128095D01*
X173247200Y-60128095D02*
X173104342Y-60270952D01*
X173104342Y-60270952D02*
X173056723Y-60366190D01*
X173056723Y-60366190D02*
X173056723Y-60461428D01*
X173294819Y-60413809D02*
X173247200Y-60509047D01*
X173247200Y-60509047D02*
X173151961Y-60604285D01*
X173151961Y-60604285D02*
X172961485Y-60651904D01*
X172961485Y-60651904D02*
X172628152Y-60651904D01*
X172628152Y-60651904D02*
X172437676Y-60604285D01*
X172437676Y-60604285D02*
X172342438Y-60509047D01*
X172342438Y-60509047D02*
X172294819Y-60413809D01*
X172294819Y-60413809D02*
X172294819Y-60223333D01*
X172294819Y-60223333D02*
X172342438Y-60128095D01*
X172342438Y-60128095D02*
X172437676Y-60032857D01*
X172437676Y-60032857D02*
X172628152Y-59985238D01*
X172628152Y-59985238D02*
X172961485Y-59985238D01*
X172961485Y-59985238D02*
X173151961Y-60032857D01*
X173151961Y-60032857D02*
X173247200Y-60128095D01*
X173247200Y-60128095D02*
X173294819Y-60223333D01*
X173294819Y-60223333D02*
X173294819Y-60413809D01*
X173294819Y-59032857D02*
X173294819Y-59604285D01*
X173294819Y-59318571D02*
X172294819Y-59318571D01*
X172294819Y-59318571D02*
X172437676Y-59413809D01*
X172437676Y-59413809D02*
X172532914Y-59509047D01*
X172532914Y-59509047D02*
X172580533Y-59604285D01*
X172294819Y-58413809D02*
X172294819Y-58318571D01*
X172294819Y-58318571D02*
X172342438Y-58223333D01*
X172342438Y-58223333D02*
X172390057Y-58175714D01*
X172390057Y-58175714D02*
X172485295Y-58128095D01*
X172485295Y-58128095D02*
X172675771Y-58080476D01*
X172675771Y-58080476D02*
X172913866Y-58080476D01*
X172913866Y-58080476D02*
X173104342Y-58128095D01*
X173104342Y-58128095D02*
X173199580Y-58175714D01*
X173199580Y-58175714D02*
X173247200Y-58223333D01*
X173247200Y-58223333D02*
X173294819Y-58318571D01*
X173294819Y-58318571D02*
X173294819Y-58413809D01*
X173294819Y-58413809D02*
X173247200Y-58509047D01*
X173247200Y-58509047D02*
X173199580Y-58556666D01*
X173199580Y-58556666D02*
X173104342Y-58604285D01*
X173104342Y-58604285D02*
X172913866Y-58651904D01*
X172913866Y-58651904D02*
X172675771Y-58651904D01*
X172675771Y-58651904D02*
X172485295Y-58604285D01*
X172485295Y-58604285D02*
X172390057Y-58556666D01*
X172390057Y-58556666D02*
X172342438Y-58509047D01*
X172342438Y-58509047D02*
X172294819Y-58413809D01*
X172390057Y-57699523D02*
X172342438Y-57651904D01*
X172342438Y-57651904D02*
X172294819Y-57556666D01*
X172294819Y-57556666D02*
X172294819Y-57318571D01*
X172294819Y-57318571D02*
X172342438Y-57223333D01*
X172342438Y-57223333D02*
X172390057Y-57175714D01*
X172390057Y-57175714D02*
X172485295Y-57128095D01*
X172485295Y-57128095D02*
X172580533Y-57128095D01*
X172580533Y-57128095D02*
X172723390Y-57175714D01*
X172723390Y-57175714D02*
X173294819Y-57747142D01*
X173294819Y-57747142D02*
X173294819Y-57128095D01*
X166100819Y-79567047D02*
X165624628Y-79900380D01*
X166100819Y-80138475D02*
X165100819Y-80138475D01*
X165100819Y-80138475D02*
X165100819Y-79757523D01*
X165100819Y-79757523D02*
X165148438Y-79662285D01*
X165148438Y-79662285D02*
X165196057Y-79614666D01*
X165196057Y-79614666D02*
X165291295Y-79567047D01*
X165291295Y-79567047D02*
X165434152Y-79567047D01*
X165434152Y-79567047D02*
X165529390Y-79614666D01*
X165529390Y-79614666D02*
X165577009Y-79662285D01*
X165577009Y-79662285D02*
X165624628Y-79757523D01*
X165624628Y-79757523D02*
X165624628Y-80138475D01*
X166100819Y-78614666D02*
X166100819Y-79186094D01*
X166100819Y-78900380D02*
X165100819Y-78900380D01*
X165100819Y-78900380D02*
X165243676Y-78995618D01*
X165243676Y-78995618D02*
X165338914Y-79090856D01*
X165338914Y-79090856D02*
X165386533Y-79186094D01*
X165100819Y-77995618D02*
X165100819Y-77900380D01*
X165100819Y-77900380D02*
X165148438Y-77805142D01*
X165148438Y-77805142D02*
X165196057Y-77757523D01*
X165196057Y-77757523D02*
X165291295Y-77709904D01*
X165291295Y-77709904D02*
X165481771Y-77662285D01*
X165481771Y-77662285D02*
X165719866Y-77662285D01*
X165719866Y-77662285D02*
X165910342Y-77709904D01*
X165910342Y-77709904D02*
X166005580Y-77757523D01*
X166005580Y-77757523D02*
X166053200Y-77805142D01*
X166053200Y-77805142D02*
X166100819Y-77900380D01*
X166100819Y-77900380D02*
X166100819Y-77995618D01*
X166100819Y-77995618D02*
X166053200Y-78090856D01*
X166053200Y-78090856D02*
X166005580Y-78138475D01*
X166005580Y-78138475D02*
X165910342Y-78186094D01*
X165910342Y-78186094D02*
X165719866Y-78233713D01*
X165719866Y-78233713D02*
X165481771Y-78233713D01*
X165481771Y-78233713D02*
X165291295Y-78186094D01*
X165291295Y-78186094D02*
X165196057Y-78138475D01*
X165196057Y-78138475D02*
X165148438Y-78090856D01*
X165148438Y-78090856D02*
X165100819Y-77995618D01*
X165529390Y-77090856D02*
X165481771Y-77186094D01*
X165481771Y-77186094D02*
X165434152Y-77233713D01*
X165434152Y-77233713D02*
X165338914Y-77281332D01*
X165338914Y-77281332D02*
X165291295Y-77281332D01*
X165291295Y-77281332D02*
X165196057Y-77233713D01*
X165196057Y-77233713D02*
X165148438Y-77186094D01*
X165148438Y-77186094D02*
X165100819Y-77090856D01*
X165100819Y-77090856D02*
X165100819Y-76900380D01*
X165100819Y-76900380D02*
X165148438Y-76805142D01*
X165148438Y-76805142D02*
X165196057Y-76757523D01*
X165196057Y-76757523D02*
X165291295Y-76709904D01*
X165291295Y-76709904D02*
X165338914Y-76709904D01*
X165338914Y-76709904D02*
X165434152Y-76757523D01*
X165434152Y-76757523D02*
X165481771Y-76805142D01*
X165481771Y-76805142D02*
X165529390Y-76900380D01*
X165529390Y-76900380D02*
X165529390Y-77090856D01*
X165529390Y-77090856D02*
X165577009Y-77186094D01*
X165577009Y-77186094D02*
X165624628Y-77233713D01*
X165624628Y-77233713D02*
X165719866Y-77281332D01*
X165719866Y-77281332D02*
X165910342Y-77281332D01*
X165910342Y-77281332D02*
X166005580Y-77233713D01*
X166005580Y-77233713D02*
X166053200Y-77186094D01*
X166053200Y-77186094D02*
X166100819Y-77090856D01*
X166100819Y-77090856D02*
X166100819Y-76900380D01*
X166100819Y-76900380D02*
X166053200Y-76805142D01*
X166053200Y-76805142D02*
X166005580Y-76757523D01*
X166005580Y-76757523D02*
X165910342Y-76709904D01*
X165910342Y-76709904D02*
X165719866Y-76709904D01*
X165719866Y-76709904D02*
X165624628Y-76757523D01*
X165624628Y-76757523D02*
X165577009Y-76805142D01*
X165577009Y-76805142D02*
X165529390Y-76900380D01*
X173390057Y-82797619D02*
X173342438Y-82892857D01*
X173342438Y-82892857D02*
X173247200Y-82988095D01*
X173247200Y-82988095D02*
X173104342Y-83130952D01*
X173104342Y-83130952D02*
X173056723Y-83226190D01*
X173056723Y-83226190D02*
X173056723Y-83321428D01*
X173294819Y-83273809D02*
X173247200Y-83369047D01*
X173247200Y-83369047D02*
X173151961Y-83464285D01*
X173151961Y-83464285D02*
X172961485Y-83511904D01*
X172961485Y-83511904D02*
X172628152Y-83511904D01*
X172628152Y-83511904D02*
X172437676Y-83464285D01*
X172437676Y-83464285D02*
X172342438Y-83369047D01*
X172342438Y-83369047D02*
X172294819Y-83273809D01*
X172294819Y-83273809D02*
X172294819Y-83083333D01*
X172294819Y-83083333D02*
X172342438Y-82988095D01*
X172342438Y-82988095D02*
X172437676Y-82892857D01*
X172437676Y-82892857D02*
X172628152Y-82845238D01*
X172628152Y-82845238D02*
X172961485Y-82845238D01*
X172961485Y-82845238D02*
X173151961Y-82892857D01*
X173151961Y-82892857D02*
X173247200Y-82988095D01*
X173247200Y-82988095D02*
X173294819Y-83083333D01*
X173294819Y-83083333D02*
X173294819Y-83273809D01*
X173294819Y-81892857D02*
X173294819Y-82464285D01*
X173294819Y-82178571D02*
X172294819Y-82178571D01*
X172294819Y-82178571D02*
X172437676Y-82273809D01*
X172437676Y-82273809D02*
X172532914Y-82369047D01*
X172532914Y-82369047D02*
X172580533Y-82464285D01*
X172294819Y-81273809D02*
X172294819Y-81178571D01*
X172294819Y-81178571D02*
X172342438Y-81083333D01*
X172342438Y-81083333D02*
X172390057Y-81035714D01*
X172390057Y-81035714D02*
X172485295Y-80988095D01*
X172485295Y-80988095D02*
X172675771Y-80940476D01*
X172675771Y-80940476D02*
X172913866Y-80940476D01*
X172913866Y-80940476D02*
X173104342Y-80988095D01*
X173104342Y-80988095D02*
X173199580Y-81035714D01*
X173199580Y-81035714D02*
X173247200Y-81083333D01*
X173247200Y-81083333D02*
X173294819Y-81178571D01*
X173294819Y-81178571D02*
X173294819Y-81273809D01*
X173294819Y-81273809D02*
X173247200Y-81369047D01*
X173247200Y-81369047D02*
X173199580Y-81416666D01*
X173199580Y-81416666D02*
X173104342Y-81464285D01*
X173104342Y-81464285D02*
X172913866Y-81511904D01*
X172913866Y-81511904D02*
X172675771Y-81511904D01*
X172675771Y-81511904D02*
X172485295Y-81464285D01*
X172485295Y-81464285D02*
X172390057Y-81416666D01*
X172390057Y-81416666D02*
X172342438Y-81369047D01*
X172342438Y-81369047D02*
X172294819Y-81273809D01*
X173294819Y-79988095D02*
X173294819Y-80559523D01*
X173294819Y-80273809D02*
X172294819Y-80273809D01*
X172294819Y-80273809D02*
X172437676Y-80369047D01*
X172437676Y-80369047D02*
X172532914Y-80464285D01*
X172532914Y-80464285D02*
X172580533Y-80559523D01*
X163002952Y-64329580D02*
X162955333Y-64377200D01*
X162955333Y-64377200D02*
X162812476Y-64424819D01*
X162812476Y-64424819D02*
X162717238Y-64424819D01*
X162717238Y-64424819D02*
X162574381Y-64377200D01*
X162574381Y-64377200D02*
X162479143Y-64281961D01*
X162479143Y-64281961D02*
X162431524Y-64186723D01*
X162431524Y-64186723D02*
X162383905Y-63996247D01*
X162383905Y-63996247D02*
X162383905Y-63853390D01*
X162383905Y-63853390D02*
X162431524Y-63662914D01*
X162431524Y-63662914D02*
X162479143Y-63567676D01*
X162479143Y-63567676D02*
X162574381Y-63472438D01*
X162574381Y-63472438D02*
X162717238Y-63424819D01*
X162717238Y-63424819D02*
X162812476Y-63424819D01*
X162812476Y-63424819D02*
X162955333Y-63472438D01*
X162955333Y-63472438D02*
X163002952Y-63520057D01*
X163955333Y-64424819D02*
X163383905Y-64424819D01*
X163669619Y-64424819D02*
X163669619Y-63424819D01*
X163669619Y-63424819D02*
X163574381Y-63567676D01*
X163574381Y-63567676D02*
X163479143Y-63662914D01*
X163479143Y-63662914D02*
X163383905Y-63710533D01*
X164907714Y-64424819D02*
X164336286Y-64424819D01*
X164622000Y-64424819D02*
X164622000Y-63424819D01*
X164622000Y-63424819D02*
X164526762Y-63567676D01*
X164526762Y-63567676D02*
X164431524Y-63662914D01*
X164431524Y-63662914D02*
X164336286Y-63710533D01*
X165526762Y-63424819D02*
X165622000Y-63424819D01*
X165622000Y-63424819D02*
X165717238Y-63472438D01*
X165717238Y-63472438D02*
X165764857Y-63520057D01*
X165764857Y-63520057D02*
X165812476Y-63615295D01*
X165812476Y-63615295D02*
X165860095Y-63805771D01*
X165860095Y-63805771D02*
X165860095Y-64043866D01*
X165860095Y-64043866D02*
X165812476Y-64234342D01*
X165812476Y-64234342D02*
X165764857Y-64329580D01*
X165764857Y-64329580D02*
X165717238Y-64377200D01*
X165717238Y-64377200D02*
X165622000Y-64424819D01*
X165622000Y-64424819D02*
X165526762Y-64424819D01*
X165526762Y-64424819D02*
X165431524Y-64377200D01*
X165431524Y-64377200D02*
X165383905Y-64329580D01*
X165383905Y-64329580D02*
X165336286Y-64234342D01*
X165336286Y-64234342D02*
X165288667Y-64043866D01*
X165288667Y-64043866D02*
X165288667Y-63805771D01*
X165288667Y-63805771D02*
X165336286Y-63615295D01*
X165336286Y-63615295D02*
X165383905Y-63520057D01*
X165383905Y-63520057D02*
X165431524Y-63472438D01*
X165431524Y-63472438D02*
X165526762Y-63424819D01*
X154924819Y-85663047D02*
X154448628Y-85996380D01*
X154924819Y-86234475D02*
X153924819Y-86234475D01*
X153924819Y-86234475D02*
X153924819Y-85853523D01*
X153924819Y-85853523D02*
X153972438Y-85758285D01*
X153972438Y-85758285D02*
X154020057Y-85710666D01*
X154020057Y-85710666D02*
X154115295Y-85663047D01*
X154115295Y-85663047D02*
X154258152Y-85663047D01*
X154258152Y-85663047D02*
X154353390Y-85710666D01*
X154353390Y-85710666D02*
X154401009Y-85758285D01*
X154401009Y-85758285D02*
X154448628Y-85853523D01*
X154448628Y-85853523D02*
X154448628Y-86234475D01*
X154924819Y-84710666D02*
X154924819Y-85282094D01*
X154924819Y-84996380D02*
X153924819Y-84996380D01*
X153924819Y-84996380D02*
X154067676Y-85091618D01*
X154067676Y-85091618D02*
X154162914Y-85186856D01*
X154162914Y-85186856D02*
X154210533Y-85282094D01*
X153924819Y-84091618D02*
X153924819Y-83996380D01*
X153924819Y-83996380D02*
X153972438Y-83901142D01*
X153972438Y-83901142D02*
X154020057Y-83853523D01*
X154020057Y-83853523D02*
X154115295Y-83805904D01*
X154115295Y-83805904D02*
X154305771Y-83758285D01*
X154305771Y-83758285D02*
X154543866Y-83758285D01*
X154543866Y-83758285D02*
X154734342Y-83805904D01*
X154734342Y-83805904D02*
X154829580Y-83853523D01*
X154829580Y-83853523D02*
X154877200Y-83901142D01*
X154877200Y-83901142D02*
X154924819Y-83996380D01*
X154924819Y-83996380D02*
X154924819Y-84091618D01*
X154924819Y-84091618D02*
X154877200Y-84186856D01*
X154877200Y-84186856D02*
X154829580Y-84234475D01*
X154829580Y-84234475D02*
X154734342Y-84282094D01*
X154734342Y-84282094D02*
X154543866Y-84329713D01*
X154543866Y-84329713D02*
X154305771Y-84329713D01*
X154305771Y-84329713D02*
X154115295Y-84282094D01*
X154115295Y-84282094D02*
X154020057Y-84234475D01*
X154020057Y-84234475D02*
X153972438Y-84186856D01*
X153972438Y-84186856D02*
X153924819Y-84091618D01*
X153924819Y-82901142D02*
X153924819Y-83091618D01*
X153924819Y-83091618D02*
X153972438Y-83186856D01*
X153972438Y-83186856D02*
X154020057Y-83234475D01*
X154020057Y-83234475D02*
X154162914Y-83329713D01*
X154162914Y-83329713D02*
X154353390Y-83377332D01*
X154353390Y-83377332D02*
X154734342Y-83377332D01*
X154734342Y-83377332D02*
X154829580Y-83329713D01*
X154829580Y-83329713D02*
X154877200Y-83282094D01*
X154877200Y-83282094D02*
X154924819Y-83186856D01*
X154924819Y-83186856D02*
X154924819Y-82996380D01*
X154924819Y-82996380D02*
X154877200Y-82901142D01*
X154877200Y-82901142D02*
X154829580Y-82853523D01*
X154829580Y-82853523D02*
X154734342Y-82805904D01*
X154734342Y-82805904D02*
X154496247Y-82805904D01*
X154496247Y-82805904D02*
X154401009Y-82853523D01*
X154401009Y-82853523D02*
X154353390Y-82901142D01*
X154353390Y-82901142D02*
X154305771Y-82996380D01*
X154305771Y-82996380D02*
X154305771Y-83186856D01*
X154305771Y-83186856D02*
X154353390Y-83282094D01*
X154353390Y-83282094D02*
X154401009Y-83329713D01*
X154401009Y-83329713D02*
X154496247Y-83377332D01*
X154874952Y-64329580D02*
X154827333Y-64377200D01*
X154827333Y-64377200D02*
X154684476Y-64424819D01*
X154684476Y-64424819D02*
X154589238Y-64424819D01*
X154589238Y-64424819D02*
X154446381Y-64377200D01*
X154446381Y-64377200D02*
X154351143Y-64281961D01*
X154351143Y-64281961D02*
X154303524Y-64186723D01*
X154303524Y-64186723D02*
X154255905Y-63996247D01*
X154255905Y-63996247D02*
X154255905Y-63853390D01*
X154255905Y-63853390D02*
X154303524Y-63662914D01*
X154303524Y-63662914D02*
X154351143Y-63567676D01*
X154351143Y-63567676D02*
X154446381Y-63472438D01*
X154446381Y-63472438D02*
X154589238Y-63424819D01*
X154589238Y-63424819D02*
X154684476Y-63424819D01*
X154684476Y-63424819D02*
X154827333Y-63472438D01*
X154827333Y-63472438D02*
X154874952Y-63520057D01*
X155827333Y-64424819D02*
X155255905Y-64424819D01*
X155541619Y-64424819D02*
X155541619Y-63424819D01*
X155541619Y-63424819D02*
X155446381Y-63567676D01*
X155446381Y-63567676D02*
X155351143Y-63662914D01*
X155351143Y-63662914D02*
X155255905Y-63710533D01*
X156779714Y-64424819D02*
X156208286Y-64424819D01*
X156494000Y-64424819D02*
X156494000Y-63424819D01*
X156494000Y-63424819D02*
X156398762Y-63567676D01*
X156398762Y-63567676D02*
X156303524Y-63662914D01*
X156303524Y-63662914D02*
X156208286Y-63710533D01*
X157732095Y-64424819D02*
X157160667Y-64424819D01*
X157446381Y-64424819D02*
X157446381Y-63424819D01*
X157446381Y-63424819D02*
X157351143Y-63567676D01*
X157351143Y-63567676D02*
X157255905Y-63662914D01*
X157255905Y-63662914D02*
X157160667Y-63710533D01*
X167116819Y-55691047D02*
X166640628Y-56024380D01*
X167116819Y-56262475D02*
X166116819Y-56262475D01*
X166116819Y-56262475D02*
X166116819Y-55881523D01*
X166116819Y-55881523D02*
X166164438Y-55786285D01*
X166164438Y-55786285D02*
X166212057Y-55738666D01*
X166212057Y-55738666D02*
X166307295Y-55691047D01*
X166307295Y-55691047D02*
X166450152Y-55691047D01*
X166450152Y-55691047D02*
X166545390Y-55738666D01*
X166545390Y-55738666D02*
X166593009Y-55786285D01*
X166593009Y-55786285D02*
X166640628Y-55881523D01*
X166640628Y-55881523D02*
X166640628Y-56262475D01*
X167116819Y-54738666D02*
X167116819Y-55310094D01*
X167116819Y-55024380D02*
X166116819Y-55024380D01*
X166116819Y-55024380D02*
X166259676Y-55119618D01*
X166259676Y-55119618D02*
X166354914Y-55214856D01*
X166354914Y-55214856D02*
X166402533Y-55310094D01*
X166116819Y-54119618D02*
X166116819Y-54024380D01*
X166116819Y-54024380D02*
X166164438Y-53929142D01*
X166164438Y-53929142D02*
X166212057Y-53881523D01*
X166212057Y-53881523D02*
X166307295Y-53833904D01*
X166307295Y-53833904D02*
X166497771Y-53786285D01*
X166497771Y-53786285D02*
X166735866Y-53786285D01*
X166735866Y-53786285D02*
X166926342Y-53833904D01*
X166926342Y-53833904D02*
X167021580Y-53881523D01*
X167021580Y-53881523D02*
X167069200Y-53929142D01*
X167069200Y-53929142D02*
X167116819Y-54024380D01*
X167116819Y-54024380D02*
X167116819Y-54119618D01*
X167116819Y-54119618D02*
X167069200Y-54214856D01*
X167069200Y-54214856D02*
X167021580Y-54262475D01*
X167021580Y-54262475D02*
X166926342Y-54310094D01*
X166926342Y-54310094D02*
X166735866Y-54357713D01*
X166735866Y-54357713D02*
X166497771Y-54357713D01*
X166497771Y-54357713D02*
X166307295Y-54310094D01*
X166307295Y-54310094D02*
X166212057Y-54262475D01*
X166212057Y-54262475D02*
X166164438Y-54214856D01*
X166164438Y-54214856D02*
X166116819Y-54119618D01*
X166116819Y-52881523D02*
X166116819Y-53357713D01*
X166116819Y-53357713D02*
X166593009Y-53405332D01*
X166593009Y-53405332D02*
X166545390Y-53357713D01*
X166545390Y-53357713D02*
X166497771Y-53262475D01*
X166497771Y-53262475D02*
X166497771Y-53024380D01*
X166497771Y-53024380D02*
X166545390Y-52929142D01*
X166545390Y-52929142D02*
X166593009Y-52881523D01*
X166593009Y-52881523D02*
X166688247Y-52833904D01*
X166688247Y-52833904D02*
X166926342Y-52833904D01*
X166926342Y-52833904D02*
X167021580Y-52881523D01*
X167021580Y-52881523D02*
X167069200Y-52929142D01*
X167069200Y-52929142D02*
X167116819Y-53024380D01*
X167116819Y-53024380D02*
X167116819Y-53262475D01*
X167116819Y-53262475D02*
X167069200Y-53357713D01*
X167069200Y-53357713D02*
X167021580Y-53405332D01*
X151572952Y-103441055D02*
X151525333Y-103488675D01*
X151525333Y-103488675D02*
X151382476Y-103536294D01*
X151382476Y-103536294D02*
X151287238Y-103536294D01*
X151287238Y-103536294D02*
X151144381Y-103488675D01*
X151144381Y-103488675D02*
X151049143Y-103393436D01*
X151049143Y-103393436D02*
X151001524Y-103298198D01*
X151001524Y-103298198D02*
X150953905Y-103107722D01*
X150953905Y-103107722D02*
X150953905Y-102964865D01*
X150953905Y-102964865D02*
X151001524Y-102774389D01*
X151001524Y-102774389D02*
X151049143Y-102679151D01*
X151049143Y-102679151D02*
X151144381Y-102583913D01*
X151144381Y-102583913D02*
X151287238Y-102536294D01*
X151287238Y-102536294D02*
X151382476Y-102536294D01*
X151382476Y-102536294D02*
X151525333Y-102583913D01*
X151525333Y-102583913D02*
X151572952Y-102631532D01*
X152525333Y-103536294D02*
X151953905Y-103536294D01*
X152239619Y-103536294D02*
X152239619Y-102536294D01*
X152239619Y-102536294D02*
X152144381Y-102679151D01*
X152144381Y-102679151D02*
X152049143Y-102774389D01*
X152049143Y-102774389D02*
X151953905Y-102822008D01*
X153144381Y-102536294D02*
X153239619Y-102536294D01*
X153239619Y-102536294D02*
X153334857Y-102583913D01*
X153334857Y-102583913D02*
X153382476Y-102631532D01*
X153382476Y-102631532D02*
X153430095Y-102726770D01*
X153430095Y-102726770D02*
X153477714Y-102917246D01*
X153477714Y-102917246D02*
X153477714Y-103155341D01*
X153477714Y-103155341D02*
X153430095Y-103345817D01*
X153430095Y-103345817D02*
X153382476Y-103441055D01*
X153382476Y-103441055D02*
X153334857Y-103488675D01*
X153334857Y-103488675D02*
X153239619Y-103536294D01*
X153239619Y-103536294D02*
X153144381Y-103536294D01*
X153144381Y-103536294D02*
X153049143Y-103488675D01*
X153049143Y-103488675D02*
X153001524Y-103441055D01*
X153001524Y-103441055D02*
X152953905Y-103345817D01*
X152953905Y-103345817D02*
X152906286Y-103155341D01*
X152906286Y-103155341D02*
X152906286Y-102917246D01*
X152906286Y-102917246D02*
X152953905Y-102726770D01*
X152953905Y-102726770D02*
X153001524Y-102631532D01*
X153001524Y-102631532D02*
X153049143Y-102583913D01*
X153049143Y-102583913D02*
X153144381Y-102536294D01*
X154334857Y-102536294D02*
X154144381Y-102536294D01*
X154144381Y-102536294D02*
X154049143Y-102583913D01*
X154049143Y-102583913D02*
X154001524Y-102631532D01*
X154001524Y-102631532D02*
X153906286Y-102774389D01*
X153906286Y-102774389D02*
X153858667Y-102964865D01*
X153858667Y-102964865D02*
X153858667Y-103345817D01*
X153858667Y-103345817D02*
X153906286Y-103441055D01*
X153906286Y-103441055D02*
X153953905Y-103488675D01*
X153953905Y-103488675D02*
X154049143Y-103536294D01*
X154049143Y-103536294D02*
X154239619Y-103536294D01*
X154239619Y-103536294D02*
X154334857Y-103488675D01*
X154334857Y-103488675D02*
X154382476Y-103441055D01*
X154382476Y-103441055D02*
X154430095Y-103345817D01*
X154430095Y-103345817D02*
X154430095Y-103107722D01*
X154430095Y-103107722D02*
X154382476Y-103012484D01*
X154382476Y-103012484D02*
X154334857Y-102964865D01*
X154334857Y-102964865D02*
X154239619Y-102917246D01*
X154239619Y-102917246D02*
X154049143Y-102917246D01*
X154049143Y-102917246D02*
X153953905Y-102964865D01*
X153953905Y-102964865D02*
X153906286Y-103012484D01*
X153906286Y-103012484D02*
X153858667Y-103107722D01*
X89255714Y-118914819D02*
X89255714Y-117914819D01*
X89255714Y-118391009D02*
X89827142Y-118391009D01*
X89827142Y-118914819D02*
X89827142Y-117914819D01*
X90827142Y-118914819D02*
X90255714Y-118914819D01*
X90541428Y-118914819D02*
X90541428Y-117914819D01*
X90541428Y-117914819D02*
X90446190Y-118057676D01*
X90446190Y-118057676D02*
X90350952Y-118152914D01*
X90350952Y-118152914D02*
X90255714Y-118200533D01*
X91446190Y-117914819D02*
X91541428Y-117914819D01*
X91541428Y-117914819D02*
X91636666Y-117962438D01*
X91636666Y-117962438D02*
X91684285Y-118010057D01*
X91684285Y-118010057D02*
X91731904Y-118105295D01*
X91731904Y-118105295D02*
X91779523Y-118295771D01*
X91779523Y-118295771D02*
X91779523Y-118533866D01*
X91779523Y-118533866D02*
X91731904Y-118724342D01*
X91731904Y-118724342D02*
X91684285Y-118819580D01*
X91684285Y-118819580D02*
X91636666Y-118867200D01*
X91636666Y-118867200D02*
X91541428Y-118914819D01*
X91541428Y-118914819D02*
X91446190Y-118914819D01*
X91446190Y-118914819D02*
X91350952Y-118867200D01*
X91350952Y-118867200D02*
X91303333Y-118819580D01*
X91303333Y-118819580D02*
X91255714Y-118724342D01*
X91255714Y-118724342D02*
X91208095Y-118533866D01*
X91208095Y-118533866D02*
X91208095Y-118295771D01*
X91208095Y-118295771D02*
X91255714Y-118105295D01*
X91255714Y-118105295D02*
X91303333Y-118010057D01*
X91303333Y-118010057D02*
X91350952Y-117962438D01*
X91350952Y-117962438D02*
X91446190Y-117914819D01*
X92112857Y-117914819D02*
X92731904Y-117914819D01*
X92731904Y-117914819D02*
X92398571Y-118295771D01*
X92398571Y-118295771D02*
X92541428Y-118295771D01*
X92541428Y-118295771D02*
X92636666Y-118343390D01*
X92636666Y-118343390D02*
X92684285Y-118391009D01*
X92684285Y-118391009D02*
X92731904Y-118486247D01*
X92731904Y-118486247D02*
X92731904Y-118724342D01*
X92731904Y-118724342D02*
X92684285Y-118819580D01*
X92684285Y-118819580D02*
X92636666Y-118867200D01*
X92636666Y-118867200D02*
X92541428Y-118914819D01*
X92541428Y-118914819D02*
X92255714Y-118914819D01*
X92255714Y-118914819D02*
X92160476Y-118867200D01*
X92160476Y-118867200D02*
X92112857Y-118819580D01*
X96566190Y-121141009D02*
X96232857Y-121141009D01*
X96232857Y-121664819D02*
X96232857Y-120664819D01*
X96232857Y-120664819D02*
X96709047Y-120664819D01*
X97090000Y-121664819D02*
X97090000Y-120664819D01*
X97566190Y-121664819D02*
X97566190Y-120664819D01*
X97566190Y-120664819D02*
X97804285Y-120664819D01*
X97804285Y-120664819D02*
X97947142Y-120712438D01*
X97947142Y-120712438D02*
X98042380Y-120807676D01*
X98042380Y-120807676D02*
X98089999Y-120902914D01*
X98089999Y-120902914D02*
X98137618Y-121093390D01*
X98137618Y-121093390D02*
X98137618Y-121236247D01*
X98137618Y-121236247D02*
X98089999Y-121426723D01*
X98089999Y-121426723D02*
X98042380Y-121521961D01*
X98042380Y-121521961D02*
X97947142Y-121617200D01*
X97947142Y-121617200D02*
X97804285Y-121664819D01*
X97804285Y-121664819D02*
X97566190Y-121664819D01*
X99089999Y-121664819D02*
X98518571Y-121664819D01*
X98804285Y-121664819D02*
X98804285Y-120664819D01*
X98804285Y-120664819D02*
X98709047Y-120807676D01*
X98709047Y-120807676D02*
X98613809Y-120902914D01*
X98613809Y-120902914D02*
X98518571Y-120950533D01*
X99709047Y-120664819D02*
X99804285Y-120664819D01*
X99804285Y-120664819D02*
X99899523Y-120712438D01*
X99899523Y-120712438D02*
X99947142Y-120760057D01*
X99947142Y-120760057D02*
X99994761Y-120855295D01*
X99994761Y-120855295D02*
X100042380Y-121045771D01*
X100042380Y-121045771D02*
X100042380Y-121283866D01*
X100042380Y-121283866D02*
X99994761Y-121474342D01*
X99994761Y-121474342D02*
X99947142Y-121569580D01*
X99947142Y-121569580D02*
X99899523Y-121617200D01*
X99899523Y-121617200D02*
X99804285Y-121664819D01*
X99804285Y-121664819D02*
X99709047Y-121664819D01*
X99709047Y-121664819D02*
X99613809Y-121617200D01*
X99613809Y-121617200D02*
X99566190Y-121569580D01*
X99566190Y-121569580D02*
X99518571Y-121474342D01*
X99518571Y-121474342D02*
X99470952Y-121283866D01*
X99470952Y-121283866D02*
X99470952Y-121045771D01*
X99470952Y-121045771D02*
X99518571Y-120855295D01*
X99518571Y-120855295D02*
X99566190Y-120760057D01*
X99566190Y-120760057D02*
X99613809Y-120712438D01*
X99613809Y-120712438D02*
X99709047Y-120664819D01*
X100375714Y-120664819D02*
X100994761Y-120664819D01*
X100994761Y-120664819D02*
X100661428Y-121045771D01*
X100661428Y-121045771D02*
X100804285Y-121045771D01*
X100804285Y-121045771D02*
X100899523Y-121093390D01*
X100899523Y-121093390D02*
X100947142Y-121141009D01*
X100947142Y-121141009D02*
X100994761Y-121236247D01*
X100994761Y-121236247D02*
X100994761Y-121474342D01*
X100994761Y-121474342D02*
X100947142Y-121569580D01*
X100947142Y-121569580D02*
X100899523Y-121617200D01*
X100899523Y-121617200D02*
X100804285Y-121664819D01*
X100804285Y-121664819D02*
X100518571Y-121664819D01*
X100518571Y-121664819D02*
X100423333Y-121617200D01*
X100423333Y-121617200D02*
X100375714Y-121569580D01*
X131252952Y-112620294D02*
X130919619Y-112144103D01*
X130681524Y-112620294D02*
X130681524Y-111620294D01*
X130681524Y-111620294D02*
X131062476Y-111620294D01*
X131062476Y-111620294D02*
X131157714Y-111667913D01*
X131157714Y-111667913D02*
X131205333Y-111715532D01*
X131205333Y-111715532D02*
X131252952Y-111810770D01*
X131252952Y-111810770D02*
X131252952Y-111953627D01*
X131252952Y-111953627D02*
X131205333Y-112048865D01*
X131205333Y-112048865D02*
X131157714Y-112096484D01*
X131157714Y-112096484D02*
X131062476Y-112144103D01*
X131062476Y-112144103D02*
X130681524Y-112144103D01*
X132205333Y-112620294D02*
X131633905Y-112620294D01*
X131919619Y-112620294D02*
X131919619Y-111620294D01*
X131919619Y-111620294D02*
X131824381Y-111763151D01*
X131824381Y-111763151D02*
X131729143Y-111858389D01*
X131729143Y-111858389D02*
X131633905Y-111906008D01*
X132824381Y-111620294D02*
X132919619Y-111620294D01*
X132919619Y-111620294D02*
X133014857Y-111667913D01*
X133014857Y-111667913D02*
X133062476Y-111715532D01*
X133062476Y-111715532D02*
X133110095Y-111810770D01*
X133110095Y-111810770D02*
X133157714Y-112001246D01*
X133157714Y-112001246D02*
X133157714Y-112239341D01*
X133157714Y-112239341D02*
X133110095Y-112429817D01*
X133110095Y-112429817D02*
X133062476Y-112525055D01*
X133062476Y-112525055D02*
X133014857Y-112572675D01*
X133014857Y-112572675D02*
X132919619Y-112620294D01*
X132919619Y-112620294D02*
X132824381Y-112620294D01*
X132824381Y-112620294D02*
X132729143Y-112572675D01*
X132729143Y-112572675D02*
X132681524Y-112525055D01*
X132681524Y-112525055D02*
X132633905Y-112429817D01*
X132633905Y-112429817D02*
X132586286Y-112239341D01*
X132586286Y-112239341D02*
X132586286Y-112001246D01*
X132586286Y-112001246D02*
X132633905Y-111810770D01*
X132633905Y-111810770D02*
X132681524Y-111715532D01*
X132681524Y-111715532D02*
X132729143Y-111667913D01*
X132729143Y-111667913D02*
X132824381Y-111620294D01*
X133491048Y-111620294D02*
X134110095Y-111620294D01*
X134110095Y-111620294D02*
X133776762Y-112001246D01*
X133776762Y-112001246D02*
X133919619Y-112001246D01*
X133919619Y-112001246D02*
X134014857Y-112048865D01*
X134014857Y-112048865D02*
X134062476Y-112096484D01*
X134062476Y-112096484D02*
X134110095Y-112191722D01*
X134110095Y-112191722D02*
X134110095Y-112429817D01*
X134110095Y-112429817D02*
X134062476Y-112525055D01*
X134062476Y-112525055D02*
X134014857Y-112572675D01*
X134014857Y-112572675D02*
X133919619Y-112620294D01*
X133919619Y-112620294D02*
X133633905Y-112620294D01*
X133633905Y-112620294D02*
X133538667Y-112572675D01*
X133538667Y-112572675D02*
X133491048Y-112525055D01*
X85024819Y-112507619D02*
X84548628Y-112840952D01*
X85024819Y-113079047D02*
X84024819Y-113079047D01*
X84024819Y-113079047D02*
X84024819Y-112698095D01*
X84024819Y-112698095D02*
X84072438Y-112602857D01*
X84072438Y-112602857D02*
X84120057Y-112555238D01*
X84120057Y-112555238D02*
X84215295Y-112507619D01*
X84215295Y-112507619D02*
X84358152Y-112507619D01*
X84358152Y-112507619D02*
X84453390Y-112555238D01*
X84453390Y-112555238D02*
X84501009Y-112602857D01*
X84501009Y-112602857D02*
X84548628Y-112698095D01*
X84548628Y-112698095D02*
X84548628Y-113079047D01*
X84024819Y-112221904D02*
X85024819Y-111888571D01*
X85024819Y-111888571D02*
X84024819Y-111555238D01*
X85024819Y-110698095D02*
X85024819Y-111269523D01*
X85024819Y-110983809D02*
X84024819Y-110983809D01*
X84024819Y-110983809D02*
X84167676Y-111079047D01*
X84167676Y-111079047D02*
X84262914Y-111174285D01*
X84262914Y-111174285D02*
X84310533Y-111269523D01*
X84024819Y-110079047D02*
X84024819Y-109983809D01*
X84024819Y-109983809D02*
X84072438Y-109888571D01*
X84072438Y-109888571D02*
X84120057Y-109840952D01*
X84120057Y-109840952D02*
X84215295Y-109793333D01*
X84215295Y-109793333D02*
X84405771Y-109745714D01*
X84405771Y-109745714D02*
X84643866Y-109745714D01*
X84643866Y-109745714D02*
X84834342Y-109793333D01*
X84834342Y-109793333D02*
X84929580Y-109840952D01*
X84929580Y-109840952D02*
X84977200Y-109888571D01*
X84977200Y-109888571D02*
X85024819Y-109983809D01*
X85024819Y-109983809D02*
X85024819Y-110079047D01*
X85024819Y-110079047D02*
X84977200Y-110174285D01*
X84977200Y-110174285D02*
X84929580Y-110221904D01*
X84929580Y-110221904D02*
X84834342Y-110269523D01*
X84834342Y-110269523D02*
X84643866Y-110317142D01*
X84643866Y-110317142D02*
X84405771Y-110317142D01*
X84405771Y-110317142D02*
X84215295Y-110269523D01*
X84215295Y-110269523D02*
X84120057Y-110221904D01*
X84120057Y-110221904D02*
X84072438Y-110174285D01*
X84072438Y-110174285D02*
X84024819Y-110079047D01*
X85024819Y-108793333D02*
X85024819Y-109364761D01*
X85024819Y-109079047D02*
X84024819Y-109079047D01*
X84024819Y-109079047D02*
X84167676Y-109174285D01*
X84167676Y-109174285D02*
X84262914Y-109269523D01*
X84262914Y-109269523D02*
X84310533Y-109364761D01*
X160762819Y-72759285D02*
X161572342Y-72759285D01*
X161572342Y-72759285D02*
X161667580Y-72711666D01*
X161667580Y-72711666D02*
X161715200Y-72664047D01*
X161715200Y-72664047D02*
X161762819Y-72568809D01*
X161762819Y-72568809D02*
X161762819Y-72378333D01*
X161762819Y-72378333D02*
X161715200Y-72283095D01*
X161715200Y-72283095D02*
X161667580Y-72235476D01*
X161667580Y-72235476D02*
X161572342Y-72187857D01*
X161572342Y-72187857D02*
X160762819Y-72187857D01*
X161762819Y-71187857D02*
X161762819Y-71759285D01*
X161762819Y-71473571D02*
X160762819Y-71473571D01*
X160762819Y-71473571D02*
X160905676Y-71568809D01*
X160905676Y-71568809D02*
X161000914Y-71664047D01*
X161000914Y-71664047D02*
X161048533Y-71759285D01*
X160762819Y-70568809D02*
X160762819Y-70473571D01*
X160762819Y-70473571D02*
X160810438Y-70378333D01*
X160810438Y-70378333D02*
X160858057Y-70330714D01*
X160858057Y-70330714D02*
X160953295Y-70283095D01*
X160953295Y-70283095D02*
X161143771Y-70235476D01*
X161143771Y-70235476D02*
X161381866Y-70235476D01*
X161381866Y-70235476D02*
X161572342Y-70283095D01*
X161572342Y-70283095D02*
X161667580Y-70330714D01*
X161667580Y-70330714D02*
X161715200Y-70378333D01*
X161715200Y-70378333D02*
X161762819Y-70473571D01*
X161762819Y-70473571D02*
X161762819Y-70568809D01*
X161762819Y-70568809D02*
X161715200Y-70664047D01*
X161715200Y-70664047D02*
X161667580Y-70711666D01*
X161667580Y-70711666D02*
X161572342Y-70759285D01*
X161572342Y-70759285D02*
X161381866Y-70806904D01*
X161381866Y-70806904D02*
X161143771Y-70806904D01*
X161143771Y-70806904D02*
X160953295Y-70759285D01*
X160953295Y-70759285D02*
X160858057Y-70711666D01*
X160858057Y-70711666D02*
X160810438Y-70664047D01*
X160810438Y-70664047D02*
X160762819Y-70568809D01*
X160762819Y-69902142D02*
X160762819Y-69283095D01*
X160762819Y-69283095D02*
X161143771Y-69616428D01*
X161143771Y-69616428D02*
X161143771Y-69473571D01*
X161143771Y-69473571D02*
X161191390Y-69378333D01*
X161191390Y-69378333D02*
X161239009Y-69330714D01*
X161239009Y-69330714D02*
X161334247Y-69283095D01*
X161334247Y-69283095D02*
X161572342Y-69283095D01*
X161572342Y-69283095D02*
X161667580Y-69330714D01*
X161667580Y-69330714D02*
X161715200Y-69378333D01*
X161715200Y-69378333D02*
X161762819Y-69473571D01*
X161762819Y-69473571D02*
X161762819Y-69759285D01*
X161762819Y-69759285D02*
X161715200Y-69854523D01*
X161715200Y-69854523D02*
X161667580Y-69902142D01*
X147410057Y-82797619D02*
X147362438Y-82892857D01*
X147362438Y-82892857D02*
X147267200Y-82988095D01*
X147267200Y-82988095D02*
X147124342Y-83130952D01*
X147124342Y-83130952D02*
X147076723Y-83226190D01*
X147076723Y-83226190D02*
X147076723Y-83321428D01*
X147314819Y-83273809D02*
X147267200Y-83369047D01*
X147267200Y-83369047D02*
X147171961Y-83464285D01*
X147171961Y-83464285D02*
X146981485Y-83511904D01*
X146981485Y-83511904D02*
X146648152Y-83511904D01*
X146648152Y-83511904D02*
X146457676Y-83464285D01*
X146457676Y-83464285D02*
X146362438Y-83369047D01*
X146362438Y-83369047D02*
X146314819Y-83273809D01*
X146314819Y-83273809D02*
X146314819Y-83083333D01*
X146314819Y-83083333D02*
X146362438Y-82988095D01*
X146362438Y-82988095D02*
X146457676Y-82892857D01*
X146457676Y-82892857D02*
X146648152Y-82845238D01*
X146648152Y-82845238D02*
X146981485Y-82845238D01*
X146981485Y-82845238D02*
X147171961Y-82892857D01*
X147171961Y-82892857D02*
X147267200Y-82988095D01*
X147267200Y-82988095D02*
X147314819Y-83083333D01*
X147314819Y-83083333D02*
X147314819Y-83273809D01*
X147314819Y-81892857D02*
X147314819Y-82464285D01*
X147314819Y-82178571D02*
X146314819Y-82178571D01*
X146314819Y-82178571D02*
X146457676Y-82273809D01*
X146457676Y-82273809D02*
X146552914Y-82369047D01*
X146552914Y-82369047D02*
X146600533Y-82464285D01*
X146314819Y-81273809D02*
X146314819Y-81178571D01*
X146314819Y-81178571D02*
X146362438Y-81083333D01*
X146362438Y-81083333D02*
X146410057Y-81035714D01*
X146410057Y-81035714D02*
X146505295Y-80988095D01*
X146505295Y-80988095D02*
X146695771Y-80940476D01*
X146695771Y-80940476D02*
X146933866Y-80940476D01*
X146933866Y-80940476D02*
X147124342Y-80988095D01*
X147124342Y-80988095D02*
X147219580Y-81035714D01*
X147219580Y-81035714D02*
X147267200Y-81083333D01*
X147267200Y-81083333D02*
X147314819Y-81178571D01*
X147314819Y-81178571D02*
X147314819Y-81273809D01*
X147314819Y-81273809D02*
X147267200Y-81369047D01*
X147267200Y-81369047D02*
X147219580Y-81416666D01*
X147219580Y-81416666D02*
X147124342Y-81464285D01*
X147124342Y-81464285D02*
X146933866Y-81511904D01*
X146933866Y-81511904D02*
X146695771Y-81511904D01*
X146695771Y-81511904D02*
X146505295Y-81464285D01*
X146505295Y-81464285D02*
X146410057Y-81416666D01*
X146410057Y-81416666D02*
X146362438Y-81369047D01*
X146362438Y-81369047D02*
X146314819Y-81273809D01*
X146314819Y-80607142D02*
X146314819Y-79988095D01*
X146314819Y-79988095D02*
X146695771Y-80321428D01*
X146695771Y-80321428D02*
X146695771Y-80178571D01*
X146695771Y-80178571D02*
X146743390Y-80083333D01*
X146743390Y-80083333D02*
X146791009Y-80035714D01*
X146791009Y-80035714D02*
X146886247Y-79988095D01*
X146886247Y-79988095D02*
X147124342Y-79988095D01*
X147124342Y-79988095D02*
X147219580Y-80035714D01*
X147219580Y-80035714D02*
X147267200Y-80083333D01*
X147267200Y-80083333D02*
X147314819Y-80178571D01*
X147314819Y-80178571D02*
X147314819Y-80464285D01*
X147314819Y-80464285D02*
X147267200Y-80559523D01*
X147267200Y-80559523D02*
X147219580Y-80607142D01*
X162606190Y-121141009D02*
X162272857Y-121141009D01*
X162272857Y-121664819D02*
X162272857Y-120664819D01*
X162272857Y-120664819D02*
X162749047Y-120664819D01*
X163130000Y-121664819D02*
X163130000Y-120664819D01*
X163606190Y-121664819D02*
X163606190Y-120664819D01*
X163606190Y-120664819D02*
X163844285Y-120664819D01*
X163844285Y-120664819D02*
X163987142Y-120712438D01*
X163987142Y-120712438D02*
X164082380Y-120807676D01*
X164082380Y-120807676D02*
X164129999Y-120902914D01*
X164129999Y-120902914D02*
X164177618Y-121093390D01*
X164177618Y-121093390D02*
X164177618Y-121236247D01*
X164177618Y-121236247D02*
X164129999Y-121426723D01*
X164129999Y-121426723D02*
X164082380Y-121521961D01*
X164082380Y-121521961D02*
X163987142Y-121617200D01*
X163987142Y-121617200D02*
X163844285Y-121664819D01*
X163844285Y-121664819D02*
X163606190Y-121664819D01*
X165129999Y-121664819D02*
X164558571Y-121664819D01*
X164844285Y-121664819D02*
X164844285Y-120664819D01*
X164844285Y-120664819D02*
X164749047Y-120807676D01*
X164749047Y-120807676D02*
X164653809Y-120902914D01*
X164653809Y-120902914D02*
X164558571Y-120950533D01*
X165749047Y-120664819D02*
X165844285Y-120664819D01*
X165844285Y-120664819D02*
X165939523Y-120712438D01*
X165939523Y-120712438D02*
X165987142Y-120760057D01*
X165987142Y-120760057D02*
X166034761Y-120855295D01*
X166034761Y-120855295D02*
X166082380Y-121045771D01*
X166082380Y-121045771D02*
X166082380Y-121283866D01*
X166082380Y-121283866D02*
X166034761Y-121474342D01*
X166034761Y-121474342D02*
X165987142Y-121569580D01*
X165987142Y-121569580D02*
X165939523Y-121617200D01*
X165939523Y-121617200D02*
X165844285Y-121664819D01*
X165844285Y-121664819D02*
X165749047Y-121664819D01*
X165749047Y-121664819D02*
X165653809Y-121617200D01*
X165653809Y-121617200D02*
X165606190Y-121569580D01*
X165606190Y-121569580D02*
X165558571Y-121474342D01*
X165558571Y-121474342D02*
X165510952Y-121283866D01*
X165510952Y-121283866D02*
X165510952Y-121045771D01*
X165510952Y-121045771D02*
X165558571Y-120855295D01*
X165558571Y-120855295D02*
X165606190Y-120760057D01*
X165606190Y-120760057D02*
X165653809Y-120712438D01*
X165653809Y-120712438D02*
X165749047Y-120664819D01*
X166939523Y-120998152D02*
X166939523Y-121664819D01*
X166701428Y-120617200D02*
X166463333Y-121331485D01*
X166463333Y-121331485D02*
X167082380Y-121331485D01*
X154924819Y-61279047D02*
X154448628Y-61612380D01*
X154924819Y-61850475D02*
X153924819Y-61850475D01*
X153924819Y-61850475D02*
X153924819Y-61469523D01*
X153924819Y-61469523D02*
X153972438Y-61374285D01*
X153972438Y-61374285D02*
X154020057Y-61326666D01*
X154020057Y-61326666D02*
X154115295Y-61279047D01*
X154115295Y-61279047D02*
X154258152Y-61279047D01*
X154258152Y-61279047D02*
X154353390Y-61326666D01*
X154353390Y-61326666D02*
X154401009Y-61374285D01*
X154401009Y-61374285D02*
X154448628Y-61469523D01*
X154448628Y-61469523D02*
X154448628Y-61850475D01*
X154924819Y-60326666D02*
X154924819Y-60898094D01*
X154924819Y-60612380D02*
X153924819Y-60612380D01*
X153924819Y-60612380D02*
X154067676Y-60707618D01*
X154067676Y-60707618D02*
X154162914Y-60802856D01*
X154162914Y-60802856D02*
X154210533Y-60898094D01*
X153924819Y-59707618D02*
X153924819Y-59612380D01*
X153924819Y-59612380D02*
X153972438Y-59517142D01*
X153972438Y-59517142D02*
X154020057Y-59469523D01*
X154020057Y-59469523D02*
X154115295Y-59421904D01*
X154115295Y-59421904D02*
X154305771Y-59374285D01*
X154305771Y-59374285D02*
X154543866Y-59374285D01*
X154543866Y-59374285D02*
X154734342Y-59421904D01*
X154734342Y-59421904D02*
X154829580Y-59469523D01*
X154829580Y-59469523D02*
X154877200Y-59517142D01*
X154877200Y-59517142D02*
X154924819Y-59612380D01*
X154924819Y-59612380D02*
X154924819Y-59707618D01*
X154924819Y-59707618D02*
X154877200Y-59802856D01*
X154877200Y-59802856D02*
X154829580Y-59850475D01*
X154829580Y-59850475D02*
X154734342Y-59898094D01*
X154734342Y-59898094D02*
X154543866Y-59945713D01*
X154543866Y-59945713D02*
X154305771Y-59945713D01*
X154305771Y-59945713D02*
X154115295Y-59898094D01*
X154115295Y-59898094D02*
X154020057Y-59850475D01*
X154020057Y-59850475D02*
X153972438Y-59802856D01*
X153972438Y-59802856D02*
X153924819Y-59707618D01*
X153924819Y-59040951D02*
X153924819Y-58374285D01*
X153924819Y-58374285D02*
X154924819Y-58802856D01*
X83454819Y-57635714D02*
X84169104Y-57635714D01*
X84169104Y-57635714D02*
X84311961Y-57683333D01*
X84311961Y-57683333D02*
X84407200Y-57778571D01*
X84407200Y-57778571D02*
X84454819Y-57921428D01*
X84454819Y-57921428D02*
X84454819Y-58016666D01*
X84454819Y-56635714D02*
X84454819Y-57207142D01*
X84454819Y-56921428D02*
X83454819Y-56921428D01*
X83454819Y-56921428D02*
X83597676Y-57016666D01*
X83597676Y-57016666D02*
X83692914Y-57111904D01*
X83692914Y-57111904D02*
X83740533Y-57207142D01*
X83454819Y-56016666D02*
X83454819Y-55921428D01*
X83454819Y-55921428D02*
X83502438Y-55826190D01*
X83502438Y-55826190D02*
X83550057Y-55778571D01*
X83550057Y-55778571D02*
X83645295Y-55730952D01*
X83645295Y-55730952D02*
X83835771Y-55683333D01*
X83835771Y-55683333D02*
X84073866Y-55683333D01*
X84073866Y-55683333D02*
X84264342Y-55730952D01*
X84264342Y-55730952D02*
X84359580Y-55778571D01*
X84359580Y-55778571D02*
X84407200Y-55826190D01*
X84407200Y-55826190D02*
X84454819Y-55921428D01*
X84454819Y-55921428D02*
X84454819Y-56016666D01*
X84454819Y-56016666D02*
X84407200Y-56111904D01*
X84407200Y-56111904D02*
X84359580Y-56159523D01*
X84359580Y-56159523D02*
X84264342Y-56207142D01*
X84264342Y-56207142D02*
X84073866Y-56254761D01*
X84073866Y-56254761D02*
X83835771Y-56254761D01*
X83835771Y-56254761D02*
X83645295Y-56207142D01*
X83645295Y-56207142D02*
X83550057Y-56159523D01*
X83550057Y-56159523D02*
X83502438Y-56111904D01*
X83502438Y-56111904D02*
X83454819Y-56016666D01*
X83454819Y-55349999D02*
X83454819Y-54730952D01*
X83454819Y-54730952D02*
X83835771Y-55064285D01*
X83835771Y-55064285D02*
X83835771Y-54921428D01*
X83835771Y-54921428D02*
X83883390Y-54826190D01*
X83883390Y-54826190D02*
X83931009Y-54778571D01*
X83931009Y-54778571D02*
X84026247Y-54730952D01*
X84026247Y-54730952D02*
X84264342Y-54730952D01*
X84264342Y-54730952D02*
X84359580Y-54778571D01*
X84359580Y-54778571D02*
X84407200Y-54826190D01*
X84407200Y-54826190D02*
X84454819Y-54921428D01*
X84454819Y-54921428D02*
X84454819Y-55207142D01*
X84454819Y-55207142D02*
X84407200Y-55302380D01*
X84407200Y-55302380D02*
X84359580Y-55349999D01*
X122704285Y-129114819D02*
X122704285Y-129829104D01*
X122704285Y-129829104D02*
X122656666Y-129971961D01*
X122656666Y-129971961D02*
X122561428Y-130067200D01*
X122561428Y-130067200D02*
X122418571Y-130114819D01*
X122418571Y-130114819D02*
X122323333Y-130114819D01*
X123704285Y-130114819D02*
X123132857Y-130114819D01*
X123418571Y-130114819D02*
X123418571Y-129114819D01*
X123418571Y-129114819D02*
X123323333Y-129257676D01*
X123323333Y-129257676D02*
X123228095Y-129352914D01*
X123228095Y-129352914D02*
X123132857Y-129400533D01*
X124323333Y-129114819D02*
X124418571Y-129114819D01*
X124418571Y-129114819D02*
X124513809Y-129162438D01*
X124513809Y-129162438D02*
X124561428Y-129210057D01*
X124561428Y-129210057D02*
X124609047Y-129305295D01*
X124609047Y-129305295D02*
X124656666Y-129495771D01*
X124656666Y-129495771D02*
X124656666Y-129733866D01*
X124656666Y-129733866D02*
X124609047Y-129924342D01*
X124609047Y-129924342D02*
X124561428Y-130019580D01*
X124561428Y-130019580D02*
X124513809Y-130067200D01*
X124513809Y-130067200D02*
X124418571Y-130114819D01*
X124418571Y-130114819D02*
X124323333Y-130114819D01*
X124323333Y-130114819D02*
X124228095Y-130067200D01*
X124228095Y-130067200D02*
X124180476Y-130019580D01*
X124180476Y-130019580D02*
X124132857Y-129924342D01*
X124132857Y-129924342D02*
X124085238Y-129733866D01*
X124085238Y-129733866D02*
X124085238Y-129495771D01*
X124085238Y-129495771D02*
X124132857Y-129305295D01*
X124132857Y-129305295D02*
X124180476Y-129210057D01*
X124180476Y-129210057D02*
X124228095Y-129162438D01*
X124228095Y-129162438D02*
X124323333Y-129114819D01*
X125513809Y-129448152D02*
X125513809Y-130114819D01*
X125275714Y-129067200D02*
X125037619Y-129781485D01*
X125037619Y-129781485D02*
X125656666Y-129781485D01*
X152634819Y-72759285D02*
X153444342Y-72759285D01*
X153444342Y-72759285D02*
X153539580Y-72711666D01*
X153539580Y-72711666D02*
X153587200Y-72664047D01*
X153587200Y-72664047D02*
X153634819Y-72568809D01*
X153634819Y-72568809D02*
X153634819Y-72378333D01*
X153634819Y-72378333D02*
X153587200Y-72283095D01*
X153587200Y-72283095D02*
X153539580Y-72235476D01*
X153539580Y-72235476D02*
X153444342Y-72187857D01*
X153444342Y-72187857D02*
X152634819Y-72187857D01*
X153634819Y-71187857D02*
X153634819Y-71759285D01*
X153634819Y-71473571D02*
X152634819Y-71473571D01*
X152634819Y-71473571D02*
X152777676Y-71568809D01*
X152777676Y-71568809D02*
X152872914Y-71664047D01*
X152872914Y-71664047D02*
X152920533Y-71759285D01*
X152634819Y-70568809D02*
X152634819Y-70473571D01*
X152634819Y-70473571D02*
X152682438Y-70378333D01*
X152682438Y-70378333D02*
X152730057Y-70330714D01*
X152730057Y-70330714D02*
X152825295Y-70283095D01*
X152825295Y-70283095D02*
X153015771Y-70235476D01*
X153015771Y-70235476D02*
X153253866Y-70235476D01*
X153253866Y-70235476D02*
X153444342Y-70283095D01*
X153444342Y-70283095D02*
X153539580Y-70330714D01*
X153539580Y-70330714D02*
X153587200Y-70378333D01*
X153587200Y-70378333D02*
X153634819Y-70473571D01*
X153634819Y-70473571D02*
X153634819Y-70568809D01*
X153634819Y-70568809D02*
X153587200Y-70664047D01*
X153587200Y-70664047D02*
X153539580Y-70711666D01*
X153539580Y-70711666D02*
X153444342Y-70759285D01*
X153444342Y-70759285D02*
X153253866Y-70806904D01*
X153253866Y-70806904D02*
X153015771Y-70806904D01*
X153015771Y-70806904D02*
X152825295Y-70759285D01*
X152825295Y-70759285D02*
X152730057Y-70711666D01*
X152730057Y-70711666D02*
X152682438Y-70664047D01*
X152682438Y-70664047D02*
X152634819Y-70568809D01*
X152968152Y-69378333D02*
X153634819Y-69378333D01*
X152587200Y-69616428D02*
X153301485Y-69854523D01*
X153301485Y-69854523D02*
X153301485Y-69235476D01*
D12*
%TO.C,J101*%
X85260000Y-96690000D02*
X85860000Y-96990000D01*
X85260000Y-97290000D02*
X85260000Y-96690000D01*
X85860000Y-96990000D02*
X85260000Y-97290000D01*
X86060000Y-88260000D02*
X86060000Y-100640000D01*
X86060000Y-90910000D02*
X87870000Y-90910000D01*
X86060000Y-92910000D02*
X86060000Y-90910000D01*
X86060000Y-95990000D02*
X87870000Y-95990000D01*
X86060000Y-97990000D02*
X86060000Y-95990000D01*
X86060000Y-100640000D02*
X94880000Y-100640000D01*
X86870000Y-88260000D02*
X86870000Y-90800000D01*
X86870000Y-95990000D02*
X86870000Y-92910000D01*
X86870000Y-100640000D02*
X86870000Y-98100000D01*
X87870000Y-89170000D02*
X93170000Y-89170000D01*
X87870000Y-90910000D02*
X87870000Y-92910000D01*
X87870000Y-92910000D02*
X86060000Y-92910000D01*
X87870000Y-95990000D02*
X87870000Y-97990000D01*
X87870000Y-97990000D02*
X86060000Y-97990000D01*
X87870000Y-99730000D02*
X87870000Y-89170000D01*
X93170000Y-89170000D02*
X93170000Y-89910000D01*
X93170000Y-94990000D02*
X93170000Y-93910000D01*
X93170000Y-98990000D02*
X93170000Y-99730000D01*
X93170000Y-99730000D02*
X87870000Y-99730000D01*
X94880000Y-88260000D02*
X86060000Y-88260000D01*
X94880000Y-100640000D02*
X94880000Y-88260000D01*
X93185821Y-89923158D02*
G75*
G02*
X93170000Y-93910000I-1665821J-1986842D01*
G01*
X93185821Y-95003158D02*
G75*
G02*
X93170000Y-98990000I-1665821J-1986842D01*
G01*
%TO.C,C113*%
X154468000Y-75767420D02*
X154468000Y-76048580D01*
X155488000Y-75767420D02*
X155488000Y-76048580D01*
%TO.C,J102*%
X137560000Y-121660000D02*
X137560000Y-125660000D01*
X137850000Y-120630000D02*
X137850000Y-126650000D01*
X137850000Y-126650000D02*
X148230000Y-126650000D01*
X138430000Y-120630000D02*
X138430000Y-121230000D01*
X138430000Y-121230000D02*
X140030000Y-121230000D01*
X139230000Y-125650000D02*
X139480000Y-125120000D01*
X139230000Y-125650000D02*
X146850000Y-125650000D01*
X139230000Y-126650000D02*
X139230000Y-125650000D01*
X139480000Y-125120000D02*
X146600000Y-125120000D01*
X139480000Y-126650000D02*
X139480000Y-125650000D01*
X140030000Y-121230000D02*
X140030000Y-120630000D01*
X140970000Y-120630000D02*
X140970000Y-121230000D01*
X140970000Y-121230000D02*
X142570000Y-121230000D01*
X142570000Y-121230000D02*
X142570000Y-120630000D01*
X143510000Y-120630000D02*
X143510000Y-121230000D01*
X143510000Y-121230000D02*
X145110000Y-121230000D01*
X145110000Y-121230000D02*
X145110000Y-120630000D01*
X146050000Y-120630000D02*
X146050000Y-121230000D01*
X146050000Y-121230000D02*
X147650000Y-121230000D01*
X146600000Y-125120000D02*
X146850000Y-125650000D01*
X146600000Y-126650000D02*
X146600000Y-125650000D01*
X146850000Y-125650000D02*
X146850000Y-126650000D01*
X147650000Y-121230000D02*
X147650000Y-120630000D01*
X148230000Y-120630000D02*
X137850000Y-120630000D01*
X148230000Y-126650000D02*
X148230000Y-120630000D01*
%TO.C,D101*%
X112180000Y-102370000D02*
X112180000Y-107880000D01*
X115480000Y-102370000D02*
X112180000Y-102370000D01*
X115480000Y-102370000D02*
X115480000Y-107880000D01*
%TO.C,C107*%
X148995420Y-104095475D02*
X149276580Y-104095475D01*
X148995420Y-105115475D02*
X149276580Y-105115475D01*
%TO.C,D104*%
X124460000Y-115505000D02*
X126920000Y-115505000D01*
X126920000Y-114035000D02*
X124460000Y-114035000D01*
X126920000Y-115505000D02*
X126920000Y-114035000D01*
%TO.C,U101*%
X139938000Y-105167475D02*
X140238000Y-105167475D01*
X139938000Y-105467475D02*
X139938000Y-105167475D01*
X139938000Y-112087475D02*
X139938000Y-112387475D01*
X139938000Y-112387475D02*
X140238000Y-112387475D01*
X147158000Y-105167475D02*
X146858000Y-105167475D01*
X147158000Y-105467475D02*
X147158000Y-105167475D01*
X147158000Y-112087475D02*
X147158000Y-112387475D01*
X147158000Y-112387475D02*
X146858000Y-112387475D01*
X140238000Y-112989975D02*
X139768000Y-113329975D01*
X139768000Y-112649975D01*
X140238000Y-112989975D01*
G36*
X140238000Y-112989975D02*
G01*
X139768000Y-113329975D01*
X139768000Y-112649975D01*
X140238000Y-112989975D01*
G37*
%TO.C,U102*%
X105490000Y-105850000D02*
X110110000Y-105850000D01*
X105490000Y-109110000D02*
X106870000Y-109110000D01*
X105490000Y-112810000D02*
X106870000Y-112810000D01*
X105490000Y-116070000D02*
X105490000Y-105850000D01*
X106870000Y-116070000D02*
X106870000Y-105850000D01*
X110110000Y-105850000D02*
X110110000Y-116070000D01*
X110110000Y-116070000D02*
X105490000Y-116070000D01*
%TO.C,F101*%
X88120000Y-69040000D02*
X88120000Y-74670000D01*
X88120000Y-69040000D02*
X129380000Y-69040000D01*
X88120000Y-78670000D02*
X88120000Y-84300000D01*
X129380000Y-69040000D02*
X129380000Y-74670000D01*
X129380000Y-78670000D02*
X129380000Y-84300000D01*
X129380000Y-84300000D02*
X88120000Y-84300000D01*
%TO.C,C101*%
X146228580Y-115779475D02*
X145947420Y-115779475D01*
X146228580Y-116799475D02*
X145947420Y-116799475D01*
%TO.C,C103*%
X105700000Y-110813733D02*
X105700000Y-111106267D01*
X106720000Y-110813733D02*
X106720000Y-111106267D01*
%TO.C,R102*%
X135690742Y-110178975D02*
X136165258Y-110178975D01*
X135690742Y-111223975D02*
X136165258Y-111223975D01*
%TO.C,R101*%
X145850742Y-114242975D02*
X146325258Y-114242975D01*
X145850742Y-115287975D02*
X146325258Y-115287975D01*
%TO.C,C105*%
X148995420Y-101047475D02*
X149276580Y-101047475D01*
X148995420Y-102067475D02*
X149276580Y-102067475D01*
%TO.C,C109*%
X143180580Y-114255475D02*
X142899420Y-114255475D01*
X143180580Y-115275475D02*
X142899420Y-115275475D01*
%TO.C,D102*%
X107780000Y-96610000D02*
X107780000Y-99910000D01*
X107780000Y-96610000D02*
X113290000Y-96610000D01*
X107780000Y-99910000D02*
X113290000Y-99910000D01*
%TO.C,C102*%
X121730000Y-106160000D02*
X122930000Y-106160000D01*
X121730000Y-109615563D02*
X121730000Y-106160000D01*
X122794437Y-110680000D02*
X121730000Y-109615563D01*
X122794437Y-110680000D02*
X122930000Y-110680000D01*
X125185563Y-110680000D02*
X125050000Y-110680000D01*
X125185563Y-110680000D02*
X126250000Y-109615563D01*
X126250000Y-106160000D02*
X125050000Y-106160000D01*
X126250000Y-109615563D02*
X126250000Y-106160000D01*
%TO.C,D103*%
X112180000Y-109990000D02*
X112180000Y-115500000D01*
X115480000Y-109990000D02*
X112180000Y-109990000D01*
X115480000Y-109990000D02*
X115480000Y-115500000D01*
%TO.C,C104*%
X118400000Y-114216233D02*
X118400000Y-114508767D01*
X119420000Y-114216233D02*
X119420000Y-114508767D01*
%TO.C,C108*%
X143180580Y-115779475D02*
X142899420Y-115779475D01*
X143180580Y-116799475D02*
X142899420Y-116799475D01*
%TO.C,Q104*%
X147700000Y-53780000D02*
X152320000Y-53780000D01*
X147700000Y-57040000D02*
X149080000Y-57040000D01*
X147700000Y-60740000D02*
X149080000Y-60740000D01*
X147700000Y-64000000D02*
X147700000Y-53780000D01*
X149080000Y-64000000D02*
X149080000Y-53780000D01*
X152320000Y-53780000D02*
X152320000Y-64000000D01*
X152320000Y-64000000D02*
X147700000Y-64000000D01*
%TO.C,C112*%
X162596000Y-75767420D02*
X162596000Y-76048580D01*
X163616000Y-75767420D02*
X163616000Y-76048580D01*
%TO.C,Q102*%
X167380000Y-53780000D02*
X172000000Y-53780000D01*
X167380000Y-64000000D02*
X167380000Y-53780000D01*
X170620000Y-53780000D02*
X170620000Y-64000000D01*
X172000000Y-53780000D02*
X172000000Y-64000000D01*
X172000000Y-57040000D02*
X170620000Y-57040000D01*
X172000000Y-60740000D02*
X170620000Y-60740000D01*
X172000000Y-64000000D02*
X167380000Y-64000000D01*
%TO.C,Q101*%
X167380000Y-76640000D02*
X172000000Y-76640000D01*
X167380000Y-86860000D02*
X167380000Y-76640000D01*
X170620000Y-76640000D02*
X170620000Y-86860000D01*
X172000000Y-76640000D02*
X172000000Y-86860000D01*
X172000000Y-79900000D02*
X170620000Y-79900000D01*
X172000000Y-83600000D02*
X170620000Y-83600000D01*
X172000000Y-86860000D02*
X167380000Y-86860000D01*
%TO.C,C110*%
X164268267Y-65238000D02*
X163975733Y-65238000D01*
X164268267Y-66258000D02*
X163975733Y-66258000D01*
%TO.C,C111*%
X156140267Y-65238000D02*
X155847733Y-65238000D01*
X156140267Y-66258000D02*
X155847733Y-66258000D01*
%TO.C,C106*%
X148995420Y-102571475D02*
X149276580Y-102571475D01*
X148995420Y-103591475D02*
X149276580Y-103591475D01*
%TO.C,R103*%
X136165258Y-111702975D02*
X135690742Y-111702975D01*
X136165258Y-112747975D02*
X135690742Y-112747975D01*
%TO.C,RV101*%
X87601000Y-115000000D02*
G75*
G02*
X89724000Y-105850000I3368761J4039665D01*
G01*
X92224000Y-116068000D02*
G75*
G02*
X90009000Y-116132000I-1255960J5106140D01*
G01*
X92520000Y-105933000D02*
G75*
G02*
X94493001Y-114866001I-1550805J-5026906D01*
G01*
D13*
%TO.C,U103*%
X162120000Y-72270000D02*
X162120000Y-68370000D01*
X167140000Y-72270000D02*
X167140000Y-68370000D01*
D14*
X162255000Y-74750000D02*
G75*
G02*
X162055000Y-74750000I-100000J0D01*
G01*
X162055000Y-74750000D02*
G75*
G02*
X162255000Y-74750000I100000J0D01*
G01*
D12*
%TO.C,Q103*%
X147700000Y-76640000D02*
X152320000Y-76640000D01*
X147700000Y-79900000D02*
X149080000Y-79900000D01*
X147700000Y-83600000D02*
X149080000Y-83600000D01*
X147700000Y-86860000D02*
X147700000Y-76640000D01*
X149080000Y-86860000D02*
X149080000Y-76640000D01*
X152320000Y-76640000D02*
X152320000Y-86860000D01*
X152320000Y-86860000D02*
X147700000Y-86860000D01*
%TO.C,J103*%
X84290000Y-58590000D02*
X84890000Y-58890000D01*
X84290000Y-59190000D02*
X84290000Y-58590000D01*
X84890000Y-58890000D02*
X84290000Y-59190000D01*
X85090000Y-50160000D02*
X85090000Y-62540000D01*
X85090000Y-52810000D02*
X86900000Y-52810000D01*
X85090000Y-54810000D02*
X85090000Y-52810000D01*
X85090000Y-57890000D02*
X86900000Y-57890000D01*
X85090000Y-59890000D02*
X85090000Y-57890000D01*
X85090000Y-62540000D02*
X93910000Y-62540000D01*
X85900000Y-50160000D02*
X85900000Y-52700000D01*
X85900000Y-57890000D02*
X85900000Y-54810000D01*
X85900000Y-62540000D02*
X85900000Y-60000000D01*
X86900000Y-51070000D02*
X92200000Y-51070000D01*
X86900000Y-52810000D02*
X86900000Y-54810000D01*
X86900000Y-54810000D02*
X85090000Y-54810000D01*
X86900000Y-57890000D02*
X86900000Y-59890000D01*
X86900000Y-59890000D02*
X85090000Y-59890000D01*
X86900000Y-61630000D02*
X86900000Y-51070000D01*
X92200000Y-51070000D02*
X92200000Y-51810000D01*
X92200000Y-56890000D02*
X92200000Y-55810000D01*
X92200000Y-60890000D02*
X92200000Y-61630000D01*
X92200000Y-61630000D02*
X86900000Y-61630000D01*
X93910000Y-50160000D02*
X85090000Y-50160000D01*
X93910000Y-62540000D02*
X93910000Y-50160000D01*
X92215821Y-51823158D02*
G75*
G02*
X92200000Y-55810000I-1665821J-1986842D01*
G01*
X92215821Y-56903158D02*
G75*
G02*
X92200000Y-60890000I-1665821J-1986842D01*
G01*
%TO.C,J104*%
X117800000Y-119750000D02*
X117800000Y-128570000D01*
X117800000Y-127760000D02*
X120340000Y-127760000D01*
X117800000Y-128570000D02*
X130180000Y-128570000D01*
X118710000Y-121460000D02*
X119450000Y-121460000D01*
X118710000Y-126760000D02*
X118710000Y-121460000D01*
X120450000Y-126760000D02*
X122450000Y-126760000D01*
X120450000Y-128570000D02*
X120450000Y-126760000D01*
X122450000Y-126760000D02*
X122450000Y-128570000D01*
X122450000Y-128570000D02*
X120450000Y-128570000D01*
X124530000Y-121460000D02*
X123450000Y-121460000D01*
X125530000Y-126760000D02*
X127530000Y-126760000D01*
X125530000Y-127760000D02*
X122450000Y-127760000D01*
X125530000Y-128570000D02*
X125530000Y-126760000D01*
X126230000Y-129370000D02*
X126530000Y-128770000D01*
X126530000Y-128770000D02*
X126830000Y-129370000D01*
X126830000Y-129370000D02*
X126230000Y-129370000D01*
X127530000Y-126760000D02*
X127530000Y-128570000D01*
X127530000Y-128570000D02*
X125530000Y-128570000D01*
X128530000Y-121460000D02*
X129270000Y-121460000D01*
X129270000Y-121460000D02*
X129270000Y-126760000D01*
X129270000Y-126760000D02*
X118710000Y-126760000D01*
X130180000Y-119750000D02*
X117800000Y-119750000D01*
X130180000Y-127760000D02*
X127640000Y-127760000D01*
X130180000Y-128570000D02*
X130180000Y-119750000D01*
X119463158Y-121444179D02*
G75*
G02*
X123450000Y-121460000I1986842J-1665821D01*
G01*
X124543158Y-121444179D02*
G75*
G02*
X128530000Y-121460000I1986842J-1665821D01*
G01*
D13*
%TO.C,U104*%
X153992000Y-72270000D02*
X153992000Y-68370000D01*
X159012000Y-72270000D02*
X159012000Y-68370000D01*
D14*
X154127000Y-74750000D02*
G75*
G02*
X153927000Y-74750000I-100000J0D01*
G01*
X153927000Y-74750000D02*
G75*
G02*
X154127000Y-74750000I100000J0D01*
G01*
%TD*%
M02*
