%TF.GenerationSoftware,KiCad,Pcbnew,9.0.3*%
%TF.CreationDate,2025-10-28T10:39:51+01:00*%
%TF.ProjectId,DC_Motor,44435f4d-6f74-46f7-922e-6b696361645f,R.Casas*%
%TF.SameCoordinates,Original*%
%TF.FileFunction,Copper,L2,Bot*%
%TF.FilePolarity,Positive*%
%FSLAX46Y46*%
G04 Gerber Fmt 4.6, Leading zero omitted, Abs format (unit mm)*
G04 Created by KiCad (PCBNEW 9.0.3) date 2025-10-28 10:39:51*
%MOMM*%
%LPD*%
G01*
G04 APERTURE LIST*
G04 Aperture macros list*
%AMRoundRect*
0 Rectangle with rounded corners*
0 $1 Rounding radius*
0 $2 $3 $4 $5 $6 $7 $8 $9 X,Y pos of 4 corners*
0 Add a 4 corners polygon primitive as box body*
4,1,4,$2,$3,$4,$5,$6,$7,$8,$9,$2,$3,0*
0 Add four circle primitives for the rounded corners*
1,1,$1+$1,$2,$3*
1,1,$1+$1,$4,$5*
1,1,$1+$1,$6,$7*
1,1,$1+$1,$8,$9*
0 Add four rect primitives between the rounded corners*
20,1,$1+$1,$2,$3,$4,$5,0*
20,1,$1+$1,$4,$5,$6,$7,0*
20,1,$1+$1,$6,$7,$8,$9,0*
20,1,$1+$1,$8,$9,$2,$3,0*%
G04 Aperture macros list end*
%TA.AperFunction,ComponentPad*%
%ADD10RoundRect,0.249999X1.550001X-0.790001X1.550001X0.790001X-1.550001X0.790001X-1.550001X-0.790001X0*%
%TD*%
%TA.AperFunction,ComponentPad*%
%ADD11O,3.600000X2.080000*%
%TD*%
%TA.AperFunction,ComponentPad*%
%ADD12RoundRect,0.250000X-0.620000X-0.845000X0.620000X-0.845000X0.620000X0.845000X-0.620000X0.845000X0*%
%TD*%
%TA.AperFunction,ComponentPad*%
%ADD13O,1.740000X2.190000*%
%TD*%
%TA.AperFunction,ComponentPad*%
%ADD14R,2.000000X1.905000*%
%TD*%
%TA.AperFunction,ComponentPad*%
%ADD15O,2.000000X1.905000*%
%TD*%
%TA.AperFunction,ComponentPad*%
%ADD16O,3.250000X6.000000*%
%TD*%
%TA.AperFunction,ComponentPad*%
%ADD17C,2.340000*%
%TD*%
%TA.AperFunction,ComponentPad*%
%ADD18RoundRect,0.249999X0.790001X1.550001X-0.790001X1.550001X-0.790001X-1.550001X0.790001X-1.550001X0*%
%TD*%
%TA.AperFunction,ComponentPad*%
%ADD19O,2.080000X3.600000*%
%TD*%
%TA.AperFunction,ViaPad*%
%ADD20C,0.600000*%
%TD*%
%TA.AperFunction,ViaPad*%
%ADD21C,0.800000*%
%TD*%
%TA.AperFunction,Conductor*%
%ADD22C,2.000000*%
%TD*%
%TA.AperFunction,Conductor*%
%ADD23C,1.000000*%
%TD*%
%TA.AperFunction,Conductor*%
%ADD24C,0.500000*%
%TD*%
G04 APERTURE END LIST*
D10*
%TO.P,J101,1,Pin_1*%
%TO.N,L1*%
X90970000Y-96990000D03*
D11*
%TO.P,J101,2,Pin_2*%
%TO.N,L2*%
X90970000Y-91910000D03*
%TD*%
D12*
%TO.P,J102,1,Pin_1*%
%TO.N,GNDREF*%
X139230000Y-123660000D03*
D13*
%TO.P,J102,2,Pin_2*%
%TO.N,SYS_SWCLK*%
X141770000Y-123660000D03*
%TO.P,J102,3,Pin_3*%
%TO.N,SYS_SWDIO*%
X144310000Y-123660000D03*
%TO.P,J102,4,Pin_4*%
%TO.N,+3V3*%
X146850000Y-123660000D03*
%TD*%
D14*
%TO.P,U102,1,ADJ*%
%TO.N,Net-(D103-A)*%
X108750000Y-113500000D03*
D15*
%TO.P,U102,2,VO*%
%TO.N,+3V3*%
X108750000Y-110960000D03*
%TO.P,U102,3,VI*%
%TO.N,+24V*%
X108750000Y-108420000D03*
%TD*%
D16*
%TO.P,F101,1*%
%TO.N,VDD*%
X90000000Y-76670000D03*
%TO.P,F101,2*%
%TO.N,VDD_P*%
X127500000Y-76670000D03*
%TD*%
D14*
%TO.P,Q104,1,G*%
%TO.N,G3*%
X150960000Y-61430000D03*
D15*
%TO.P,Q104,2,D*%
%TO.N,L1*%
X150960000Y-58890000D03*
%TO.P,Q104,3,S*%
%TO.N,GNDREF*%
X150960000Y-56350000D03*
%TD*%
D14*
%TO.P,Q102,1,G*%
%TO.N,G4*%
X168740000Y-56350000D03*
D15*
%TO.P,Q102,2,D*%
%TO.N,L2*%
X168740000Y-58890000D03*
%TO.P,Q102,3,S*%
%TO.N,GNDREF*%
X168740000Y-61430000D03*
%TD*%
D14*
%TO.P,Q101,1,G*%
%TO.N,G2*%
X168740000Y-79210000D03*
D15*
%TO.P,Q101,2,D*%
%TO.N,VDD_P*%
X168740000Y-81750000D03*
%TO.P,Q101,3,S*%
%TO.N,L2*%
X168740000Y-84290000D03*
%TD*%
D17*
%TO.P,RV101,1,1*%
%TO.N,Net-(D103-A)*%
X93620000Y-115960000D03*
%TO.P,RV101,2,2*%
%TO.N,GNDREF*%
X91120000Y-105960000D03*
%TO.P,RV101,3,3*%
X88620000Y-115960000D03*
%TD*%
D14*
%TO.P,Q103,1,G*%
%TO.N,G1*%
X150960000Y-84290000D03*
D15*
%TO.P,Q103,2,D*%
%TO.N,VDD_P*%
X150960000Y-81750000D03*
%TO.P,Q103,3,S*%
%TO.N,L1*%
X150960000Y-79210000D03*
%TD*%
D10*
%TO.P,J103,1,Pin_1*%
%TO.N,VDD*%
X90000000Y-58890000D03*
D11*
%TO.P,J103,2,Pin_2*%
%TO.N,GNDREF*%
X90000000Y-53810000D03*
%TD*%
D18*
%TO.P,J104,1,Pin_1*%
%TO.N,USART1_RX*%
X126530000Y-123660000D03*
D19*
%TO.P,J104,2,Pin_2*%
%TO.N,USART1_TX*%
X121450000Y-123660000D03*
%TD*%
D20*
%TO.N,GNDREF*%
X166662000Y-71336000D03*
X142786000Y-117564000D03*
X158534000Y-71336000D03*
X118910000Y-116548000D03*
X155994000Y-76924000D03*
X127800000Y-114770000D03*
X162090000Y-76924000D03*
X145326000Y-117559475D03*
X137960000Y-111717475D03*
X153962000Y-76924000D03*
X149898000Y-105875475D03*
X164122000Y-76924000D03*
X123990000Y-104356000D03*
X125006000Y-104356000D03*
X133896000Y-112225475D03*
X122974000Y-104356000D03*
D21*
%TO.N,+24V*%
X161582000Y-75400000D03*
X123482000Y-96736000D03*
X151930000Y-75400000D03*
D20*
%TO.N,Net-(U101-NRST)*%
X143294000Y-111209475D03*
X147612000Y-113495475D03*
D21*
%TO.N,VDD_P*%
X116370000Y-98260000D03*
D20*
%TO.N,L2*%
X168186000Y-69304000D03*
X160566000Y-69304000D03*
%TO.N,SYS_SWCLK*%
X140754000Y-106642000D03*
%TO.N,SYS_SWDIO*%
X141770000Y-106692800D03*
%TO.N,Net-(U103-HO)*%
X155486000Y-83528000D03*
X157518000Y-79464000D03*
%TO.N,Net-(U103-LO)*%
X166662000Y-59144000D03*
X166662000Y-65748000D03*
%TO.N,Net-(U104-HO)*%
X166662000Y-76924000D03*
X157010000Y-70320000D03*
%TO.N,LIN1*%
X165646000Y-75400000D03*
X163106000Y-98768000D03*
%TO.N,LIN2*%
X148374000Y-99022000D03*
X158026000Y-76924000D03*
%TO.N,HIN1*%
X162344000Y-98260000D03*
X164630000Y-75400000D03*
%TO.N,HIN2*%
X157010000Y-76924000D03*
X148120000Y-97752000D03*
%TD*%
D22*
%TO.N,GNDREF*%
X88620000Y-108460000D02*
X91120000Y-105960000D01*
X88620000Y-115960000D02*
X88620000Y-108460000D01*
D23*
%TO.N,+24V*%
X151930000Y-75400000D02*
X161582000Y-75400000D01*
X144818000Y-75400000D02*
X151930000Y-75400000D01*
X123482000Y-96736000D02*
X144818000Y-75400000D01*
D24*
%TO.N,Net-(U101-NRST)*%
X147612000Y-113241475D02*
X145580000Y-111209475D01*
X147612000Y-113495475D02*
X147612000Y-113241475D01*
X145580000Y-111209475D02*
X143294000Y-111209475D01*
D22*
%TO.N,VDD_P*%
X127500000Y-87130000D02*
X127500000Y-76670000D01*
X116370000Y-98260000D02*
X127500000Y-87130000D01*
D24*
%TO.N,L2*%
X160566000Y-69304000D02*
X168186000Y-69304000D01*
%TO.N,SYS_SWCLK*%
X140754000Y-122644000D02*
X140754000Y-106642000D01*
X141770000Y-123660000D02*
X140754000Y-122644000D01*
%TO.N,SYS_SWDIO*%
X141770000Y-106743600D02*
X141770000Y-106692800D01*
X141770000Y-121120000D02*
X141770000Y-106743600D01*
X144310000Y-123660000D02*
X141770000Y-121120000D01*
%TO.N,Net-(U103-HO)*%
X157518000Y-79464000D02*
X157518000Y-81496000D01*
X157518000Y-81496000D02*
X155486000Y-83528000D01*
%TO.N,Net-(U103-LO)*%
X166662000Y-65748000D02*
X166662000Y-59144000D01*
%TO.N,Net-(U104-HO)*%
X164630000Y-72860000D02*
X166662000Y-74892000D01*
X166662000Y-76924000D02*
X166662000Y-74892000D01*
X157518000Y-72860000D02*
X164630000Y-72860000D01*
X157010000Y-72352000D02*
X157518000Y-72860000D01*
X157010000Y-70320000D02*
X157010000Y-72352000D01*
%TO.N,LIN1*%
X165646000Y-96228000D02*
X163106000Y-98768000D01*
X165646000Y-75400000D02*
X165646000Y-96228000D01*
%TO.N,LIN2*%
X148374000Y-99022000D02*
X154216000Y-93180000D01*
X154216000Y-81220000D02*
X158026000Y-77410000D01*
X158026000Y-77410000D02*
X158026000Y-76924000D01*
X154216000Y-93180000D02*
X154216000Y-81220000D01*
%TO.N,HIN1*%
X164873000Y-95731000D02*
X162344000Y-98260000D01*
X164873000Y-75643000D02*
X164873000Y-95731000D01*
X164630000Y-75400000D02*
X164873000Y-75643000D01*
%TO.N,HIN2*%
X157010000Y-77178000D02*
X153200000Y-80988000D01*
X153200000Y-80988000D02*
X153200000Y-92672000D01*
X157010000Y-76924000D02*
X157010000Y-77178000D01*
X153200000Y-92672000D02*
X148120000Y-97752000D01*
%TD*%
%TA.AperFunction,Conductor*%
%TO.N,GNDREF*%
G36*
X95993039Y-47479685D02*
G01*
X96038794Y-47532489D01*
X96050000Y-47584000D01*
X96050000Y-52540000D01*
X113830000Y-65240000D01*
X165787500Y-65240000D01*
X165796185Y-65242550D01*
X165805147Y-65241262D01*
X165829187Y-65252240D01*
X165854539Y-65259685D01*
X165860466Y-65266525D01*
X165868703Y-65270287D01*
X165882992Y-65292521D01*
X165900294Y-65312489D01*
X165902581Y-65323003D01*
X165906477Y-65329065D01*
X165911500Y-65364000D01*
X165911500Y-65443396D01*
X165902062Y-65490844D01*
X165892263Y-65514503D01*
X165892262Y-65514506D01*
X165892260Y-65514511D01*
X165861500Y-65669153D01*
X165861500Y-65826846D01*
X165892261Y-65981489D01*
X165892264Y-65981501D01*
X165952602Y-66127172D01*
X165952609Y-66127185D01*
X166040210Y-66258288D01*
X166040213Y-66258292D01*
X166151707Y-66369786D01*
X166151711Y-66369789D01*
X166282814Y-66457390D01*
X166282827Y-66457397D01*
X166428498Y-66517735D01*
X166428503Y-66517737D01*
X166583153Y-66548499D01*
X166583156Y-66548500D01*
X166583158Y-66548500D01*
X166740844Y-66548500D01*
X166740845Y-66548499D01*
X166895497Y-66517737D01*
X167041179Y-66457394D01*
X167172289Y-66369789D01*
X167283789Y-66258289D01*
X167371394Y-66127179D01*
X167431737Y-65981497D01*
X167462500Y-65826842D01*
X167462500Y-65669158D01*
X167462500Y-65669155D01*
X167462499Y-65669153D01*
X167431739Y-65514511D01*
X167431738Y-65514508D01*
X167431737Y-65514503D01*
X167421937Y-65490844D01*
X167420311Y-65482670D01*
X167417523Y-65478331D01*
X167412500Y-65443396D01*
X167412500Y-65364000D01*
X167432185Y-65296961D01*
X167484989Y-65251206D01*
X167536500Y-65240000D01*
X181785500Y-65240000D01*
X181852539Y-65259685D01*
X181898294Y-65312489D01*
X181909500Y-65364000D01*
X181909500Y-133195500D01*
X181889815Y-133262539D01*
X181837011Y-133308294D01*
X181785500Y-133319500D01*
X81434500Y-133319500D01*
X81367461Y-133299815D01*
X81321706Y-133247011D01*
X81310500Y-133195500D01*
X81310500Y-123497106D01*
X88069500Y-123497106D01*
X88069500Y-123822893D01*
X88105974Y-124146604D01*
X88105976Y-124146620D01*
X88178467Y-124464226D01*
X88178471Y-124464238D01*
X88286066Y-124771725D01*
X88427413Y-125065234D01*
X88427415Y-125065237D01*
X88600739Y-125341081D01*
X88803857Y-125595783D01*
X89034217Y-125826143D01*
X89288919Y-126029261D01*
X89564763Y-126202585D01*
X89858278Y-126343935D01*
X90089217Y-126424744D01*
X90165761Y-126451528D01*
X90165773Y-126451532D01*
X90483383Y-126524024D01*
X90807106Y-126560499D01*
X90807107Y-126560500D01*
X90807111Y-126560500D01*
X91132893Y-126560500D01*
X91132893Y-126560499D01*
X91456617Y-126524024D01*
X91774227Y-126451532D01*
X92081722Y-126343935D01*
X92375237Y-126202585D01*
X92651081Y-126029261D01*
X92905783Y-125826143D01*
X93136143Y-125595783D01*
X93339261Y-125341081D01*
X93512585Y-125065237D01*
X93653935Y-124771722D01*
X93761532Y-124464227D01*
X93834024Y-124146617D01*
X93870500Y-123822889D01*
X93870500Y-123497111D01*
X93834024Y-123173383D01*
X93761532Y-122855773D01*
X93734582Y-122778754D01*
X119909500Y-122778754D01*
X119909500Y-124541245D01*
X119947432Y-124780736D01*
X120022360Y-125011344D01*
X120022362Y-125011347D01*
X120129570Y-125221754D01*
X120132448Y-125227401D01*
X120274966Y-125423562D01*
X120274970Y-125423567D01*
X120446432Y-125595029D01*
X120446437Y-125595033D01*
X120561537Y-125678657D01*
X120642602Y-125737554D01*
X120816467Y-125826143D01*
X120858655Y-125847639D01*
X120973959Y-125885103D01*
X121089265Y-125922568D01*
X121200186Y-125940136D01*
X121328755Y-125960500D01*
X121328760Y-125960500D01*
X121571245Y-125960500D01*
X121687347Y-125942110D01*
X121810735Y-125922568D01*
X122041347Y-125847638D01*
X122257398Y-125737554D01*
X122453569Y-125595028D01*
X122625028Y-125423569D01*
X122767554Y-125227398D01*
X122877638Y-125011347D01*
X122952568Y-124780735D01*
X122972110Y-124657347D01*
X122990500Y-124541245D01*
X122990500Y-122778754D01*
X122968432Y-122639431D01*
X122952568Y-122539265D01*
X122903953Y-122389643D01*
X122877639Y-122308655D01*
X122877638Y-122308653D01*
X122767554Y-122092602D01*
X122767553Y-122092600D01*
X122743855Y-122059982D01*
X124989500Y-122059982D01*
X124989500Y-125260017D01*
X125000000Y-125362796D01*
X125055185Y-125529332D01*
X125055186Y-125529335D01*
X125147288Y-125678656D01*
X125271344Y-125802712D01*
X125420665Y-125894814D01*
X125587202Y-125949999D01*
X125689990Y-125960500D01*
X125689995Y-125960500D01*
X127370005Y-125960500D01*
X127370010Y-125960500D01*
X127472798Y-125949999D01*
X127639335Y-125894814D01*
X127788656Y-125802712D01*
X127912712Y-125678656D01*
X128004814Y-125529335D01*
X128059999Y-125362798D01*
X128070500Y-125260010D01*
X128070500Y-122765013D01*
X137860000Y-122765013D01*
X137860000Y-123410000D01*
X138687291Y-123410000D01*
X138675548Y-123430339D01*
X138635000Y-123581667D01*
X138635000Y-123738333D01*
X138675548Y-123889661D01*
X138687291Y-123910000D01*
X137860001Y-123910000D01*
X137860001Y-124554986D01*
X137870494Y-124657697D01*
X137925641Y-124824119D01*
X137925643Y-124824124D01*
X138017684Y-124973345D01*
X138141654Y-125097315D01*
X138290875Y-125189356D01*
X138290880Y-125189358D01*
X138457302Y-125244505D01*
X138457309Y-125244506D01*
X138560019Y-125254999D01*
X138979999Y-125254999D01*
X138980000Y-125254998D01*
X138980000Y-124202709D01*
X139000339Y-124214452D01*
X139151667Y-124255000D01*
X139308333Y-124255000D01*
X139459661Y-124214452D01*
X139480000Y-124202709D01*
X139480000Y-125254999D01*
X139899972Y-125254999D01*
X139899986Y-125254998D01*
X140002697Y-125244505D01*
X140169119Y-125189358D01*
X140169124Y-125189356D01*
X140318345Y-125097315D01*
X140442315Y-124973345D01*
X140534354Y-124824127D01*
X140534745Y-124823289D01*
X140535167Y-124822809D01*
X140538149Y-124817975D01*
X140538974Y-124818484D01*
X140580910Y-124770843D01*
X140648100Y-124751681D01*
X140714984Y-124771887D01*
X140734816Y-124787996D01*
X140877179Y-124930359D01*
X141051701Y-125057157D01*
X141243911Y-125155092D01*
X141449074Y-125221754D01*
X141528973Y-125234408D01*
X141662134Y-125255500D01*
X141662139Y-125255500D01*
X141877866Y-125255500D01*
X141996230Y-125236752D01*
X142090926Y-125221754D01*
X142296089Y-125155092D01*
X142488299Y-125057157D01*
X142662821Y-124930359D01*
X142815359Y-124777821D01*
X142939682Y-124606704D01*
X142995012Y-124564040D01*
X143064626Y-124558061D01*
X143126420Y-124590667D01*
X143140315Y-124606702D01*
X143264641Y-124777821D01*
X143417179Y-124930359D01*
X143591701Y-125057157D01*
X143783911Y-125155092D01*
X143989074Y-125221754D01*
X144068973Y-125234408D01*
X144202134Y-125255500D01*
X144202139Y-125255500D01*
X144417866Y-125255500D01*
X144536230Y-125236752D01*
X144630926Y-125221754D01*
X144836089Y-125155092D01*
X145028299Y-125057157D01*
X145202821Y-124930359D01*
X145355359Y-124777821D01*
X145479682Y-124606704D01*
X145535012Y-124564040D01*
X145604626Y-124558061D01*
X145666420Y-124590667D01*
X145680315Y-124606702D01*
X145804641Y-124777821D01*
X145957179Y-124930359D01*
X146131701Y-125057157D01*
X146323911Y-125155092D01*
X146529074Y-125221754D01*
X146608973Y-125234408D01*
X146742134Y-125255500D01*
X146742139Y-125255500D01*
X146957866Y-125255500D01*
X147076230Y-125236752D01*
X147170926Y-125221754D01*
X147376089Y-125155092D01*
X147568299Y-125057157D01*
X147742821Y-124930359D01*
X147895359Y-124777821D01*
X148022157Y-124603299D01*
X148120092Y-124411089D01*
X148186754Y-124205926D01*
X148201752Y-124111230D01*
X148220500Y-123992866D01*
X148220500Y-123497106D01*
X169349500Y-123497106D01*
X169349500Y-123822893D01*
X169385974Y-124146604D01*
X169385976Y-124146620D01*
X169458467Y-124464226D01*
X169458471Y-124464238D01*
X169566066Y-124771725D01*
X169707413Y-125065234D01*
X169707415Y-125065237D01*
X169880739Y-125341081D01*
X170083857Y-125595783D01*
X170314217Y-125826143D01*
X170568919Y-126029261D01*
X170844763Y-126202585D01*
X171138278Y-126343935D01*
X171369217Y-126424744D01*
X171445761Y-126451528D01*
X171445773Y-126451532D01*
X171763383Y-126524024D01*
X172087106Y-126560499D01*
X172087107Y-126560500D01*
X172087111Y-126560500D01*
X172412893Y-126560500D01*
X172412893Y-126560499D01*
X172736617Y-126524024D01*
X173054227Y-126451532D01*
X173361722Y-126343935D01*
X173655237Y-126202585D01*
X173931081Y-126029261D01*
X174185783Y-125826143D01*
X174416143Y-125595783D01*
X174619261Y-125341081D01*
X174792585Y-125065237D01*
X174933935Y-124771722D01*
X175041532Y-124464227D01*
X175114024Y-124146617D01*
X175150500Y-123822889D01*
X175150500Y-123497111D01*
X175114024Y-123173383D01*
X175041532Y-122855773D01*
X174933935Y-122548278D01*
X174792585Y-122254763D01*
X174619261Y-121978919D01*
X174416143Y-121724217D01*
X174185783Y-121493857D01*
X173931081Y-121290739D01*
X173655237Y-121117415D01*
X173655234Y-121117413D01*
X173361725Y-120976066D01*
X173054238Y-120868471D01*
X173054226Y-120868467D01*
X172736620Y-120795976D01*
X172736604Y-120795974D01*
X172412893Y-120759500D01*
X172412889Y-120759500D01*
X172087111Y-120759500D01*
X172087107Y-120759500D01*
X171763395Y-120795974D01*
X171763379Y-120795976D01*
X171445773Y-120868467D01*
X171445761Y-120868471D01*
X171138274Y-120976066D01*
X170844765Y-121117413D01*
X170568920Y-121290738D01*
X170314217Y-121493856D01*
X170083856Y-121724217D01*
X169880738Y-121978920D01*
X169707413Y-122254765D01*
X169566066Y-122548274D01*
X169458471Y-122855761D01*
X169458467Y-122855773D01*
X169385976Y-123173379D01*
X169385974Y-123173395D01*
X169349500Y-123497106D01*
X148220500Y-123497106D01*
X148220500Y-123327133D01*
X148196149Y-123173395D01*
X148186754Y-123114074D01*
X148120092Y-122908911D01*
X148022157Y-122716701D01*
X147895359Y-122542179D01*
X147742821Y-122389641D01*
X147568299Y-122262843D01*
X147376089Y-122164908D01*
X147170926Y-122098246D01*
X147170924Y-122098245D01*
X147170922Y-122098245D01*
X146957866Y-122064500D01*
X146957861Y-122064500D01*
X146742139Y-122064500D01*
X146742134Y-122064500D01*
X146529077Y-122098245D01*
X146323908Y-122164909D01*
X146131700Y-122262843D01*
X146068649Y-122308653D01*
X145957179Y-122389641D01*
X145957177Y-122389643D01*
X145957176Y-122389643D01*
X145804643Y-122542176D01*
X145804643Y-122542177D01*
X145804641Y-122542179D01*
X145800213Y-122548274D01*
X145680318Y-122713294D01*
X145624988Y-122755959D01*
X145555374Y-122761938D01*
X145493579Y-122729332D01*
X145479682Y-122713294D01*
X145442639Y-122662309D01*
X145355359Y-122542179D01*
X145202821Y-122389641D01*
X145028299Y-122262843D01*
X144836089Y-122164908D01*
X144630926Y-122098246D01*
X144630924Y-122098245D01*
X144630922Y-122098245D01*
X144417866Y-122064500D01*
X144417861Y-122064500D01*
X144202139Y-122064500D01*
X144202134Y-122064500D01*
X143989074Y-122098245D01*
X143925889Y-122118775D01*
X143856048Y-122120769D01*
X143799892Y-122088524D01*
X142556819Y-120845451D01*
X142523334Y-120784128D01*
X142520500Y-120757770D01*
X142520500Y-111867416D01*
X142540185Y-111800377D01*
X142592989Y-111754622D01*
X142662147Y-111744678D01*
X142725703Y-111773703D01*
X142732181Y-111779735D01*
X142783707Y-111831261D01*
X142783711Y-111831264D01*
X142914814Y-111918865D01*
X142914827Y-111918872D01*
X143014060Y-111959975D01*
X143060503Y-111979212D01*
X143215153Y-112009974D01*
X143215156Y-112009975D01*
X143215158Y-112009975D01*
X143372844Y-112009975D01*
X143372845Y-112009974D01*
X143449152Y-111994795D01*
X143527488Y-111979214D01*
X143527489Y-111979213D01*
X143527497Y-111979212D01*
X143551155Y-111969412D01*
X143598604Y-111959975D01*
X145217770Y-111959975D01*
X145284809Y-111979660D01*
X145305451Y-111996294D01*
X146775181Y-113466024D01*
X146808666Y-113527347D01*
X146811500Y-113553705D01*
X146811500Y-113574321D01*
X146842261Y-113728964D01*
X146842264Y-113728976D01*
X146902602Y-113874647D01*
X146902609Y-113874660D01*
X146990210Y-114005763D01*
X146990213Y-114005767D01*
X147101707Y-114117261D01*
X147101711Y-114117264D01*
X147232814Y-114204865D01*
X147232827Y-114204872D01*
X147378498Y-114265210D01*
X147378503Y-114265212D01*
X147503120Y-114290000D01*
X147533153Y-114295974D01*
X147533156Y-114295975D01*
X147533158Y-114295975D01*
X147690844Y-114295975D01*
X147690845Y-114295974D01*
X147845497Y-114265212D01*
X147991179Y-114204869D01*
X148122289Y-114117264D01*
X148233789Y-114005764D01*
X148321394Y-113874654D01*
X148381737Y-113728972D01*
X148412500Y-113574317D01*
X148412500Y-113416633D01*
X148412500Y-113416630D01*
X148412499Y-113416628D01*
X148381739Y-113261986D01*
X148381738Y-113261983D01*
X148381737Y-113261978D01*
X148371937Y-113238319D01*
X148362500Y-113190871D01*
X148362500Y-113167554D01*
X148333659Y-113022567D01*
X148333658Y-113022566D01*
X148333658Y-113022562D01*
X148277084Y-112885980D01*
X148210334Y-112786081D01*
X148194952Y-112763059D01*
X147151657Y-111719764D01*
X146058421Y-110626527D01*
X146058414Y-110626521D01*
X145984729Y-110577287D01*
X145984729Y-110577288D01*
X145935491Y-110544388D01*
X145798917Y-110487818D01*
X145798907Y-110487815D01*
X145653920Y-110458975D01*
X145653918Y-110458975D01*
X143598604Y-110458975D01*
X143551155Y-110449537D01*
X143527497Y-110439738D01*
X143527493Y-110439737D01*
X143527488Y-110439735D01*
X143372845Y-110408975D01*
X143372842Y-110408975D01*
X143215158Y-110408975D01*
X143215155Y-110408975D01*
X143060510Y-110439736D01*
X143060498Y-110439739D01*
X142914827Y-110500077D01*
X142914814Y-110500084D01*
X142783711Y-110587685D01*
X142783707Y-110587688D01*
X142732181Y-110639215D01*
X142670858Y-110672700D01*
X142601166Y-110667716D01*
X142545233Y-110625844D01*
X142520816Y-110560380D01*
X142520500Y-110551534D01*
X142520500Y-106997404D01*
X142529939Y-106949951D01*
X142539737Y-106926297D01*
X142570500Y-106771642D01*
X142570500Y-106613958D01*
X142570500Y-106613955D01*
X142570499Y-106613953D01*
X142554997Y-106536022D01*
X142539737Y-106459303D01*
X142504549Y-106374351D01*
X142479397Y-106313627D01*
X142479390Y-106313614D01*
X142391789Y-106182511D01*
X142391786Y-106182507D01*
X142280292Y-106071013D01*
X142280288Y-106071010D01*
X142149185Y-105983409D01*
X142149172Y-105983402D01*
X142003501Y-105923064D01*
X142003489Y-105923061D01*
X141848845Y-105892300D01*
X141848842Y-105892300D01*
X141691158Y-105892300D01*
X141691155Y-105892300D01*
X141536510Y-105923061D01*
X141536498Y-105923064D01*
X141390828Y-105983402D01*
X141390816Y-105983409D01*
X141368900Y-105998052D01*
X141302222Y-106018927D01*
X141234842Y-106000440D01*
X141231122Y-105998049D01*
X141133185Y-105932609D01*
X141133172Y-105932602D01*
X140987501Y-105872264D01*
X140987489Y-105872261D01*
X140832845Y-105841500D01*
X140832842Y-105841500D01*
X140675158Y-105841500D01*
X140675155Y-105841500D01*
X140520510Y-105872261D01*
X140520498Y-105872264D01*
X140374827Y-105932602D01*
X140374814Y-105932609D01*
X140243711Y-106020210D01*
X140243707Y-106020213D01*
X140132213Y-106131707D01*
X140132210Y-106131711D01*
X140044609Y-106262814D01*
X140044602Y-106262827D01*
X139984264Y-106408498D01*
X139984261Y-106408510D01*
X139953500Y-106563153D01*
X139953500Y-106720846D01*
X139984261Y-106875489D01*
X139984263Y-106875497D01*
X139994061Y-106899151D01*
X140003500Y-106946604D01*
X140003500Y-121941000D01*
X139983815Y-122008039D01*
X139931011Y-122053794D01*
X139879500Y-122065000D01*
X139480000Y-122065000D01*
X139480000Y-123117290D01*
X139459661Y-123105548D01*
X139308333Y-123065000D01*
X139151667Y-123065000D01*
X139000339Y-123105548D01*
X138980000Y-123117290D01*
X138980000Y-122065000D01*
X138560028Y-122065000D01*
X138560012Y-122065001D01*
X138457302Y-122075494D01*
X138290880Y-122130641D01*
X138290875Y-122130643D01*
X138141654Y-122222684D01*
X138017684Y-122346654D01*
X137925643Y-122495875D01*
X137925641Y-122495880D01*
X137870494Y-122662302D01*
X137870493Y-122662309D01*
X137860000Y-122765013D01*
X128070500Y-122765013D01*
X128070500Y-122059990D01*
X128059999Y-121957202D01*
X128004814Y-121790665D01*
X127912712Y-121641344D01*
X127788656Y-121517288D01*
X127639335Y-121425186D01*
X127472798Y-121370001D01*
X127472796Y-121370000D01*
X127370017Y-121359500D01*
X127370010Y-121359500D01*
X125689990Y-121359500D01*
X125689982Y-121359500D01*
X125587203Y-121370000D01*
X125587202Y-121370001D01*
X125504669Y-121397349D01*
X125420667Y-121425185D01*
X125420662Y-121425187D01*
X125271342Y-121517289D01*
X125147289Y-121641342D01*
X125055187Y-121790662D01*
X125055186Y-121790665D01*
X125000001Y-121957202D01*
X125000001Y-121957203D01*
X125000000Y-121957203D01*
X124989500Y-122059982D01*
X122743855Y-122059982D01*
X122625033Y-121896437D01*
X122625029Y-121896432D01*
X122453567Y-121724970D01*
X122453562Y-121724966D01*
X122257401Y-121582448D01*
X122257400Y-121582447D01*
X122257398Y-121582446D01*
X122129519Y-121517288D01*
X122041344Y-121472360D01*
X121810736Y-121397432D01*
X121571245Y-121359500D01*
X121571240Y-121359500D01*
X121328760Y-121359500D01*
X121328755Y-121359500D01*
X121089263Y-121397432D01*
X120858655Y-121472360D01*
X120642598Y-121582448D01*
X120446437Y-121724966D01*
X120446432Y-121724970D01*
X120274970Y-121896432D01*
X120274966Y-121896437D01*
X120132448Y-122092598D01*
X120022360Y-122308655D01*
X119947432Y-122539263D01*
X119909500Y-122778754D01*
X93734582Y-122778754D01*
X93717288Y-122729332D01*
X93693836Y-122662309D01*
X93653935Y-122548278D01*
X93512585Y-122254763D01*
X93339261Y-121978919D01*
X93136143Y-121724217D01*
X92905783Y-121493857D01*
X92651081Y-121290739D01*
X92375237Y-121117415D01*
X92375234Y-121117413D01*
X92081725Y-120976066D01*
X91774238Y-120868471D01*
X91774226Y-120868467D01*
X91456620Y-120795976D01*
X91456604Y-120795974D01*
X91132893Y-120759500D01*
X91132889Y-120759500D01*
X90807111Y-120759500D01*
X90807107Y-120759500D01*
X90483395Y-120795974D01*
X90483379Y-120795976D01*
X90165773Y-120868467D01*
X90165761Y-120868471D01*
X89858274Y-120976066D01*
X89564765Y-121117413D01*
X89288920Y-121290738D01*
X89034217Y-121493856D01*
X88803856Y-121724217D01*
X88600738Y-121978920D01*
X88427413Y-122254765D01*
X88286066Y-122548274D01*
X88178471Y-122855761D01*
X88178467Y-122855773D01*
X88105976Y-123173379D01*
X88105974Y-123173395D01*
X88069500Y-123497106D01*
X81310500Y-123497106D01*
X81310500Y-115850548D01*
X86950000Y-115850548D01*
X86950000Y-116069451D01*
X86950001Y-116069467D01*
X86978573Y-116286496D01*
X87035234Y-116497956D01*
X87119004Y-116700198D01*
X87119012Y-116700214D01*
X87228460Y-116889782D01*
X87228466Y-116889790D01*
X87275438Y-116951007D01*
X88018958Y-116207487D01*
X88043978Y-116267890D01*
X88115112Y-116374351D01*
X88205649Y-116464888D01*
X88312110Y-116536022D01*
X88372511Y-116561041D01*
X87628991Y-117304560D01*
X87628991Y-117304561D01*
X87690200Y-117351527D01*
X87690208Y-117351532D01*
X87879792Y-117460990D01*
X87879801Y-117460995D01*
X88082043Y-117544765D01*
X88293503Y-117601426D01*
X88510532Y-117629998D01*
X88510549Y-117630000D01*
X88729451Y-117630000D01*
X88729467Y-117629998D01*
X88946496Y-117601426D01*
X89157956Y-117544765D01*
X89360198Y-117460995D01*
X89360214Y-117460987D01*
X89549785Y-117351537D01*
X89549793Y-117351531D01*
X89611007Y-117304560D01*
X88867488Y-116561041D01*
X88927890Y-116536022D01*
X89034351Y-116464888D01*
X89124888Y-116374351D01*
X89196022Y-116267890D01*
X89221041Y-116207488D01*
X89964560Y-116951007D01*
X90011531Y-116889793D01*
X90011537Y-116889785D01*
X90120987Y-116700214D01*
X90120995Y-116700198D01*
X90204765Y-116497956D01*
X90261426Y-116286496D01*
X90289998Y-116069467D01*
X90290000Y-116069451D01*
X90290000Y-115850540D01*
X90289995Y-115850502D01*
X91949500Y-115850502D01*
X91949500Y-116069497D01*
X91960046Y-116149598D01*
X91978083Y-116286598D01*
X91978084Y-116286600D01*
X92034715Y-116497956D01*
X92034759Y-116498117D01*
X92118560Y-116700428D01*
X92118562Y-116700433D01*
X92118565Y-116700438D01*
X92228049Y-116890070D01*
X92361355Y-117063798D01*
X92361361Y-117063805D01*
X92516194Y-117218638D01*
X92516201Y-117218644D01*
X92689929Y-117351950D01*
X92879561Y-117461434D01*
X92879563Y-117461434D01*
X92879572Y-117461440D01*
X93081883Y-117545241D01*
X93293402Y-117601917D01*
X93510510Y-117630500D01*
X93510517Y-117630500D01*
X93729483Y-117630500D01*
X93729490Y-117630500D01*
X93946598Y-117601917D01*
X94158117Y-117545241D01*
X94360428Y-117461440D01*
X94550071Y-117351950D01*
X94723800Y-117218643D01*
X94878643Y-117063800D01*
X95011950Y-116890071D01*
X95121440Y-116700428D01*
X95205241Y-116498117D01*
X95261917Y-116286598D01*
X95290500Y-116069490D01*
X95290500Y-115850510D01*
X95261917Y-115633402D01*
X95205241Y-115421883D01*
X95121440Y-115219572D01*
X95011950Y-115029929D01*
X94952919Y-114952998D01*
X94878644Y-114856201D01*
X94878638Y-114856194D01*
X94723805Y-114701361D01*
X94723798Y-114701355D01*
X94550070Y-114568049D01*
X94360438Y-114458565D01*
X94360433Y-114458562D01*
X94360428Y-114458560D01*
X94158117Y-114374759D01*
X94158118Y-114374759D01*
X94158115Y-114374758D01*
X94052357Y-114346421D01*
X93946598Y-114318083D01*
X93910314Y-114313306D01*
X93729497Y-114289500D01*
X93729490Y-114289500D01*
X93510510Y-114289500D01*
X93510502Y-114289500D01*
X93303853Y-114316707D01*
X93293402Y-114318083D01*
X93248699Y-114330060D01*
X93081884Y-114374758D01*
X92963374Y-114423847D01*
X92879572Y-114458560D01*
X92879569Y-114458561D01*
X92879561Y-114458565D01*
X92689929Y-114568049D01*
X92516201Y-114701355D01*
X92516194Y-114701361D01*
X92361361Y-114856194D01*
X92361355Y-114856201D01*
X92228049Y-115029929D01*
X92118565Y-115219561D01*
X92118561Y-115219569D01*
X92118560Y-115219572D01*
X92083847Y-115303374D01*
X92034758Y-115421884D01*
X91978084Y-115633399D01*
X91978082Y-115633410D01*
X91949500Y-115850502D01*
X90289995Y-115850502D01*
X90261426Y-115633503D01*
X90204765Y-115422043D01*
X90120995Y-115219801D01*
X90120990Y-115219792D01*
X90011532Y-115030208D01*
X90011527Y-115030200D01*
X89964560Y-114968991D01*
X89221041Y-115712510D01*
X89196022Y-115652110D01*
X89124888Y-115545649D01*
X89034351Y-115455112D01*
X88927890Y-115383978D01*
X88867487Y-115358957D01*
X89611007Y-114615438D01*
X89611007Y-114615437D01*
X89549790Y-114568466D01*
X89549782Y-114568460D01*
X89360214Y-114459012D01*
X89360198Y-114459004D01*
X89157956Y-114375234D01*
X88946496Y-114318573D01*
X88729467Y-114290001D01*
X88729451Y-114290000D01*
X88510549Y-114290000D01*
X88510532Y-114290001D01*
X88293503Y-114318573D01*
X88082043Y-114375234D01*
X87879801Y-114459004D01*
X87879785Y-114459012D01*
X87690215Y-114568461D01*
X87690200Y-114568471D01*
X87628990Y-114615438D01*
X88372511Y-115358958D01*
X88312110Y-115383978D01*
X88205649Y-115455112D01*
X88115112Y-115545649D01*
X88043978Y-115652110D01*
X88018958Y-115712511D01*
X87275438Y-114968990D01*
X87228471Y-115030200D01*
X87228461Y-115030215D01*
X87119012Y-115219785D01*
X87119004Y-115219801D01*
X87035234Y-115422043D01*
X86978573Y-115633503D01*
X86950001Y-115850532D01*
X86950000Y-115850548D01*
X81310500Y-115850548D01*
X81310500Y-108305646D01*
X107249500Y-108305646D01*
X107249500Y-108534353D01*
X107285278Y-108760246D01*
X107285278Y-108760249D01*
X107355950Y-108977755D01*
X107355952Y-108977758D01*
X107459783Y-109181538D01*
X107594214Y-109366566D01*
X107755934Y-109528286D01*
X107825423Y-109578773D01*
X107840438Y-109589682D01*
X107883103Y-109645013D01*
X107889082Y-109714626D01*
X107856476Y-109776421D01*
X107840438Y-109790318D01*
X107755932Y-109851715D01*
X107594216Y-110013431D01*
X107594216Y-110013432D01*
X107594214Y-110013434D01*
X107536480Y-110092896D01*
X107459783Y-110198461D01*
X107355950Y-110402244D01*
X107285278Y-110619750D01*
X107285278Y-110619753D01*
X107249500Y-110845646D01*
X107249500Y-111074353D01*
X107285278Y-111300246D01*
X107285278Y-111300249D01*
X107355950Y-111517755D01*
X107355952Y-111517758D01*
X107459783Y-111721538D01*
X107592525Y-111904242D01*
X107616005Y-111970046D01*
X107600180Y-112038100D01*
X107550074Y-112086795D01*
X107535541Y-112093308D01*
X107507670Y-112103703D01*
X107507664Y-112103706D01*
X107392455Y-112189952D01*
X107392452Y-112189955D01*
X107306206Y-112305164D01*
X107306202Y-112305171D01*
X107255908Y-112440017D01*
X107249501Y-112499616D01*
X107249501Y-112499623D01*
X107249500Y-112499635D01*
X107249500Y-114500370D01*
X107249501Y-114500376D01*
X107255908Y-114559983D01*
X107306202Y-114694828D01*
X107306206Y-114694835D01*
X107392452Y-114810044D01*
X107392455Y-114810047D01*
X107507664Y-114896293D01*
X107507671Y-114896297D01*
X107642517Y-114946591D01*
X107642516Y-114946591D01*
X107649444Y-114947335D01*
X107702127Y-114953000D01*
X109797872Y-114952999D01*
X109857483Y-114946591D01*
X109992331Y-114896296D01*
X110107546Y-114810046D01*
X110193796Y-114694831D01*
X110244091Y-114559983D01*
X110250500Y-114500373D01*
X110250499Y-112499628D01*
X110244091Y-112440017D01*
X110193796Y-112305169D01*
X110193795Y-112305168D01*
X110193793Y-112305164D01*
X110107547Y-112189955D01*
X110107544Y-112189952D01*
X109992335Y-112103706D01*
X109992328Y-112103702D01*
X109964459Y-112093308D01*
X109908525Y-112051437D01*
X109884108Y-111985973D01*
X109898960Y-111917700D01*
X109907460Y-111904260D01*
X110040217Y-111721538D01*
X110144048Y-111517758D01*
X110214722Y-111300245D01*
X110250500Y-111074354D01*
X110250500Y-110845646D01*
X110214722Y-110619755D01*
X110214721Y-110619751D01*
X110214721Y-110619750D01*
X110144049Y-110402244D01*
X110040216Y-110198461D01*
X109905786Y-110013434D01*
X109744066Y-109851714D01*
X109659559Y-109790316D01*
X109616896Y-109734988D01*
X109610917Y-109665375D01*
X109643523Y-109603580D01*
X109659556Y-109589685D01*
X109744066Y-109528286D01*
X109905786Y-109366566D01*
X110040217Y-109181538D01*
X110144048Y-108977758D01*
X110214722Y-108760245D01*
X110250500Y-108534354D01*
X110250500Y-108305646D01*
X110214722Y-108079755D01*
X110214721Y-108079751D01*
X110214721Y-108079750D01*
X110144049Y-107862244D01*
X110040216Y-107658461D01*
X110019538Y-107630000D01*
X109905786Y-107473434D01*
X109744066Y-107311714D01*
X109559038Y-107177283D01*
X109355255Y-107073450D01*
X109137748Y-107002778D01*
X108948088Y-106972739D01*
X108911854Y-106967000D01*
X108588146Y-106967000D01*
X108551912Y-106972739D01*
X108362253Y-107002778D01*
X108362250Y-107002778D01*
X108144744Y-107073450D01*
X107940961Y-107177283D01*
X107835396Y-107253980D01*
X107755934Y-107311714D01*
X107755932Y-107311716D01*
X107755931Y-107311716D01*
X107594216Y-107473431D01*
X107594216Y-107473432D01*
X107594214Y-107473434D01*
X107542389Y-107544765D01*
X107459783Y-107658461D01*
X107355950Y-107862244D01*
X107285278Y-108079750D01*
X107285278Y-108079753D01*
X107249500Y-108305646D01*
X81310500Y-108305646D01*
X81310500Y-105850548D01*
X89450000Y-105850548D01*
X89450000Y-106069451D01*
X89450001Y-106069467D01*
X89478573Y-106286496D01*
X89535234Y-106497956D01*
X89619004Y-106700198D01*
X89619012Y-106700214D01*
X89728460Y-106889782D01*
X89728466Y-106889790D01*
X89775438Y-106951007D01*
X90518958Y-106207487D01*
X90543978Y-106267890D01*
X90615112Y-106374351D01*
X90705649Y-106464888D01*
X90812110Y-106536022D01*
X90872511Y-106561041D01*
X90128991Y-107304560D01*
X90128991Y-107304561D01*
X90190200Y-107351527D01*
X90190208Y-107351532D01*
X90379792Y-107460990D01*
X90379801Y-107460995D01*
X90582043Y-107544765D01*
X90793503Y-107601426D01*
X91010532Y-107629998D01*
X91010549Y-107630000D01*
X91229451Y-107630000D01*
X91229467Y-107629998D01*
X91446496Y-107601426D01*
X91657956Y-107544765D01*
X91860198Y-107460995D01*
X91860214Y-107460987D01*
X92049785Y-107351537D01*
X92049793Y-107351531D01*
X92111007Y-107304560D01*
X91367488Y-106561041D01*
X91427890Y-106536022D01*
X91534351Y-106464888D01*
X91624888Y-106374351D01*
X91696022Y-106267890D01*
X91721041Y-106207488D01*
X92464560Y-106951007D01*
X92511531Y-106889793D01*
X92511537Y-106889785D01*
X92620987Y-106700214D01*
X92620995Y-106700198D01*
X92704765Y-106497956D01*
X92761426Y-106286496D01*
X92789998Y-106069467D01*
X92790000Y-106069451D01*
X92790000Y-105850548D01*
X92789998Y-105850532D01*
X92761426Y-105633503D01*
X92704765Y-105422043D01*
X92620995Y-105219801D01*
X92620990Y-105219792D01*
X92511532Y-105030208D01*
X92511527Y-105030200D01*
X92464560Y-104968991D01*
X91721041Y-105712510D01*
X91696022Y-105652110D01*
X91624888Y-105545649D01*
X91534351Y-105455112D01*
X91427890Y-105383978D01*
X91367487Y-105358957D01*
X92111007Y-104615438D01*
X92111007Y-104615437D01*
X92049790Y-104568466D01*
X92049782Y-104568460D01*
X91860214Y-104459012D01*
X91860198Y-104459004D01*
X91657956Y-104375234D01*
X91446496Y-104318573D01*
X91229467Y-104290001D01*
X91229451Y-104290000D01*
X91010549Y-104290000D01*
X91010532Y-104290001D01*
X90793503Y-104318573D01*
X90582043Y-104375234D01*
X90379801Y-104459004D01*
X90379785Y-104459012D01*
X90190215Y-104568461D01*
X90190200Y-104568471D01*
X90128990Y-104615438D01*
X90872511Y-105358958D01*
X90812110Y-105383978D01*
X90705649Y-105455112D01*
X90615112Y-105545649D01*
X90543978Y-105652110D01*
X90518958Y-105712511D01*
X89775438Y-104968990D01*
X89728471Y-105030200D01*
X89728461Y-105030215D01*
X89619012Y-105219785D01*
X89619004Y-105219801D01*
X89535234Y-105422043D01*
X89478573Y-105633503D01*
X89450001Y-105850532D01*
X89450000Y-105850548D01*
X81310500Y-105850548D01*
X81310500Y-96149982D01*
X88669500Y-96149982D01*
X88669500Y-97830017D01*
X88680000Y-97932796D01*
X88735185Y-98099332D01*
X88735187Y-98099337D01*
X88761445Y-98141908D01*
X88827288Y-98248656D01*
X88951344Y-98372712D01*
X89100665Y-98464814D01*
X89267202Y-98519999D01*
X89369990Y-98530500D01*
X89369995Y-98530500D01*
X92570005Y-98530500D01*
X92570010Y-98530500D01*
X92672798Y-98519999D01*
X92839335Y-98464814D01*
X92988656Y-98372712D01*
X93112712Y-98248656D01*
X93178558Y-98141902D01*
X114869500Y-98141902D01*
X114869500Y-98378097D01*
X114906446Y-98611368D01*
X114979433Y-98835996D01*
X115047401Y-98969390D01*
X115086657Y-99046434D01*
X115225483Y-99237510D01*
X115392490Y-99404517D01*
X115583566Y-99543343D01*
X115632938Y-99568499D01*
X115794003Y-99650566D01*
X115794005Y-99650566D01*
X115794008Y-99650568D01*
X115914412Y-99689689D01*
X116018631Y-99723553D01*
X116251903Y-99760500D01*
X116251908Y-99760500D01*
X116488097Y-99760500D01*
X116721368Y-99723553D01*
X116945992Y-99650568D01*
X117156434Y-99543343D01*
X117347510Y-99404517D01*
X120114572Y-96637455D01*
X122481500Y-96637455D01*
X122481500Y-96834544D01*
X122519947Y-97027828D01*
X122519949Y-97027836D01*
X122595367Y-97209910D01*
X122595372Y-97209920D01*
X122704860Y-97373780D01*
X122704863Y-97373784D01*
X122844215Y-97513136D01*
X122844219Y-97513139D01*
X123008079Y-97622627D01*
X123008083Y-97622629D01*
X123008086Y-97622631D01*
X123190164Y-97698051D01*
X123383455Y-97736499D01*
X123383458Y-97736500D01*
X123383460Y-97736500D01*
X123580542Y-97736500D01*
X123580543Y-97736499D01*
X123773836Y-97698051D01*
X123955914Y-97622631D01*
X124119781Y-97513139D01*
X145196102Y-76436819D01*
X145257425Y-76403334D01*
X145283783Y-76400500D01*
X151831459Y-76400500D01*
X156174807Y-76400500D01*
X156241846Y-76420185D01*
X156287601Y-76472989D01*
X156297545Y-76542147D01*
X156289368Y-76571953D01*
X156240263Y-76690502D01*
X156240261Y-76690510D01*
X156209500Y-76845153D01*
X156209500Y-76865769D01*
X156189815Y-76932808D01*
X156173181Y-76953450D01*
X152617050Y-80509580D01*
X152617044Y-80509588D01*
X152567812Y-80583268D01*
X152567813Y-80583269D01*
X152534921Y-80632496D01*
X152534914Y-80632508D01*
X152478342Y-80769086D01*
X152478340Y-80769092D01*
X152450357Y-80909770D01*
X152417972Y-80971681D01*
X152357256Y-81006255D01*
X152287486Y-81002514D01*
X152230815Y-80961648D01*
X152228422Y-80958464D01*
X152115786Y-80803434D01*
X151954066Y-80641714D01*
X151869559Y-80580316D01*
X151826896Y-80524988D01*
X151820917Y-80455375D01*
X151853523Y-80393580D01*
X151869556Y-80379685D01*
X151954066Y-80318286D01*
X152115786Y-80156566D01*
X152250217Y-79971538D01*
X152354048Y-79767758D01*
X152365020Y-79733989D01*
X152424721Y-79550249D01*
X152424721Y-79550248D01*
X152424722Y-79550245D01*
X152460500Y-79324354D01*
X152460500Y-79095646D01*
X152424722Y-78869755D01*
X152424721Y-78869751D01*
X152424721Y-78869750D01*
X152354049Y-78652244D01*
X152286922Y-78520500D01*
X152250217Y-78448462D01*
X152115786Y-78263434D01*
X151954066Y-78101714D01*
X151769038Y-77967283D01*
X151565255Y-77863450D01*
X151347748Y-77792778D01*
X151162312Y-77763408D01*
X151121854Y-77757000D01*
X150798146Y-77757000D01*
X150722849Y-77768926D01*
X150572253Y-77792778D01*
X150572250Y-77792778D01*
X150354744Y-77863450D01*
X150150961Y-77967283D01*
X150085050Y-78015171D01*
X149965934Y-78101714D01*
X149965932Y-78101716D01*
X149965931Y-78101716D01*
X149804216Y-78263431D01*
X149804216Y-78263432D01*
X149804214Y-78263434D01*
X149753507Y-78333226D01*
X149669783Y-78448461D01*
X149565950Y-78652244D01*
X149495278Y-78869750D01*
X149495278Y-78869753D01*
X149459500Y-79095646D01*
X149459500Y-79324353D01*
X149495278Y-79550246D01*
X149495278Y-79550249D01*
X149565950Y-79767755D01*
X149637441Y-79908063D01*
X149669783Y-79971538D01*
X149804214Y-80156566D01*
X149965934Y-80318286D01*
X150035423Y-80368773D01*
X150050438Y-80379682D01*
X150093103Y-80435013D01*
X150099082Y-80504626D01*
X150066476Y-80566421D01*
X150050438Y-80580318D01*
X149965932Y-80641715D01*
X149804216Y-80803431D01*
X149804216Y-80803432D01*
X149804214Y-80803434D01*
X149802525Y-80805759D01*
X149669783Y-80988461D01*
X149565950Y-81192244D01*
X149495278Y-81409750D01*
X149495278Y-81409753D01*
X149459500Y-81635646D01*
X149459500Y-81864353D01*
X149495278Y-82090246D01*
X149495278Y-82090249D01*
X149565950Y-82307755D01*
X149565952Y-82307758D01*
X149669783Y-82511538D01*
X149802525Y-82694242D01*
X149826005Y-82760046D01*
X149810180Y-82828100D01*
X149760074Y-82876795D01*
X149745541Y-82883308D01*
X149717670Y-82893703D01*
X149717664Y-82893706D01*
X149602455Y-82979952D01*
X149602452Y-82979955D01*
X149516206Y-83095164D01*
X149516202Y-83095171D01*
X149465908Y-83230017D01*
X149459501Y-83289616D01*
X149459500Y-83289635D01*
X149459500Y-85290370D01*
X149459501Y-85290376D01*
X149465908Y-85349983D01*
X149516202Y-85484828D01*
X149516206Y-85484835D01*
X149602452Y-85600044D01*
X149602455Y-85600047D01*
X149717664Y-85686293D01*
X149717671Y-85686297D01*
X149852517Y-85736591D01*
X149852516Y-85736591D01*
X149859444Y-85737335D01*
X149912127Y-85743000D01*
X152007872Y-85742999D01*
X152067483Y-85736591D01*
X152202331Y-85686296D01*
X152251189Y-85649720D01*
X152316652Y-85625303D01*
X152384925Y-85640154D01*
X152434331Y-85689558D01*
X152449500Y-85748987D01*
X152449500Y-92309769D01*
X152429815Y-92376808D01*
X152413181Y-92397450D01*
X147804703Y-97005927D01*
X147764480Y-97032805D01*
X147740819Y-97042606D01*
X147740818Y-97042607D01*
X147609715Y-97130207D01*
X147609707Y-97130213D01*
X147498213Y-97241707D01*
X147498210Y-97241711D01*
X147410609Y-97372814D01*
X147410602Y-97372827D01*
X147350264Y-97518498D01*
X147350261Y-97518510D01*
X147319500Y-97673153D01*
X147319500Y-97830846D01*
X147350261Y-97985489D01*
X147350264Y-97985501D01*
X147410602Y-98131172D01*
X147410609Y-98131185D01*
X147498210Y-98262288D01*
X147498213Y-98262292D01*
X147609708Y-98373787D01*
X147609711Y-98373789D01*
X147668835Y-98413294D01*
X147713641Y-98466907D01*
X147722348Y-98536231D01*
X147703048Y-98585287D01*
X147664608Y-98642816D01*
X147664602Y-98642827D01*
X147604264Y-98788498D01*
X147604261Y-98788510D01*
X147573500Y-98943153D01*
X147573500Y-99100846D01*
X147604261Y-99255489D01*
X147604264Y-99255501D01*
X147664602Y-99401172D01*
X147664609Y-99401185D01*
X147752210Y-99532288D01*
X147752213Y-99532292D01*
X147863707Y-99643786D01*
X147863711Y-99643789D01*
X147994814Y-99731390D01*
X147994827Y-99731397D01*
X148140498Y-99791735D01*
X148140503Y-99791737D01*
X148295153Y-99822499D01*
X148295156Y-99822500D01*
X148295158Y-99822500D01*
X148452844Y-99822500D01*
X148452845Y-99822499D01*
X148607497Y-99791737D01*
X148753179Y-99731394D01*
X148884289Y-99643789D01*
X148995789Y-99532289D01*
X149083394Y-99401179D01*
X149093191Y-99377524D01*
X149120069Y-99337297D01*
X154798952Y-93658415D01*
X154826205Y-93617627D01*
X154881084Y-93535495D01*
X154932002Y-93412568D01*
X154932003Y-93412567D01*
X154933658Y-93408569D01*
X154937659Y-93398912D01*
X154960763Y-93282759D01*
X154966500Y-93253918D01*
X154966500Y-84364850D01*
X154986185Y-84297811D01*
X155038989Y-84252056D01*
X155108147Y-84242112D01*
X155137952Y-84250289D01*
X155142218Y-84252056D01*
X155252503Y-84297737D01*
X155407153Y-84328499D01*
X155407156Y-84328500D01*
X155407158Y-84328500D01*
X155564844Y-84328500D01*
X155564845Y-84328499D01*
X155719497Y-84297737D01*
X155865179Y-84237394D01*
X155996289Y-84149789D01*
X156107789Y-84038289D01*
X156195394Y-83907179D01*
X156205191Y-83883524D01*
X156232069Y-83843297D01*
X158100952Y-81974416D01*
X158150186Y-81900729D01*
X158183084Y-81851495D01*
X158239658Y-81714913D01*
X158268500Y-81569918D01*
X158268500Y-79768604D01*
X158277939Y-79721151D01*
X158287737Y-79697497D01*
X158318500Y-79542842D01*
X158318500Y-79385158D01*
X158318500Y-79385155D01*
X158318499Y-79385153D01*
X158287738Y-79230510D01*
X158287737Y-79230503D01*
X158231878Y-79095646D01*
X158227397Y-79084827D01*
X158227390Y-79084814D01*
X158139789Y-78953711D01*
X158139786Y-78953707D01*
X158028292Y-78842213D01*
X158028288Y-78842210D01*
X157930241Y-78776697D01*
X157885436Y-78723085D01*
X157876729Y-78653760D01*
X157906883Y-78590732D01*
X157911429Y-78585936D01*
X158608952Y-77888415D01*
X158672854Y-77792778D01*
X158691084Y-77765495D01*
X158711698Y-77715728D01*
X158720807Y-77693738D01*
X158728671Y-77674750D01*
X158747659Y-77628912D01*
X158764193Y-77545789D01*
X158771918Y-77506953D01*
X158771918Y-77506949D01*
X158775248Y-77490214D01*
X158776500Y-77483918D01*
X158776500Y-77228604D01*
X158785939Y-77181151D01*
X158795737Y-77157497D01*
X158826500Y-77002842D01*
X158826500Y-76845158D01*
X158826500Y-76845155D01*
X158826499Y-76845153D01*
X158795737Y-76690503D01*
X158746631Y-76571951D01*
X158739163Y-76502483D01*
X158770438Y-76440004D01*
X158830527Y-76404352D01*
X158861193Y-76400500D01*
X161680543Y-76400500D01*
X161810582Y-76374632D01*
X161873835Y-76362051D01*
X162055914Y-76286632D01*
X162219782Y-76177139D01*
X162359139Y-76037782D01*
X162468632Y-75873914D01*
X162478627Y-75849785D01*
X162544049Y-75691839D01*
X162544051Y-75691835D01*
X162582500Y-75498541D01*
X162582500Y-75301459D01*
X162582500Y-75301456D01*
X162544052Y-75108170D01*
X162544051Y-75108169D01*
X162544051Y-75108165D01*
X162507872Y-75020821D01*
X162468635Y-74926092D01*
X162468628Y-74926079D01*
X162359139Y-74762218D01*
X162359136Y-74762214D01*
X162219785Y-74622863D01*
X162219781Y-74622860D01*
X162055920Y-74513371D01*
X162055907Y-74513364D01*
X161873839Y-74437950D01*
X161873829Y-74437947D01*
X161680543Y-74399500D01*
X161680541Y-74399500D01*
X152028541Y-74399500D01*
X144922675Y-74399500D01*
X144922655Y-74399499D01*
X144916541Y-74399499D01*
X144719460Y-74399499D01*
X144719457Y-74399499D01*
X144526172Y-74437946D01*
X144526164Y-74437948D01*
X144344088Y-74513366D01*
X144344079Y-74513371D01*
X144180219Y-74622859D01*
X144180215Y-74622862D01*
X122704863Y-96098215D01*
X122704860Y-96098219D01*
X122595372Y-96262079D01*
X122595367Y-96262089D01*
X122519949Y-96444163D01*
X122519948Y-96444167D01*
X122481500Y-96637455D01*
X120114572Y-96637455D01*
X128644517Y-88107510D01*
X128783343Y-87916434D01*
X128890568Y-87705992D01*
X128963553Y-87481368D01*
X129000500Y-87248097D01*
X129000500Y-79601774D01*
X129020185Y-79534735D01*
X129036814Y-79514097D01*
X129101465Y-79449447D01*
X129271081Y-79228398D01*
X129410394Y-78987102D01*
X129517019Y-78729686D01*
X129589132Y-78460554D01*
X129625500Y-78184313D01*
X129625500Y-75155687D01*
X129589132Y-74879446D01*
X129517019Y-74610314D01*
X129410394Y-74352898D01*
X129410392Y-74352895D01*
X129410390Y-74352890D01*
X129271085Y-74111609D01*
X129271081Y-74111602D01*
X129101465Y-73890553D01*
X129101460Y-73890547D01*
X128904452Y-73693539D01*
X128904445Y-73693533D01*
X128683406Y-73523925D01*
X128683404Y-73523923D01*
X128683398Y-73523919D01*
X128683393Y-73523916D01*
X128683390Y-73523914D01*
X128442109Y-73384609D01*
X128442098Y-73384604D01*
X128184695Y-73277984D01*
X128184688Y-73277982D01*
X128184686Y-73277981D01*
X127915554Y-73205868D01*
X127915548Y-73205867D01*
X127915543Y-73205866D01*
X127639322Y-73169501D01*
X127639319Y-73169500D01*
X127639313Y-73169500D01*
X127360687Y-73169500D01*
X127360681Y-73169500D01*
X127360677Y-73169501D01*
X127084456Y-73205866D01*
X127084449Y-73205867D01*
X127084446Y-73205868D01*
X126815314Y-73277981D01*
X126815304Y-73277984D01*
X126557901Y-73384604D01*
X126557890Y-73384609D01*
X126316609Y-73523914D01*
X126316593Y-73523925D01*
X126095554Y-73693533D01*
X126095547Y-73693539D01*
X125898539Y-73890547D01*
X125898533Y-73890554D01*
X125728925Y-74111593D01*
X125728914Y-74111609D01*
X125589609Y-74352890D01*
X125589604Y-74352901D01*
X125482984Y-74610304D01*
X125482981Y-74610314D01*
X125410869Y-74879443D01*
X125410866Y-74879456D01*
X125374501Y-75155677D01*
X125374500Y-75155693D01*
X125374500Y-78184306D01*
X125374501Y-78184322D01*
X125410866Y-78460543D01*
X125410867Y-78460548D01*
X125410868Y-78460554D01*
X125482981Y-78729685D01*
X125482984Y-78729695D01*
X125589604Y-78987098D01*
X125589609Y-78987109D01*
X125728914Y-79228390D01*
X125728925Y-79228406D01*
X125898532Y-79449444D01*
X125898533Y-79449445D01*
X125898535Y-79449447D01*
X125963182Y-79514094D01*
X125996666Y-79575415D01*
X125999500Y-79601774D01*
X125999500Y-86457111D01*
X125979815Y-86524150D01*
X125963181Y-86544792D01*
X115225485Y-97282487D01*
X115225484Y-97282488D01*
X115086657Y-97473565D01*
X114979433Y-97684003D01*
X114906446Y-97908631D01*
X114869500Y-98141902D01*
X93178558Y-98141902D01*
X93204814Y-98099335D01*
X93259999Y-97932798D01*
X93270500Y-97830010D01*
X93270500Y-96149990D01*
X93259999Y-96047202D01*
X93204814Y-95880665D01*
X93112712Y-95731344D01*
X92988656Y-95607288D01*
X92839335Y-95515186D01*
X92672798Y-95460001D01*
X92672796Y-95460000D01*
X92570017Y-95449500D01*
X92570010Y-95449500D01*
X89369990Y-95449500D01*
X89369982Y-95449500D01*
X89267203Y-95460000D01*
X89267202Y-95460001D01*
X89184669Y-95487349D01*
X89100667Y-95515185D01*
X89100662Y-95515187D01*
X88951342Y-95607289D01*
X88827289Y-95731342D01*
X88735187Y-95880662D01*
X88735186Y-95880665D01*
X88680001Y-96047202D01*
X88680001Y-96047203D01*
X88680000Y-96047203D01*
X88669500Y-96149982D01*
X81310500Y-96149982D01*
X81310500Y-91788754D01*
X88669500Y-91788754D01*
X88669500Y-92031245D01*
X88707432Y-92270736D01*
X88782360Y-92501344D01*
X88892448Y-92717401D01*
X89034966Y-92913562D01*
X89034970Y-92913567D01*
X89206432Y-93085029D01*
X89206437Y-93085033D01*
X89377539Y-93209345D01*
X89402602Y-93227554D01*
X89618653Y-93337638D01*
X89618655Y-93337639D01*
X89733959Y-93375103D01*
X89849265Y-93412568D01*
X89960186Y-93430136D01*
X90088755Y-93450500D01*
X90088760Y-93450500D01*
X91851245Y-93450500D01*
X91967347Y-93432110D01*
X92090735Y-93412568D01*
X92321347Y-93337638D01*
X92537398Y-93227554D01*
X92733569Y-93085028D01*
X92905028Y-92913569D01*
X93047554Y-92717398D01*
X93157638Y-92501347D01*
X93232568Y-92270735D01*
X93252110Y-92147347D01*
X93270500Y-92031245D01*
X93270500Y-91788754D01*
X93248432Y-91649431D01*
X93232568Y-91549265D01*
X93157638Y-91318653D01*
X93047554Y-91102602D01*
X93029345Y-91077539D01*
X92905033Y-90906437D01*
X92905029Y-90906432D01*
X92733567Y-90734970D01*
X92733562Y-90734966D01*
X92537401Y-90592448D01*
X92537400Y-90592447D01*
X92537398Y-90592446D01*
X92429372Y-90537404D01*
X92321344Y-90482360D01*
X92090736Y-90407432D01*
X91851245Y-90369500D01*
X91851240Y-90369500D01*
X90088760Y-90369500D01*
X90088755Y-90369500D01*
X89849263Y-90407432D01*
X89618655Y-90482360D01*
X89402598Y-90592448D01*
X89206437Y-90734966D01*
X89206432Y-90734970D01*
X89034970Y-90906432D01*
X89034966Y-90906437D01*
X88892448Y-91102598D01*
X88782360Y-91318655D01*
X88707432Y-91549263D01*
X88669500Y-91788754D01*
X81310500Y-91788754D01*
X81310500Y-75155693D01*
X87874500Y-75155693D01*
X87874500Y-78184306D01*
X87874501Y-78184322D01*
X87910866Y-78460543D01*
X87910867Y-78460548D01*
X87910868Y-78460554D01*
X87982981Y-78729685D01*
X87982984Y-78729695D01*
X88089604Y-78987098D01*
X88089609Y-78987109D01*
X88228914Y-79228390D01*
X88228925Y-79228406D01*
X88398533Y-79449445D01*
X88398539Y-79449452D01*
X88595547Y-79646460D01*
X88595554Y-79646466D01*
X88692886Y-79721151D01*
X88816602Y-79816081D01*
X88816609Y-79816085D01*
X89057890Y-79955390D01*
X89057895Y-79955392D01*
X89057898Y-79955394D01*
X89315314Y-80062019D01*
X89584446Y-80134132D01*
X89860687Y-80170500D01*
X89860694Y-80170500D01*
X90139306Y-80170500D01*
X90139313Y-80170500D01*
X90415554Y-80134132D01*
X90684686Y-80062019D01*
X90942102Y-79955394D01*
X91183398Y-79816081D01*
X91404447Y-79646465D01*
X91601465Y-79449447D01*
X91771081Y-79228398D01*
X91910394Y-78987102D01*
X92017019Y-78729686D01*
X92089132Y-78460554D01*
X92125500Y-78184313D01*
X92125500Y-76548711D01*
X106899500Y-76548711D01*
X106899500Y-76791288D01*
X106931161Y-77031785D01*
X106993947Y-77266104D01*
X107084169Y-77483918D01*
X107086776Y-77490212D01*
X107208064Y-77700289D01*
X107208066Y-77700292D01*
X107208067Y-77700293D01*
X107355733Y-77892736D01*
X107355739Y-77892743D01*
X107527256Y-78064260D01*
X107527263Y-78064266D01*
X107576069Y-78101716D01*
X107719711Y-78211936D01*
X107929788Y-78333224D01*
X108153900Y-78426054D01*
X108388211Y-78488838D01*
X108568586Y-78512584D01*
X108628711Y-78520500D01*
X108628712Y-78520500D01*
X108871289Y-78520500D01*
X108919388Y-78514167D01*
X109111789Y-78488838D01*
X109346100Y-78426054D01*
X109570212Y-78333224D01*
X109780289Y-78211936D01*
X109972738Y-78064265D01*
X110144265Y-77892738D01*
X110291936Y-77700289D01*
X110413224Y-77490212D01*
X110506054Y-77266100D01*
X110568838Y-77031789D01*
X110600500Y-76791288D01*
X110600500Y-76548712D01*
X110568838Y-76308211D01*
X110506054Y-76073900D01*
X110413224Y-75849788D01*
X110291936Y-75639711D01*
X110144265Y-75447262D01*
X110144260Y-75447256D01*
X109972743Y-75275739D01*
X109972736Y-75275733D01*
X109780293Y-75128067D01*
X109780292Y-75128066D01*
X109780289Y-75128064D01*
X109570212Y-75006776D01*
X109570205Y-75006773D01*
X109346104Y-74913947D01*
X109111785Y-74851161D01*
X108871289Y-74819500D01*
X108871288Y-74819500D01*
X108628712Y-74819500D01*
X108628711Y-74819500D01*
X108388214Y-74851161D01*
X108153895Y-74913947D01*
X107929794Y-75006773D01*
X107929785Y-75006777D01*
X107719706Y-75128067D01*
X107527263Y-75275733D01*
X107527256Y-75275739D01*
X107355739Y-75447256D01*
X107355733Y-75447263D01*
X107208067Y-75639706D01*
X107086777Y-75849785D01*
X107086773Y-75849794D01*
X106993947Y-76073895D01*
X106931161Y-76308214D01*
X106899500Y-76548711D01*
X92125500Y-76548711D01*
X92125500Y-75155687D01*
X92089132Y-74879446D01*
X92017019Y-74610314D01*
X91910394Y-74352898D01*
X91910392Y-74352895D01*
X91910390Y-74352890D01*
X91771085Y-74111609D01*
X91771081Y-74111602D01*
X91601465Y-73890553D01*
X91601460Y-73890547D01*
X91404452Y-73693539D01*
X91404445Y-73693533D01*
X91183406Y-73523925D01*
X91183404Y-73523923D01*
X91183398Y-73523919D01*
X91183393Y-73523916D01*
X91183390Y-73523914D01*
X90942109Y-73384609D01*
X90942098Y-73384604D01*
X90684695Y-73277984D01*
X90684688Y-73277982D01*
X90684686Y-73277981D01*
X90415554Y-73205868D01*
X90415548Y-73205867D01*
X90415543Y-73205866D01*
X90139322Y-73169501D01*
X90139319Y-73169500D01*
X90139313Y-73169500D01*
X89860687Y-73169500D01*
X89860681Y-73169500D01*
X89860677Y-73169501D01*
X89584456Y-73205866D01*
X89584449Y-73205867D01*
X89584446Y-73205868D01*
X89315314Y-73277981D01*
X89315304Y-73277984D01*
X89057901Y-73384604D01*
X89057890Y-73384609D01*
X88816609Y-73523914D01*
X88816593Y-73523925D01*
X88595554Y-73693533D01*
X88595547Y-73693539D01*
X88398539Y-73890547D01*
X88398533Y-73890554D01*
X88228925Y-74111593D01*
X88228914Y-74111609D01*
X88089609Y-74352890D01*
X88089604Y-74352901D01*
X87982984Y-74610304D01*
X87982981Y-74610314D01*
X87910869Y-74879443D01*
X87910866Y-74879456D01*
X87874501Y-75155677D01*
X87874500Y-75155693D01*
X81310500Y-75155693D01*
X81310500Y-70241153D01*
X156209500Y-70241153D01*
X156209500Y-70398846D01*
X156240261Y-70553489D01*
X156240263Y-70553497D01*
X156250061Y-70577151D01*
X156259500Y-70624604D01*
X156259500Y-72425918D01*
X156259500Y-72425920D01*
X156259499Y-72425920D01*
X156288340Y-72570907D01*
X156288343Y-72570917D01*
X156344914Y-72707492D01*
X156377812Y-72756727D01*
X156377813Y-72756730D01*
X156427046Y-72830414D01*
X156427052Y-72830421D01*
X156874614Y-73277981D01*
X156935048Y-73338415D01*
X156935049Y-73338416D01*
X157039584Y-73442951D01*
X157039585Y-73442952D01*
X157162498Y-73525080D01*
X157162511Y-73525087D01*
X157299082Y-73581656D01*
X157299087Y-73581658D01*
X157299091Y-73581658D01*
X157299092Y-73581659D01*
X157444079Y-73610500D01*
X157444082Y-73610500D01*
X164267770Y-73610500D01*
X164334809Y-73630185D01*
X164355451Y-73646819D01*
X165239359Y-74530727D01*
X165249454Y-74549215D01*
X165263533Y-74564888D01*
X165265863Y-74579266D01*
X165272844Y-74592050D01*
X165271341Y-74613061D01*
X165274712Y-74633857D01*
X165268899Y-74647212D01*
X165267860Y-74661742D01*
X165255234Y-74678606D01*
X165246828Y-74697922D01*
X165228347Y-74714523D01*
X165225988Y-74717675D01*
X165220572Y-74721508D01*
X165206894Y-74730648D01*
X165140217Y-74751528D01*
X165072837Y-74733046D01*
X165069109Y-74730650D01*
X165044973Y-74714523D01*
X165043231Y-74713359D01*
X165009184Y-74690609D01*
X165009181Y-74690607D01*
X165009179Y-74690606D01*
X165009176Y-74690604D01*
X165009171Y-74690602D01*
X164863501Y-74630264D01*
X164863489Y-74630261D01*
X164708845Y-74599500D01*
X164708842Y-74599500D01*
X164551158Y-74599500D01*
X164551155Y-74599500D01*
X164396510Y-74630261D01*
X164396498Y-74630264D01*
X164250827Y-74690602D01*
X164250814Y-74690609D01*
X164119711Y-74778210D01*
X164119707Y-74778213D01*
X164008213Y-74889707D01*
X164008210Y-74889711D01*
X163920609Y-75020814D01*
X163920602Y-75020827D01*
X163860264Y-75166498D01*
X163860261Y-75166510D01*
X163829500Y-75321153D01*
X163829500Y-75478846D01*
X163860261Y-75633489D01*
X163860264Y-75633501D01*
X163920602Y-75779172D01*
X163920609Y-75779185D01*
X164008210Y-75910288D01*
X164008213Y-75910292D01*
X164086181Y-75988260D01*
X164119666Y-76049583D01*
X164122500Y-76075941D01*
X164122500Y-95368769D01*
X164102815Y-95435808D01*
X164086181Y-95456450D01*
X162028703Y-97513927D01*
X161988480Y-97540805D01*
X161964819Y-97550606D01*
X161964818Y-97550607D01*
X161833715Y-97638207D01*
X161833707Y-97638213D01*
X161722213Y-97749707D01*
X161722210Y-97749711D01*
X161634609Y-97880814D01*
X161634602Y-97880827D01*
X161574264Y-98026498D01*
X161574261Y-98026510D01*
X161543500Y-98181153D01*
X161543500Y-98338846D01*
X161574261Y-98493489D01*
X161574264Y-98493501D01*
X161634602Y-98639172D01*
X161634609Y-98639185D01*
X161722210Y-98770288D01*
X161722213Y-98770292D01*
X161833707Y-98881786D01*
X161833711Y-98881789D01*
X161964814Y-98969390D01*
X161964827Y-98969397D01*
X162110498Y-99029735D01*
X162110503Y-99029737D01*
X162265153Y-99060499D01*
X162265156Y-99060500D01*
X162265158Y-99060500D01*
X162277849Y-99060500D01*
X162344888Y-99080185D01*
X162390643Y-99132989D01*
X162392389Y-99137000D01*
X162396606Y-99147179D01*
X162396608Y-99147182D01*
X162396609Y-99147184D01*
X162484210Y-99278288D01*
X162484213Y-99278292D01*
X162595707Y-99389786D01*
X162595711Y-99389789D01*
X162726814Y-99477390D01*
X162726827Y-99477397D01*
X162872498Y-99537735D01*
X162872503Y-99537737D01*
X163027153Y-99568499D01*
X163027156Y-99568500D01*
X163027158Y-99568500D01*
X163184844Y-99568500D01*
X163184845Y-99568499D01*
X163339497Y-99537737D01*
X163485179Y-99477394D01*
X163616289Y-99389789D01*
X163727789Y-99278289D01*
X163815394Y-99147179D01*
X163825191Y-99123524D01*
X163852069Y-99083297D01*
X166228951Y-96706416D01*
X166311084Y-96583495D01*
X166367658Y-96446913D01*
X166368015Y-96445116D01*
X166368208Y-96444150D01*
X166396500Y-96301920D01*
X166396500Y-78209635D01*
X167239500Y-78209635D01*
X167239500Y-80210370D01*
X167239501Y-80210376D01*
X167245908Y-80269983D01*
X167296202Y-80404828D01*
X167296206Y-80404835D01*
X167382452Y-80520044D01*
X167382455Y-80520047D01*
X167497664Y-80606293D01*
X167497669Y-80606296D01*
X167525539Y-80616690D01*
X167581473Y-80658561D01*
X167605891Y-80724024D01*
X167591040Y-80792298D01*
X167582525Y-80805759D01*
X167449783Y-80988461D01*
X167345950Y-81192244D01*
X167275278Y-81409750D01*
X167275278Y-81409753D01*
X167239500Y-81635646D01*
X167239500Y-81864353D01*
X167275278Y-82090246D01*
X167275278Y-82090249D01*
X167345950Y-82307755D01*
X167345952Y-82307758D01*
X167449783Y-82511538D01*
X167584214Y-82696566D01*
X167745934Y-82858286D01*
X167811897Y-82906211D01*
X167830438Y-82919682D01*
X167873103Y-82975013D01*
X167879082Y-83044626D01*
X167846476Y-83106421D01*
X167830438Y-83120318D01*
X167745932Y-83181715D01*
X167584216Y-83343431D01*
X167584216Y-83343432D01*
X167584214Y-83343434D01*
X167526480Y-83422896D01*
X167449783Y-83528461D01*
X167345950Y-83732244D01*
X167275278Y-83949750D01*
X167275278Y-83949753D01*
X167239500Y-84175646D01*
X167239500Y-84404353D01*
X167275278Y-84630246D01*
X167275278Y-84630249D01*
X167345950Y-84847755D01*
X167345952Y-84847758D01*
X167449783Y-85051538D01*
X167584214Y-85236566D01*
X167745934Y-85398286D01*
X167930962Y-85532717D01*
X168134742Y-85636548D01*
X168134744Y-85636549D01*
X168352251Y-85707221D01*
X168352252Y-85707221D01*
X168352255Y-85707222D01*
X168578146Y-85743000D01*
X168578147Y-85743000D01*
X168901853Y-85743000D01*
X168901854Y-85743000D01*
X169127745Y-85707222D01*
X169127748Y-85707221D01*
X169127749Y-85707221D01*
X169345255Y-85636549D01*
X169345255Y-85636548D01*
X169345258Y-85636548D01*
X169549038Y-85532717D01*
X169734066Y-85398286D01*
X169895786Y-85236566D01*
X170030217Y-85051538D01*
X170134048Y-84847758D01*
X170204722Y-84630245D01*
X170240500Y-84404354D01*
X170240500Y-84175646D01*
X170204722Y-83949755D01*
X170204721Y-83949751D01*
X170204721Y-83949750D01*
X170134049Y-83732244D01*
X170030216Y-83528461D01*
X169895786Y-83343434D01*
X169734066Y-83181714D01*
X169649559Y-83120316D01*
X169606896Y-83064988D01*
X169600917Y-82995375D01*
X169633523Y-82933580D01*
X169649556Y-82919685D01*
X169734066Y-82858286D01*
X169895786Y-82696566D01*
X170030217Y-82511538D01*
X170134048Y-82307758D01*
X170204722Y-82090245D01*
X170240500Y-81864354D01*
X170240500Y-81635646D01*
X170204722Y-81409755D01*
X170204721Y-81409751D01*
X170204721Y-81409750D01*
X170134049Y-81192244D01*
X170130425Y-81185132D01*
X170030217Y-80988462D01*
X169897472Y-80805755D01*
X169873994Y-80739953D01*
X169889819Y-80671899D01*
X169939925Y-80623204D01*
X169954455Y-80616692D01*
X169982331Y-80606296D01*
X170097546Y-80520046D01*
X170183796Y-80404831D01*
X170234091Y-80269983D01*
X170240500Y-80210373D01*
X170240499Y-78209628D01*
X170234091Y-78150017D01*
X170183796Y-78015169D01*
X170183795Y-78015168D01*
X170183793Y-78015164D01*
X170097547Y-77899955D01*
X170097544Y-77899952D01*
X169982335Y-77813706D01*
X169982328Y-77813702D01*
X169847482Y-77763408D01*
X169847483Y-77763408D01*
X169787883Y-77757001D01*
X169787881Y-77757000D01*
X169787873Y-77757000D01*
X169787864Y-77757000D01*
X167692129Y-77757000D01*
X167692123Y-77757001D01*
X167632516Y-77763408D01*
X167497671Y-77813702D01*
X167497664Y-77813706D01*
X167382455Y-77899952D01*
X167382452Y-77899955D01*
X167296206Y-78015164D01*
X167296202Y-78015171D01*
X167245908Y-78150017D01*
X167239501Y-78209616D01*
X167239501Y-78209623D01*
X167239500Y-78209635D01*
X166396500Y-78209635D01*
X166396500Y-77838466D01*
X166416185Y-77771427D01*
X166468989Y-77725672D01*
X166538147Y-77715728D01*
X166544692Y-77716849D01*
X166583155Y-77724500D01*
X166583158Y-77724500D01*
X166740844Y-77724500D01*
X166740845Y-77724499D01*
X166895497Y-77693737D01*
X167041179Y-77633394D01*
X167172289Y-77545789D01*
X167283789Y-77434289D01*
X167371394Y-77303179D01*
X167431737Y-77157497D01*
X167462500Y-77002842D01*
X167462500Y-76845158D01*
X167462500Y-76845155D01*
X167462499Y-76845153D01*
X167431739Y-76690511D01*
X167431738Y-76690508D01*
X167431737Y-76690503D01*
X167421937Y-76666844D01*
X167412500Y-76619396D01*
X167412500Y-74818079D01*
X167383659Y-74673092D01*
X167383658Y-74673091D01*
X167383658Y-74673087D01*
X167372940Y-74647212D01*
X167327086Y-74536509D01*
X167327085Y-74536507D01*
X167311621Y-74513364D01*
X167294186Y-74487270D01*
X167294185Y-74487268D01*
X167244956Y-74413589D01*
X167244952Y-74413584D01*
X165108421Y-72277052D01*
X165108414Y-72277046D01*
X165034729Y-72227812D01*
X165034729Y-72227813D01*
X164985491Y-72194913D01*
X164848917Y-72138343D01*
X164848907Y-72138340D01*
X164703920Y-72109500D01*
X164703918Y-72109500D01*
X157884500Y-72109500D01*
X157817461Y-72089815D01*
X157771706Y-72037011D01*
X157760500Y-71985500D01*
X157760500Y-70624604D01*
X157769939Y-70577151D01*
X157779737Y-70553497D01*
X157810500Y-70398842D01*
X157810500Y-70241158D01*
X157810500Y-70241155D01*
X157810499Y-70241153D01*
X157783317Y-70104500D01*
X157779737Y-70086503D01*
X157749456Y-70013397D01*
X157719397Y-69940827D01*
X157719390Y-69940814D01*
X157631789Y-69809711D01*
X157631786Y-69809707D01*
X157520292Y-69698213D01*
X157520288Y-69698210D01*
X157389185Y-69610609D01*
X157389172Y-69610602D01*
X157243501Y-69550264D01*
X157243489Y-69550261D01*
X157088845Y-69519500D01*
X157088842Y-69519500D01*
X156931158Y-69519500D01*
X156931155Y-69519500D01*
X156776510Y-69550261D01*
X156776498Y-69550264D01*
X156630827Y-69610602D01*
X156630814Y-69610609D01*
X156499711Y-69698210D01*
X156499707Y-69698213D01*
X156388213Y-69809707D01*
X156388210Y-69809711D01*
X156300609Y-69940814D01*
X156300602Y-69940827D01*
X156240264Y-70086498D01*
X156240261Y-70086510D01*
X156209500Y-70241153D01*
X81310500Y-70241153D01*
X81310500Y-69225153D01*
X159765500Y-69225153D01*
X159765500Y-69382846D01*
X159796261Y-69537489D01*
X159796264Y-69537501D01*
X159856602Y-69683172D01*
X159856609Y-69683185D01*
X159944210Y-69814288D01*
X159944213Y-69814292D01*
X160055707Y-69925786D01*
X160055711Y-69925789D01*
X160186814Y-70013390D01*
X160186827Y-70013397D01*
X160286060Y-70054500D01*
X160332503Y-70073737D01*
X160487153Y-70104499D01*
X160487156Y-70104500D01*
X160487158Y-70104500D01*
X160644844Y-70104500D01*
X160644845Y-70104499D01*
X160735283Y-70086510D01*
X160799488Y-70073739D01*
X160799489Y-70073738D01*
X160799497Y-70073737D01*
X160823155Y-70063937D01*
X160870604Y-70054500D01*
X167881396Y-70054500D01*
X167928844Y-70063937D01*
X167952503Y-70073737D01*
X167952508Y-70073738D01*
X167952511Y-70073739D01*
X168107153Y-70104499D01*
X168107156Y-70104500D01*
X168107158Y-70104500D01*
X168264844Y-70104500D01*
X168264845Y-70104499D01*
X168419497Y-70073737D01*
X168565179Y-70013394D01*
X168696289Y-69925789D01*
X168807789Y-69814289D01*
X168895394Y-69683179D01*
X168955737Y-69537497D01*
X168986500Y-69382842D01*
X168986500Y-69225158D01*
X168986500Y-69225155D01*
X168986499Y-69225153D01*
X168955738Y-69070510D01*
X168955737Y-69070503D01*
X168955735Y-69070498D01*
X168895397Y-68924827D01*
X168895390Y-68924814D01*
X168807789Y-68793711D01*
X168807786Y-68793707D01*
X168696292Y-68682213D01*
X168696288Y-68682210D01*
X168565185Y-68594609D01*
X168565172Y-68594602D01*
X168419501Y-68534264D01*
X168419489Y-68534261D01*
X168264845Y-68503500D01*
X168264842Y-68503500D01*
X168107158Y-68503500D01*
X168107155Y-68503500D01*
X167952511Y-68534260D01*
X167952506Y-68534262D01*
X167952504Y-68534262D01*
X167952503Y-68534263D01*
X167928844Y-68544062D01*
X167881396Y-68553500D01*
X160870604Y-68553500D01*
X160823155Y-68544062D01*
X160799497Y-68534263D01*
X160799493Y-68534262D01*
X160799488Y-68534260D01*
X160644845Y-68503500D01*
X160644842Y-68503500D01*
X160487158Y-68503500D01*
X160487155Y-68503500D01*
X160332510Y-68534261D01*
X160332498Y-68534264D01*
X160186827Y-68594602D01*
X160186814Y-68594609D01*
X160055711Y-68682210D01*
X160055707Y-68682213D01*
X159944213Y-68793707D01*
X159944210Y-68793711D01*
X159856609Y-68924814D01*
X159856602Y-68924827D01*
X159796264Y-69070498D01*
X159796261Y-69070510D01*
X159765500Y-69225153D01*
X81310500Y-69225153D01*
X81310500Y-58049982D01*
X87699500Y-58049982D01*
X87699500Y-59730017D01*
X87710000Y-59832796D01*
X87757785Y-59977000D01*
X87765186Y-59999335D01*
X87857288Y-60148656D01*
X87981344Y-60272712D01*
X88130665Y-60364814D01*
X88297202Y-60419999D01*
X88399990Y-60430500D01*
X88399995Y-60430500D01*
X91600005Y-60430500D01*
X91600010Y-60430500D01*
X91702798Y-60419999D01*
X91869335Y-60364814D01*
X92018656Y-60272712D01*
X92142712Y-60148656D01*
X92234814Y-59999335D01*
X92289999Y-59832798D01*
X92300500Y-59730010D01*
X92300500Y-58049990D01*
X92289999Y-57947202D01*
X92234814Y-57780665D01*
X92142712Y-57631344D01*
X92018656Y-57507288D01*
X91869335Y-57415186D01*
X91702798Y-57360001D01*
X91702796Y-57360000D01*
X91600017Y-57349500D01*
X91600010Y-57349500D01*
X88399990Y-57349500D01*
X88399982Y-57349500D01*
X88297203Y-57360000D01*
X88297202Y-57360001D01*
X88214669Y-57387349D01*
X88130667Y-57415185D01*
X88130662Y-57415187D01*
X87981342Y-57507289D01*
X87857289Y-57631342D01*
X87765187Y-57780662D01*
X87765185Y-57780667D01*
X87757785Y-57802999D01*
X87710001Y-57947202D01*
X87710001Y-57947203D01*
X87710000Y-57947203D01*
X87699500Y-58049982D01*
X81310500Y-58049982D01*
X81310500Y-47584000D01*
X81330185Y-47516961D01*
X81382989Y-47471206D01*
X81434500Y-47460000D01*
X95926000Y-47460000D01*
X95993039Y-47479685D01*
G37*
%TD.AperFunction*%
%TD*%
M02*
