M48
; DRILL file {KiCad 9.0.3} date 2025-10-17T16:04:43+0200
; FORMAT={-:-/ absolute / metric / decimal}
; #@! TF.CreationDate,2025-10-17T16:04:43+02:00
; #@! TF.GenerationSoftware,Kicad,Pcbnew,9.0.3
; #@! TF.FileFunction,Plated,1,4,PTH
FMAT,2
METRIC
; #@! TA.AperFunction,Plated,PTH,ViaDrill
T1C0.300
; #@! TA.AperFunction,Plated,PTH,ViaDrill
T2C0.600
; #@! TA.AperFunction,Plated,PTH,ComponentDrill
T3C1.100
; #@! TA.AperFunction,Plated,PTH,ComponentDrill
T4C1.190
; #@! TA.AperFunction,Plated,PTH,ComponentDrill
T5C1.300
; #@! TA.AperFunction,Plated,PTH,ComponentDrill
T6C1.400
%
G90
G05
T1
X118.91Y-116.548
X122.974Y-104.356
X123.99Y-104.356
X125.006Y-104.356
X127.8Y-114.77
X133.896Y-112.225
X137.96Y-111.717
X140.754Y-106.642
X141.77Y-106.693
X142.786Y-117.564
X143.294Y-111.209
X145.326Y-117.559
X147.612Y-113.495
X148.12Y-97.752
X148.374Y-99.022
X149.898Y-105.875
X153.962Y-76.924
X155.486Y-83.528
X155.994Y-76.924
X157.01Y-70.32
X157.01Y-76.924
X157.518Y-79.464
X158.026Y-76.924
X158.534Y-71.336
X160.566Y-69.304
X162.09Y-76.924
X162.344Y-98.26
X163.106Y-98.768
X164.122Y-76.924
X164.63Y-75.4
X165.646Y-75.4
X166.662Y-59.144
X166.662Y-65.748
X166.662Y-71.336
X166.662Y-76.924
X168.186Y-69.304
T2
X116.37Y-98.26
X123.482Y-96.736
X151.93Y-75.4
X161.582Y-75.4
T3
X108.75Y-108.42
X108.75Y-110.96
X108.75Y-113.5
X150.96Y-56.35
X150.96Y-58.89
X150.96Y-61.43
X150.96Y-79.21
X150.96Y-81.75
X150.96Y-84.29
X168.74Y-56.35
X168.74Y-58.89
X168.74Y-61.43
X168.74Y-79.21
X168.74Y-81.75
X168.74Y-84.29
T4
X139.23Y-123.66
X141.77Y-123.66
X144.31Y-123.66
X146.85Y-123.66
T5
X88.62Y-115.96
X90.0Y-76.67
X91.12Y-105.96
X93.62Y-115.96
X127.5Y-76.67
T6
X90.0Y-53.81
X90.0Y-58.89
X90.97Y-91.91
X90.97Y-96.99
X121.45Y-123.66
X126.53Y-123.66
M30
