%TF.GenerationSoftware,KiCad,Pcbnew,9.0.3*%
%TF.CreationDate,2025-10-29T18:14:43+01:00*%
%TF.ProjectId,DC_Motor,44435f4d-6f74-46f7-922e-6b696361645f,R.Casas*%
%TF.SameCoordinates,Original*%
%TF.FileFunction,Copper,L1,Top*%
%TF.FilePolarity,Positive*%
%FSLAX46Y46*%
G04 Gerber Fmt 4.6, Leading zero omitted, Abs format (unit mm)*
G04 Created by KiCad (PCBNEW 9.0.3) date 2025-10-29 18:14:43*
%MOMM*%
%LPD*%
G01*
G04 APERTURE LIST*
G04 Aperture macros list*
%AMRoundRect*
0 Rectangle with rounded corners*
0 $1 Rounding radius*
0 $2 $3 $4 $5 $6 $7 $8 $9 X,Y pos of 4 corners*
0 Add a 4 corners polygon primitive as box body*
4,1,4,$2,$3,$4,$5,$6,$7,$8,$9,$2,$3,0*
0 Add four circle primitives for the rounded corners*
1,1,$1+$1,$2,$3*
1,1,$1+$1,$4,$5*
1,1,$1+$1,$6,$7*
1,1,$1+$1,$8,$9*
0 Add four rect primitives between the rounded corners*
20,1,$1+$1,$2,$3,$4,$5,0*
20,1,$1+$1,$4,$5,$6,$7,0*
20,1,$1+$1,$6,$7,$8,$9,0*
20,1,$1+$1,$8,$9,$2,$3,0*%
G04 Aperture macros list end*
%ADD10C,0.250000*%
%TA.AperFunction,NonConductor*%
%ADD11C,0.250000*%
%TD*%
%TA.AperFunction,ComponentPad*%
%ADD12RoundRect,0.249999X1.550001X-0.790001X1.550001X0.790001X-1.550001X0.790001X-1.550001X-0.790001X0*%
%TD*%
%TA.AperFunction,ComponentPad*%
%ADD13O,3.600000X2.080000*%
%TD*%
%TA.AperFunction,SMDPad,CuDef*%
%ADD14RoundRect,0.225000X-0.250000X0.225000X-0.250000X-0.225000X0.250000X-0.225000X0.250000X0.225000X0*%
%TD*%
%TA.AperFunction,ComponentPad*%
%ADD15RoundRect,0.250000X-0.620000X-0.845000X0.620000X-0.845000X0.620000X0.845000X-0.620000X0.845000X0*%
%TD*%
%TA.AperFunction,ComponentPad*%
%ADD16O,1.740000X2.190000*%
%TD*%
%TA.AperFunction,SMDPad,CuDef*%
%ADD17RoundRect,0.100000X-0.100000X0.217500X-0.100000X-0.217500X0.100000X-0.217500X0.100000X0.217500X0*%
%TD*%
%TA.AperFunction,SMDPad,CuDef*%
%ADD18RoundRect,0.250000X-0.650000X1.000000X-0.650000X-1.000000X0.650000X-1.000000X0.650000X1.000000X0*%
%TD*%
%TA.AperFunction,SMDPad,CuDef*%
%ADD19RoundRect,0.225000X-0.225000X-0.250000X0.225000X-0.250000X0.225000X0.250000X-0.225000X0.250000X0*%
%TD*%
%TA.AperFunction,SMDPad,CuDef*%
%ADD20RoundRect,0.237500X0.287500X0.237500X-0.287500X0.237500X-0.287500X-0.237500X0.287500X-0.237500X0*%
%TD*%
%TA.AperFunction,SMDPad,CuDef*%
%ADD21RoundRect,0.125000X0.125000X-0.625000X0.125000X0.625000X-0.125000X0.625000X-0.125000X-0.625000X0*%
%TD*%
%TA.AperFunction,SMDPad,CuDef*%
%ADD22RoundRect,0.125000X0.625000X-0.125000X0.625000X0.125000X-0.625000X0.125000X-0.625000X-0.125000X0*%
%TD*%
%TA.AperFunction,ComponentPad*%
%ADD23R,2.000000X1.905000*%
%TD*%
%TA.AperFunction,ComponentPad*%
%ADD24O,2.000000X1.905000*%
%TD*%
%TA.AperFunction,ComponentPad*%
%ADD25O,3.250000X6.000000*%
%TD*%
%TA.AperFunction,SMDPad,CuDef*%
%ADD26RoundRect,0.225000X0.225000X0.250000X-0.225000X0.250000X-0.225000X-0.250000X0.225000X-0.250000X0*%
%TD*%
%TA.AperFunction,SMDPad,CuDef*%
%ADD27C,1.000000*%
%TD*%
%TA.AperFunction,SMDPad,CuDef*%
%ADD28RoundRect,0.237500X-0.237500X0.300000X-0.237500X-0.300000X0.237500X-0.300000X0.237500X0.300000X0*%
%TD*%
%TA.AperFunction,SMDPad,CuDef*%
%ADD29RoundRect,0.200000X-0.200000X-0.275000X0.200000X-0.275000X0.200000X0.275000X-0.200000X0.275000X0*%
%TD*%
%TA.AperFunction,SMDPad,CuDef*%
%ADD30RoundRect,0.250000X-1.000000X-0.650000X1.000000X-0.650000X1.000000X0.650000X-1.000000X0.650000X0*%
%TD*%
%TA.AperFunction,SMDPad,CuDef*%
%ADD31RoundRect,0.250000X0.550000X-1.075000X0.550000X1.075000X-0.550000X1.075000X-0.550000X-1.075000X0*%
%TD*%
%TA.AperFunction,SMDPad,CuDef*%
%ADD32RoundRect,0.237500X0.300000X0.237500X-0.300000X0.237500X-0.300000X-0.237500X0.300000X-0.237500X0*%
%TD*%
%TA.AperFunction,SMDPad,CuDef*%
%ADD33RoundRect,0.100000X0.100000X-0.217500X0.100000X0.217500X-0.100000X0.217500X-0.100000X-0.217500X0*%
%TD*%
%TA.AperFunction,SMDPad,CuDef*%
%ADD34RoundRect,0.200000X0.200000X0.275000X-0.200000X0.275000X-0.200000X-0.275000X0.200000X-0.275000X0*%
%TD*%
%TA.AperFunction,ComponentPad*%
%ADD35C,2.340000*%
%TD*%
%TA.AperFunction,SMDPad,CuDef*%
%ADD36RoundRect,0.071250X0.213750X-0.903750X0.213750X0.903750X-0.213750X0.903750X-0.213750X-0.903750X0*%
%TD*%
%TA.AperFunction,ComponentPad*%
%ADD37RoundRect,0.249999X0.790001X1.550001X-0.790001X1.550001X-0.790001X-1.550001X0.790001X-1.550001X0*%
%TD*%
%TA.AperFunction,ComponentPad*%
%ADD38O,2.080000X3.600000*%
%TD*%
%TA.AperFunction,ViaPad*%
%ADD39C,0.600000*%
%TD*%
%TA.AperFunction,ViaPad*%
%ADD40C,0.800000*%
%TD*%
%TA.AperFunction,Conductor*%
%ADD41C,1.000000*%
%TD*%
%TA.AperFunction,Conductor*%
%ADD42C,0.500000*%
%TD*%
%TA.AperFunction,Conductor*%
%ADD43C,4.572000*%
%TD*%
%TA.AperFunction,Conductor*%
%ADD44C,0.400000*%
%TD*%
%TA.AperFunction,Conductor*%
%ADD45C,2.000000*%
%TD*%
%TA.AperFunction,Conductor*%
%ADD46C,2.540000*%
%TD*%
%TA.AperFunction,Conductor*%
%ADD47C,0.600000*%
%TD*%
G04 APERTURE END LIST*
D10*
D11*
X159595330Y-112819428D02*
X159881044Y-112819428D01*
X159881044Y-112819428D02*
X160023901Y-112890857D01*
X160023901Y-112890857D02*
X160166758Y-113033714D01*
X160166758Y-113033714D02*
X160238187Y-113319428D01*
X160238187Y-113319428D02*
X160238187Y-113819428D01*
X160238187Y-113819428D02*
X160166758Y-114105142D01*
X160166758Y-114105142D02*
X160023901Y-114248000D01*
X160023901Y-114248000D02*
X159881044Y-114319428D01*
X159881044Y-114319428D02*
X159595330Y-114319428D01*
X159595330Y-114319428D02*
X159452473Y-114248000D01*
X159452473Y-114248000D02*
X159309615Y-114105142D01*
X159309615Y-114105142D02*
X159238187Y-113819428D01*
X159238187Y-113819428D02*
X159238187Y-113319428D01*
X159238187Y-113319428D02*
X159309615Y-113033714D01*
X159309615Y-113033714D02*
X159452473Y-112890857D01*
X159452473Y-112890857D02*
X159595330Y-112819428D01*
X161738187Y-114176571D02*
X161666759Y-114248000D01*
X161666759Y-114248000D02*
X161452473Y-114319428D01*
X161452473Y-114319428D02*
X161309616Y-114319428D01*
X161309616Y-114319428D02*
X161095330Y-114248000D01*
X161095330Y-114248000D02*
X160952473Y-114105142D01*
X160952473Y-114105142D02*
X160881044Y-113962285D01*
X160881044Y-113962285D02*
X160809616Y-113676571D01*
X160809616Y-113676571D02*
X160809616Y-113462285D01*
X160809616Y-113462285D02*
X160881044Y-113176571D01*
X160881044Y-113176571D02*
X160952473Y-113033714D01*
X160952473Y-113033714D02*
X161095330Y-112890857D01*
X161095330Y-112890857D02*
X161309616Y-112819428D01*
X161309616Y-112819428D02*
X161452473Y-112819428D01*
X161452473Y-112819428D02*
X161666759Y-112890857D01*
X161666759Y-112890857D02*
X161738187Y-112962285D01*
X162166759Y-112819428D02*
X163023902Y-112819428D01*
X162595330Y-114319428D02*
X162595330Y-112819428D01*
X163809616Y-112819428D02*
X164095330Y-112819428D01*
X164095330Y-112819428D02*
X164238187Y-112890857D01*
X164238187Y-112890857D02*
X164381044Y-113033714D01*
X164381044Y-113033714D02*
X164452473Y-113319428D01*
X164452473Y-113319428D02*
X164452473Y-113819428D01*
X164452473Y-113819428D02*
X164381044Y-114105142D01*
X164381044Y-114105142D02*
X164238187Y-114248000D01*
X164238187Y-114248000D02*
X164095330Y-114319428D01*
X164095330Y-114319428D02*
X163809616Y-114319428D01*
X163809616Y-114319428D02*
X163666759Y-114248000D01*
X163666759Y-114248000D02*
X163523901Y-114105142D01*
X163523901Y-114105142D02*
X163452473Y-113819428D01*
X163452473Y-113819428D02*
X163452473Y-113319428D01*
X163452473Y-113319428D02*
X163523901Y-113033714D01*
X163523901Y-113033714D02*
X163666759Y-112890857D01*
X163666759Y-112890857D02*
X163809616Y-112819428D01*
X165595330Y-113533714D02*
X165809616Y-113605142D01*
X165809616Y-113605142D02*
X165881045Y-113676571D01*
X165881045Y-113676571D02*
X165952473Y-113819428D01*
X165952473Y-113819428D02*
X165952473Y-114033714D01*
X165952473Y-114033714D02*
X165881045Y-114176571D01*
X165881045Y-114176571D02*
X165809616Y-114248000D01*
X165809616Y-114248000D02*
X165666759Y-114319428D01*
X165666759Y-114319428D02*
X165095330Y-114319428D01*
X165095330Y-114319428D02*
X165095330Y-112819428D01*
X165095330Y-112819428D02*
X165595330Y-112819428D01*
X165595330Y-112819428D02*
X165738188Y-112890857D01*
X165738188Y-112890857D02*
X165809616Y-112962285D01*
X165809616Y-112962285D02*
X165881045Y-113105142D01*
X165881045Y-113105142D02*
X165881045Y-113248000D01*
X165881045Y-113248000D02*
X165809616Y-113390857D01*
X165809616Y-113390857D02*
X165738188Y-113462285D01*
X165738188Y-113462285D02*
X165595330Y-113533714D01*
X165595330Y-113533714D02*
X165095330Y-113533714D01*
X166595330Y-113533714D02*
X167095330Y-113533714D01*
X167309616Y-114319428D02*
X166595330Y-114319428D01*
X166595330Y-114319428D02*
X166595330Y-112819428D01*
X166595330Y-112819428D02*
X167309616Y-112819428D01*
X168809616Y-114319428D02*
X168309616Y-113605142D01*
X167952473Y-114319428D02*
X167952473Y-112819428D01*
X167952473Y-112819428D02*
X168523902Y-112819428D01*
X168523902Y-112819428D02*
X168666759Y-112890857D01*
X168666759Y-112890857D02*
X168738188Y-112962285D01*
X168738188Y-112962285D02*
X168809616Y-113105142D01*
X168809616Y-113105142D02*
X168809616Y-113319428D01*
X168809616Y-113319428D02*
X168738188Y-113462285D01*
X168738188Y-113462285D02*
X168666759Y-113533714D01*
X168666759Y-113533714D02*
X168523902Y-113605142D01*
X168523902Y-113605142D02*
X167952473Y-113605142D01*
X170523902Y-112962285D02*
X170595330Y-112890857D01*
X170595330Y-112890857D02*
X170738188Y-112819428D01*
X170738188Y-112819428D02*
X171095330Y-112819428D01*
X171095330Y-112819428D02*
X171238188Y-112890857D01*
X171238188Y-112890857D02*
X171309616Y-112962285D01*
X171309616Y-112962285D02*
X171381045Y-113105142D01*
X171381045Y-113105142D02*
X171381045Y-113248000D01*
X171381045Y-113248000D02*
X171309616Y-113462285D01*
X171309616Y-113462285D02*
X170452473Y-114319428D01*
X170452473Y-114319428D02*
X171381045Y-114319428D01*
X172309616Y-112819428D02*
X172452473Y-112819428D01*
X172452473Y-112819428D02*
X172595330Y-112890857D01*
X172595330Y-112890857D02*
X172666759Y-112962285D01*
X172666759Y-112962285D02*
X172738187Y-113105142D01*
X172738187Y-113105142D02*
X172809616Y-113390857D01*
X172809616Y-113390857D02*
X172809616Y-113748000D01*
X172809616Y-113748000D02*
X172738187Y-114033714D01*
X172738187Y-114033714D02*
X172666759Y-114176571D01*
X172666759Y-114176571D02*
X172595330Y-114248000D01*
X172595330Y-114248000D02*
X172452473Y-114319428D01*
X172452473Y-114319428D02*
X172309616Y-114319428D01*
X172309616Y-114319428D02*
X172166759Y-114248000D01*
X172166759Y-114248000D02*
X172095330Y-114176571D01*
X172095330Y-114176571D02*
X172023901Y-114033714D01*
X172023901Y-114033714D02*
X171952473Y-113748000D01*
X171952473Y-113748000D02*
X171952473Y-113390857D01*
X171952473Y-113390857D02*
X172023901Y-113105142D01*
X172023901Y-113105142D02*
X172095330Y-112962285D01*
X172095330Y-112962285D02*
X172166759Y-112890857D01*
X172166759Y-112890857D02*
X172309616Y-112819428D01*
X173381044Y-112962285D02*
X173452472Y-112890857D01*
X173452472Y-112890857D02*
X173595330Y-112819428D01*
X173595330Y-112819428D02*
X173952472Y-112819428D01*
X173952472Y-112819428D02*
X174095330Y-112890857D01*
X174095330Y-112890857D02*
X174166758Y-112962285D01*
X174166758Y-112962285D02*
X174238187Y-113105142D01*
X174238187Y-113105142D02*
X174238187Y-113248000D01*
X174238187Y-113248000D02*
X174166758Y-113462285D01*
X174166758Y-113462285D02*
X173309615Y-114319428D01*
X173309615Y-114319428D02*
X174238187Y-114319428D01*
X175595329Y-112819428D02*
X174881043Y-112819428D01*
X174881043Y-112819428D02*
X174809615Y-113533714D01*
X174809615Y-113533714D02*
X174881043Y-113462285D01*
X174881043Y-113462285D02*
X175023901Y-113390857D01*
X175023901Y-113390857D02*
X175381043Y-113390857D01*
X175381043Y-113390857D02*
X175523901Y-113462285D01*
X175523901Y-113462285D02*
X175595329Y-113533714D01*
X175595329Y-113533714D02*
X175666758Y-113676571D01*
X175666758Y-113676571D02*
X175666758Y-114033714D01*
X175666758Y-114033714D02*
X175595329Y-114176571D01*
X175595329Y-114176571D02*
X175523901Y-114248000D01*
X175523901Y-114248000D02*
X175381043Y-114319428D01*
X175381043Y-114319428D02*
X175023901Y-114319428D01*
X175023901Y-114319428D02*
X174881043Y-114248000D01*
X174881043Y-114248000D02*
X174809615Y-114176571D01*
D10*
D11*
X164484758Y-111017428D02*
X163984758Y-110303142D01*
X163627615Y-111017428D02*
X163627615Y-109517428D01*
X163627615Y-109517428D02*
X164199044Y-109517428D01*
X164199044Y-109517428D02*
X164341901Y-109588857D01*
X164341901Y-109588857D02*
X164413330Y-109660285D01*
X164413330Y-109660285D02*
X164484758Y-109803142D01*
X164484758Y-109803142D02*
X164484758Y-110017428D01*
X164484758Y-110017428D02*
X164413330Y-110160285D01*
X164413330Y-110160285D02*
X164341901Y-110231714D01*
X164341901Y-110231714D02*
X164199044Y-110303142D01*
X164199044Y-110303142D02*
X163627615Y-110303142D01*
X165127615Y-110874571D02*
X165199044Y-110946000D01*
X165199044Y-110946000D02*
X165127615Y-111017428D01*
X165127615Y-111017428D02*
X165056187Y-110946000D01*
X165056187Y-110946000D02*
X165127615Y-110874571D01*
X165127615Y-110874571D02*
X165127615Y-111017428D01*
X166699044Y-110874571D02*
X166627616Y-110946000D01*
X166627616Y-110946000D02*
X166413330Y-111017428D01*
X166413330Y-111017428D02*
X166270473Y-111017428D01*
X166270473Y-111017428D02*
X166056187Y-110946000D01*
X166056187Y-110946000D02*
X165913330Y-110803142D01*
X165913330Y-110803142D02*
X165841901Y-110660285D01*
X165841901Y-110660285D02*
X165770473Y-110374571D01*
X165770473Y-110374571D02*
X165770473Y-110160285D01*
X165770473Y-110160285D02*
X165841901Y-109874571D01*
X165841901Y-109874571D02*
X165913330Y-109731714D01*
X165913330Y-109731714D02*
X166056187Y-109588857D01*
X166056187Y-109588857D02*
X166270473Y-109517428D01*
X166270473Y-109517428D02*
X166413330Y-109517428D01*
X166413330Y-109517428D02*
X166627616Y-109588857D01*
X166627616Y-109588857D02*
X166699044Y-109660285D01*
X167270473Y-110588857D02*
X167984759Y-110588857D01*
X167127616Y-111017428D02*
X167627616Y-109517428D01*
X167627616Y-109517428D02*
X168127616Y-111017428D01*
X168556187Y-110946000D02*
X168770473Y-111017428D01*
X168770473Y-111017428D02*
X169127615Y-111017428D01*
X169127615Y-111017428D02*
X169270473Y-110946000D01*
X169270473Y-110946000D02*
X169341901Y-110874571D01*
X169341901Y-110874571D02*
X169413330Y-110731714D01*
X169413330Y-110731714D02*
X169413330Y-110588857D01*
X169413330Y-110588857D02*
X169341901Y-110446000D01*
X169341901Y-110446000D02*
X169270473Y-110374571D01*
X169270473Y-110374571D02*
X169127615Y-110303142D01*
X169127615Y-110303142D02*
X168841901Y-110231714D01*
X168841901Y-110231714D02*
X168699044Y-110160285D01*
X168699044Y-110160285D02*
X168627615Y-110088857D01*
X168627615Y-110088857D02*
X168556187Y-109946000D01*
X168556187Y-109946000D02*
X168556187Y-109803142D01*
X168556187Y-109803142D02*
X168627615Y-109660285D01*
X168627615Y-109660285D02*
X168699044Y-109588857D01*
X168699044Y-109588857D02*
X168841901Y-109517428D01*
X168841901Y-109517428D02*
X169199044Y-109517428D01*
X169199044Y-109517428D02*
X169413330Y-109588857D01*
X169984758Y-110588857D02*
X170699044Y-110588857D01*
X169841901Y-111017428D02*
X170341901Y-109517428D01*
X170341901Y-109517428D02*
X170841901Y-111017428D01*
X171270472Y-110946000D02*
X171484758Y-111017428D01*
X171484758Y-111017428D02*
X171841900Y-111017428D01*
X171841900Y-111017428D02*
X171984758Y-110946000D01*
X171984758Y-110946000D02*
X172056186Y-110874571D01*
X172056186Y-110874571D02*
X172127615Y-110731714D01*
X172127615Y-110731714D02*
X172127615Y-110588857D01*
X172127615Y-110588857D02*
X172056186Y-110446000D01*
X172056186Y-110446000D02*
X171984758Y-110374571D01*
X171984758Y-110374571D02*
X171841900Y-110303142D01*
X171841900Y-110303142D02*
X171556186Y-110231714D01*
X171556186Y-110231714D02*
X171413329Y-110160285D01*
X171413329Y-110160285D02*
X171341900Y-110088857D01*
X171341900Y-110088857D02*
X171270472Y-109946000D01*
X171270472Y-109946000D02*
X171270472Y-109803142D01*
X171270472Y-109803142D02*
X171341900Y-109660285D01*
X171341900Y-109660285D02*
X171413329Y-109588857D01*
X171413329Y-109588857D02*
X171556186Y-109517428D01*
X171556186Y-109517428D02*
X171913329Y-109517428D01*
X171913329Y-109517428D02*
X172127615Y-109588857D01*
D10*
D11*
X157531615Y-107461428D02*
X157531615Y-105961428D01*
X157531615Y-105961428D02*
X158103044Y-105961428D01*
X158103044Y-105961428D02*
X158245901Y-106032857D01*
X158245901Y-106032857D02*
X158317330Y-106104285D01*
X158317330Y-106104285D02*
X158388758Y-106247142D01*
X158388758Y-106247142D02*
X158388758Y-106461428D01*
X158388758Y-106461428D02*
X158317330Y-106604285D01*
X158317330Y-106604285D02*
X158245901Y-106675714D01*
X158245901Y-106675714D02*
X158103044Y-106747142D01*
X158103044Y-106747142D02*
X157531615Y-106747142D01*
X159888758Y-107461428D02*
X159388758Y-106747142D01*
X159031615Y-107461428D02*
X159031615Y-105961428D01*
X159031615Y-105961428D02*
X159603044Y-105961428D01*
X159603044Y-105961428D02*
X159745901Y-106032857D01*
X159745901Y-106032857D02*
X159817330Y-106104285D01*
X159817330Y-106104285D02*
X159888758Y-106247142D01*
X159888758Y-106247142D02*
X159888758Y-106461428D01*
X159888758Y-106461428D02*
X159817330Y-106604285D01*
X159817330Y-106604285D02*
X159745901Y-106675714D01*
X159745901Y-106675714D02*
X159603044Y-106747142D01*
X159603044Y-106747142D02*
X159031615Y-106747142D01*
X160817330Y-105961428D02*
X161103044Y-105961428D01*
X161103044Y-105961428D02*
X161245901Y-106032857D01*
X161245901Y-106032857D02*
X161388758Y-106175714D01*
X161388758Y-106175714D02*
X161460187Y-106461428D01*
X161460187Y-106461428D02*
X161460187Y-106961428D01*
X161460187Y-106961428D02*
X161388758Y-107247142D01*
X161388758Y-107247142D02*
X161245901Y-107390000D01*
X161245901Y-107390000D02*
X161103044Y-107461428D01*
X161103044Y-107461428D02*
X160817330Y-107461428D01*
X160817330Y-107461428D02*
X160674473Y-107390000D01*
X160674473Y-107390000D02*
X160531615Y-107247142D01*
X160531615Y-107247142D02*
X160460187Y-106961428D01*
X160460187Y-106961428D02*
X160460187Y-106461428D01*
X160460187Y-106461428D02*
X160531615Y-106175714D01*
X160531615Y-106175714D02*
X160674473Y-106032857D01*
X160674473Y-106032857D02*
X160817330Y-105961428D01*
X161888759Y-105961428D02*
X162745902Y-105961428D01*
X162317330Y-107461428D02*
X162317330Y-105961428D01*
X163531616Y-105961428D02*
X163817330Y-105961428D01*
X163817330Y-105961428D02*
X163960187Y-106032857D01*
X163960187Y-106032857D02*
X164103044Y-106175714D01*
X164103044Y-106175714D02*
X164174473Y-106461428D01*
X164174473Y-106461428D02*
X164174473Y-106961428D01*
X164174473Y-106961428D02*
X164103044Y-107247142D01*
X164103044Y-107247142D02*
X163960187Y-107390000D01*
X163960187Y-107390000D02*
X163817330Y-107461428D01*
X163817330Y-107461428D02*
X163531616Y-107461428D01*
X163531616Y-107461428D02*
X163388759Y-107390000D01*
X163388759Y-107390000D02*
X163245901Y-107247142D01*
X163245901Y-107247142D02*
X163174473Y-106961428D01*
X163174473Y-106961428D02*
X163174473Y-106461428D01*
X163174473Y-106461428D02*
X163245901Y-106175714D01*
X163245901Y-106175714D02*
X163388759Y-106032857D01*
X163388759Y-106032857D02*
X163531616Y-105961428D01*
X164460188Y-107604285D02*
X165603045Y-107604285D01*
X165960187Y-107461428D02*
X165960187Y-105961428D01*
X165960187Y-105961428D02*
X166317330Y-105961428D01*
X166317330Y-105961428D02*
X166531616Y-106032857D01*
X166531616Y-106032857D02*
X166674473Y-106175714D01*
X166674473Y-106175714D02*
X166745902Y-106318571D01*
X166745902Y-106318571D02*
X166817330Y-106604285D01*
X166817330Y-106604285D02*
X166817330Y-106818571D01*
X166817330Y-106818571D02*
X166745902Y-107104285D01*
X166745902Y-107104285D02*
X166674473Y-107247142D01*
X166674473Y-107247142D02*
X166531616Y-107390000D01*
X166531616Y-107390000D02*
X166317330Y-107461428D01*
X166317330Y-107461428D02*
X165960187Y-107461428D01*
X168317330Y-107318571D02*
X168245902Y-107390000D01*
X168245902Y-107390000D02*
X168031616Y-107461428D01*
X168031616Y-107461428D02*
X167888759Y-107461428D01*
X167888759Y-107461428D02*
X167674473Y-107390000D01*
X167674473Y-107390000D02*
X167531616Y-107247142D01*
X167531616Y-107247142D02*
X167460187Y-107104285D01*
X167460187Y-107104285D02*
X167388759Y-106818571D01*
X167388759Y-106818571D02*
X167388759Y-106604285D01*
X167388759Y-106604285D02*
X167460187Y-106318571D01*
X167460187Y-106318571D02*
X167531616Y-106175714D01*
X167531616Y-106175714D02*
X167674473Y-106032857D01*
X167674473Y-106032857D02*
X167888759Y-105961428D01*
X167888759Y-105961428D02*
X168031616Y-105961428D01*
X168031616Y-105961428D02*
X168245902Y-106032857D01*
X168245902Y-106032857D02*
X168317330Y-106104285D01*
X168603045Y-107604285D02*
X169745902Y-107604285D01*
X170103044Y-107461428D02*
X170103044Y-105961428D01*
X170103044Y-105961428D02*
X170460187Y-105961428D01*
X170460187Y-105961428D02*
X170674473Y-106032857D01*
X170674473Y-106032857D02*
X170817330Y-106175714D01*
X170817330Y-106175714D02*
X170888759Y-106318571D01*
X170888759Y-106318571D02*
X170960187Y-106604285D01*
X170960187Y-106604285D02*
X170960187Y-106818571D01*
X170960187Y-106818571D02*
X170888759Y-107104285D01*
X170888759Y-107104285D02*
X170817330Y-107247142D01*
X170817330Y-107247142D02*
X170674473Y-107390000D01*
X170674473Y-107390000D02*
X170460187Y-107461428D01*
X170460187Y-107461428D02*
X170103044Y-107461428D01*
X172460187Y-107461428D02*
X171960187Y-106747142D01*
X171603044Y-107461428D02*
X171603044Y-105961428D01*
X171603044Y-105961428D02*
X172174473Y-105961428D01*
X172174473Y-105961428D02*
X172317330Y-106032857D01*
X172317330Y-106032857D02*
X172388759Y-106104285D01*
X172388759Y-106104285D02*
X172460187Y-106247142D01*
X172460187Y-106247142D02*
X172460187Y-106461428D01*
X172460187Y-106461428D02*
X172388759Y-106604285D01*
X172388759Y-106604285D02*
X172317330Y-106675714D01*
X172317330Y-106675714D02*
X172174473Y-106747142D01*
X172174473Y-106747142D02*
X171603044Y-106747142D01*
X173103044Y-107461428D02*
X173103044Y-105961428D01*
X173603045Y-105961428D02*
X174103045Y-107461428D01*
X174103045Y-107461428D02*
X174603045Y-105961428D01*
X175103044Y-106675714D02*
X175603044Y-106675714D01*
X175817330Y-107461428D02*
X175103044Y-107461428D01*
X175103044Y-107461428D02*
X175103044Y-105961428D01*
X175103044Y-105961428D02*
X175817330Y-105961428D01*
X177317330Y-107461428D02*
X176817330Y-106747142D01*
X176460187Y-107461428D02*
X176460187Y-105961428D01*
X176460187Y-105961428D02*
X177031616Y-105961428D01*
X177031616Y-105961428D02*
X177174473Y-106032857D01*
X177174473Y-106032857D02*
X177245902Y-106104285D01*
X177245902Y-106104285D02*
X177317330Y-106247142D01*
X177317330Y-106247142D02*
X177317330Y-106461428D01*
X177317330Y-106461428D02*
X177245902Y-106604285D01*
X177245902Y-106604285D02*
X177174473Y-106675714D01*
X177174473Y-106675714D02*
X177031616Y-106747142D01*
X177031616Y-106747142D02*
X176460187Y-106747142D01*
D12*
%TO.P,J101,1,Pin_1*%
%TO.N,L1*%
X90970000Y-96990000D03*
D13*
%TO.P,J101,2,Pin_2*%
%TO.N,L2*%
X90970000Y-91910000D03*
%TD*%
D14*
%TO.P,C113,1*%
%TO.N,+24V*%
X154978000Y-75133000D03*
%TO.P,C113,2*%
%TO.N,GNDREF*%
X154978000Y-76683000D03*
%TD*%
D15*
%TO.P,J102,1,Pin_1*%
%TO.N,GNDREF*%
X139230000Y-123660000D03*
D16*
%TO.P,J102,2,Pin_2*%
%TO.N,SYS_SWCLK*%
X141770000Y-123660000D03*
%TO.P,J102,3,Pin_3*%
%TO.N,SYS_SWDIO*%
X144310000Y-123660000D03*
%TO.P,J102,4,Pin_4*%
%TO.N,+3V3*%
X146850000Y-123660000D03*
%TD*%
D17*
%TO.P,R109,1*%
%TO.N,+3V3*%
X123990000Y-112572500D03*
%TO.P,R109,2*%
%TO.N,Net-(D104-A)*%
X123990000Y-113387500D03*
%TD*%
%TO.P,R104,1*%
%TO.N,+3V3*%
X118910000Y-110985000D03*
%TO.P,R104,2*%
%TO.N,Net-(D103-A)*%
X118910000Y-111800000D03*
%TD*%
D18*
%TO.P,D101,1,K*%
%TO.N,+24V*%
X113830000Y-103880000D03*
%TO.P,D101,2,A*%
%TO.N,+3V3*%
X113830000Y-107880000D03*
%TD*%
D19*
%TO.P,C107,1*%
%TO.N,+3V3*%
X148361000Y-104605475D03*
%TO.P,C107,2*%
%TO.N,GNDREF*%
X149911000Y-104605475D03*
%TD*%
D20*
%TO.P,D104,1,K*%
%TO.N,GNDREF*%
X126135000Y-114770000D03*
%TO.P,D104,2,A*%
%TO.N,Net-(D104-A)*%
X124385000Y-114770000D03*
%TD*%
D21*
%TO.P,U101,1,VDD*%
%TO.N,+3V3*%
X140748000Y-112952475D03*
%TO.P,U101,2,PF0*%
%TO.N,unconnected-(U101-PF0-Pad2)*%
X141548000Y-112952475D03*
%TO.P,U101,3,PF1*%
%TO.N,unconnected-(U101-PF1-Pad3)*%
X142348000Y-112952475D03*
%TO.P,U101,4,NRST*%
%TO.N,Net-(U101-NRST)*%
X143148000Y-112952475D03*
%TO.P,U101,5,VDDA*%
%TO.N,+3V3*%
X143948000Y-112952475D03*
%TO.P,U101,6,PA0*%
%TO.N,unconnected-(U101-PA0-Pad6)*%
X144748000Y-112952475D03*
%TO.P,U101,7,PA1*%
%TO.N,unconnected-(U101-PA1-Pad7)*%
X145548000Y-112952475D03*
%TO.P,U101,8,USART1_TX*%
%TO.N,USART1_TX*%
X146348000Y-112952475D03*
D22*
%TO.P,U101,9,USART1_RX*%
%TO.N,USART1_RX*%
X147723000Y-111577475D03*
%TO.P,U101,10,PA4*%
%TO.N,unconnected-(U101-PA4-Pad10)*%
X147723000Y-110777475D03*
%TO.P,U101,11,PA5*%
%TO.N,unconnected-(U101-PA5-Pad11)*%
X147723000Y-109977475D03*
%TO.P,U101,12,TIM3_CH1*%
%TO.N,LIN1*%
X147723000Y-109177475D03*
%TO.P,U101,13,PA7*%
%TO.N,HIN1*%
X147723000Y-108377475D03*
%TO.P,U101,14,PB0*%
%TO.N,unconnected-(U101-PB0-Pad14)*%
X147723000Y-107577475D03*
%TO.P,U101,15,PB1*%
%TO.N,unconnected-(U101-PB1-Pad15)*%
X147723000Y-106777475D03*
%TO.P,U101,16,VSS*%
%TO.N,GNDREF*%
X147723000Y-105977475D03*
D21*
%TO.P,U101,17,VDD*%
%TO.N,+3V3*%
X146348000Y-104602475D03*
%TO.P,U101,18,TIM1_CH1*%
%TO.N,LIN2*%
X145548000Y-104602475D03*
%TO.P,U101,19,PA9*%
%TO.N,HIN2*%
X144748000Y-104602475D03*
%TO.P,U101,20,PA10*%
%TO.N,unconnected-(U101-PA10-Pad20)*%
X143948000Y-104602475D03*
%TO.P,U101,21,PA11*%
%TO.N,unconnected-(U101-PA11-Pad21)*%
X143148000Y-104602475D03*
%TO.P,U101,22,PA12*%
%TO.N,unconnected-(U101-PA12-Pad22)*%
X142348000Y-104602475D03*
%TO.P,U101,23,SYS_SWDIO*%
%TO.N,SYS_SWDIO*%
X141548000Y-104602475D03*
%TO.P,U101,24,SYS_SWCLK*%
%TO.N,SYS_SWCLK*%
X140748000Y-104602475D03*
D22*
%TO.P,U101,25,PA15*%
%TO.N,unconnected-(U101-PA15-Pad25)*%
X139373000Y-105977475D03*
%TO.P,U101,26,PB3*%
%TO.N,unconnected-(U101-PB3-Pad26)*%
X139373000Y-106777475D03*
%TO.P,U101,27,PB4*%
%TO.N,unconnected-(U101-PB4-Pad27)*%
X139373000Y-107577475D03*
%TO.P,U101,28,PB5*%
%TO.N,unconnected-(U101-PB5-Pad28)*%
X139373000Y-108377475D03*
%TO.P,U101,29,PB6*%
%TO.N,unconnected-(U101-PB6-Pad29)*%
X139373000Y-109177475D03*
%TO.P,U101,30,PB7*%
%TO.N,unconnected-(U101-PB7-Pad30)*%
X139373000Y-109977475D03*
%TO.P,U101,31,BOOT0*%
%TO.N,Net-(U101-BOOT0)*%
X139373000Y-110777475D03*
%TO.P,U101,32,VSS*%
%TO.N,GNDREF*%
X139373000Y-111577475D03*
%TD*%
D23*
%TO.P,U102,1,ADJ*%
%TO.N,Net-(D103-A)*%
X108750000Y-113500000D03*
D24*
%TO.P,U102,2,VO*%
%TO.N,+3V3*%
X108750000Y-110960000D03*
%TO.P,U102,3,VI*%
%TO.N,+24V*%
X108750000Y-108420000D03*
%TD*%
D25*
%TO.P,F101,1*%
%TO.N,VDD*%
X90000000Y-76670000D03*
%TO.P,F101,2*%
%TO.N,VDD_P*%
X127500000Y-76670000D03*
%TD*%
D26*
%TO.P,C101,1*%
%TO.N,Net-(U101-NRST)*%
X146863000Y-116289475D03*
%TO.P,C101,2*%
%TO.N,GNDREF*%
X145313000Y-116289475D03*
%TD*%
D27*
%TO.P,FID102,*%
%TO.N,*%
X164630000Y-42380000D03*
%TD*%
D28*
%TO.P,C103,1*%
%TO.N,+24V*%
X106210000Y-110097500D03*
%TO.P,C103,2*%
%TO.N,Net-(D103-A)*%
X106210000Y-111822500D03*
%TD*%
D27*
%TO.P,FID101,*%
%TO.N,*%
X98590000Y-42380000D03*
%TD*%
D29*
%TO.P,R102,1*%
%TO.N,+3V3*%
X135103000Y-110701475D03*
%TO.P,R102,2*%
%TO.N,Net-(U101-BOOT0)*%
X136753000Y-110701475D03*
%TD*%
%TO.P,R101,1*%
%TO.N,+3V3*%
X145263000Y-114765475D03*
%TO.P,R101,2*%
%TO.N,Net-(U101-NRST)*%
X146913000Y-114765475D03*
%TD*%
D19*
%TO.P,C105,1*%
%TO.N,+3V3*%
X148361000Y-101557475D03*
%TO.P,C105,2*%
%TO.N,GNDREF*%
X149911000Y-101557475D03*
%TD*%
D26*
%TO.P,C109,1*%
%TO.N,+3V3*%
X143815000Y-114765475D03*
%TO.P,C109,2*%
%TO.N,GNDREF*%
X142265000Y-114765475D03*
%TD*%
D30*
%TO.P,D102,1,K*%
%TO.N,+24V*%
X109290000Y-98260000D03*
%TO.P,D102,2,A*%
%TO.N,VDD_P*%
X113290000Y-98260000D03*
%TD*%
D31*
%TO.P,C102,1*%
%TO.N,+3V3*%
X123990000Y-110095000D03*
%TO.P,C102,2*%
%TO.N,GNDREF*%
X123990000Y-106745000D03*
%TD*%
D18*
%TO.P,D103,1,K*%
%TO.N,+3V3*%
X113830000Y-111500000D03*
%TO.P,D103,2,A*%
%TO.N,Net-(D103-A)*%
X113830000Y-115500000D03*
%TD*%
D28*
%TO.P,C104,1*%
%TO.N,Net-(D103-A)*%
X118910000Y-113500000D03*
%TO.P,C104,2*%
%TO.N,GNDREF*%
X118910000Y-115225000D03*
%TD*%
D26*
%TO.P,C108,1*%
%TO.N,+3V3*%
X143815000Y-116289475D03*
%TO.P,C108,2*%
%TO.N,GNDREF*%
X142265000Y-116289475D03*
%TD*%
D23*
%TO.P,Q104,1,G*%
%TO.N,G3*%
X150960000Y-61430000D03*
D24*
%TO.P,Q104,2,D*%
%TO.N,L1*%
X150960000Y-58890000D03*
%TO.P,Q104,3,S*%
%TO.N,GNDREF*%
X150960000Y-56350000D03*
%TD*%
D14*
%TO.P,C112,1*%
%TO.N,+24V*%
X163106000Y-75133000D03*
%TO.P,C112,2*%
%TO.N,GNDREF*%
X163106000Y-76683000D03*
%TD*%
D23*
%TO.P,Q102,1,G*%
%TO.N,G4*%
X168740000Y-56350000D03*
D24*
%TO.P,Q102,2,D*%
%TO.N,L2*%
X168740000Y-58890000D03*
%TO.P,Q102,3,S*%
%TO.N,GNDREF*%
X168740000Y-61430000D03*
%TD*%
D17*
%TO.P,R108,1*%
%TO.N,Net-(U104-HO)*%
X166662000Y-78040500D03*
%TO.P,R108,2*%
%TO.N,G2*%
X166662000Y-78855500D03*
%TD*%
D23*
%TO.P,Q101,1,G*%
%TO.N,G2*%
X168740000Y-79210000D03*
D24*
%TO.P,Q101,2,D*%
%TO.N,VDD_P*%
X168740000Y-81750000D03*
%TO.P,Q101,3,S*%
%TO.N,L2*%
X168740000Y-84290000D03*
%TD*%
D32*
%TO.P,C110,1*%
%TO.N,L1*%
X164984500Y-65748000D03*
%TO.P,C110,2*%
%TO.N,Net-(U103-VB)*%
X163259500Y-65748000D03*
%TD*%
D17*
%TO.P,R106,1*%
%TO.N,Net-(U103-HO)*%
X152946000Y-83628500D03*
%TO.P,R106,2*%
%TO.N,G1*%
X152946000Y-84443500D03*
%TD*%
D32*
%TO.P,C111,1*%
%TO.N,L2*%
X156856500Y-65748000D03*
%TO.P,C111,2*%
%TO.N,Net-(U104-VB)*%
X155131500Y-65748000D03*
%TD*%
D33*
%TO.P,R105,1*%
%TO.N,Net-(U103-LO)*%
X166662000Y-58027500D03*
%TO.P,R105,2*%
%TO.N,G4*%
X166662000Y-57212500D03*
%TD*%
D19*
%TO.P,C106,1*%
%TO.N,+3V3*%
X148361000Y-103081475D03*
%TO.P,C106,2*%
%TO.N,GNDREF*%
X149911000Y-103081475D03*
%TD*%
D27*
%TO.P,FID103,*%
%TO.N,*%
X98590000Y-123660000D03*
%TD*%
D34*
%TO.P,R103,1*%
%TO.N,Net-(U101-BOOT0)*%
X136753000Y-112225475D03*
%TO.P,R103,2*%
%TO.N,GNDREF*%
X135103000Y-112225475D03*
%TD*%
D35*
%TO.P,RV101,1,1*%
%TO.N,Net-(D103-A)*%
X93620000Y-115960000D03*
%TO.P,RV101,2,2*%
%TO.N,GNDREF*%
X91120000Y-105960000D03*
%TO.P,RV101,3,3*%
X88620000Y-115960000D03*
%TD*%
D36*
%TO.P,U103,1,VCC*%
%TO.N,+24V*%
X162725000Y-72800000D03*
%TO.P,U103,2,HIN*%
%TO.N,HIN1*%
X163995000Y-72800000D03*
%TO.P,U103,3,~{LIN}*%
%TO.N,LIN1*%
X165265000Y-72800000D03*
%TO.P,U103,4,COM*%
%TO.N,GNDREF*%
X166535000Y-72800000D03*
%TO.P,U103,5,LO*%
%TO.N,Net-(U103-LO)*%
X166535000Y-67840000D03*
%TO.P,U103,6,VS*%
%TO.N,L1*%
X165265000Y-67840000D03*
%TO.P,U103,7,HO*%
%TO.N,Net-(U103-HO)*%
X163995000Y-67840000D03*
%TO.P,U103,8,VB*%
%TO.N,Net-(U103-VB)*%
X162725000Y-67840000D03*
%TD*%
D23*
%TO.P,Q103,1,G*%
%TO.N,G1*%
X150960000Y-84290000D03*
D24*
%TO.P,Q103,2,D*%
%TO.N,VDD_P*%
X150960000Y-81750000D03*
%TO.P,Q103,3,S*%
%TO.N,L1*%
X150960000Y-79210000D03*
%TD*%
D27*
%TO.P,FID104,*%
%TO.N,*%
X164630000Y-123660000D03*
%TD*%
D33*
%TO.P,R107,1*%
%TO.N,Net-(U104-LO)*%
X152946000Y-62599500D03*
%TO.P,R107,2*%
%TO.N,G3*%
X152946000Y-61784500D03*
%TD*%
D12*
%TO.P,J103,1,Pin_1*%
%TO.N,VDD*%
X90000000Y-58890000D03*
D13*
%TO.P,J103,2,Pin_2*%
%TO.N,GNDREF*%
X90000000Y-53810000D03*
%TD*%
D37*
%TO.P,J104,1,Pin_1*%
%TO.N,USART1_RX*%
X126530000Y-123660000D03*
D38*
%TO.P,J104,2,Pin_2*%
%TO.N,USART1_TX*%
X121450000Y-123660000D03*
%TD*%
D36*
%TO.P,U104,1,VCC*%
%TO.N,+24V*%
X154597000Y-72800000D03*
%TO.P,U104,2,HIN*%
%TO.N,HIN2*%
X155867000Y-72800000D03*
%TO.P,U104,3,~{LIN}*%
%TO.N,LIN2*%
X157137000Y-72800000D03*
%TO.P,U104,4,COM*%
%TO.N,GNDREF*%
X158407000Y-72800000D03*
%TO.P,U104,5,LO*%
%TO.N,Net-(U104-LO)*%
X158407000Y-67840000D03*
%TO.P,U104,6,VS*%
%TO.N,L2*%
X157137000Y-67840000D03*
%TO.P,U104,7,HO*%
%TO.N,Net-(U104-HO)*%
X155867000Y-67840000D03*
%TO.P,U104,8,VB*%
%TO.N,Net-(U104-VB)*%
X154597000Y-67840000D03*
%TD*%
D39*
%TO.N,GNDREF*%
X166662000Y-71336000D03*
X142786000Y-117564000D03*
X158534000Y-71336000D03*
X118910000Y-116548000D03*
X155994000Y-76924000D03*
X127800000Y-114770000D03*
X162090000Y-76924000D03*
X145326000Y-117559475D03*
X137960000Y-111717475D03*
X153962000Y-76924000D03*
X149898000Y-105875475D03*
X164122000Y-76924000D03*
X123990000Y-104356000D03*
X125006000Y-104356000D03*
X133896000Y-112225475D03*
X122974000Y-104356000D03*
D40*
%TO.N,+24V*%
X161582000Y-75400000D03*
X123482000Y-96736000D03*
X151930000Y-75400000D03*
D39*
%TO.N,Net-(U101-NRST)*%
X143294000Y-111209475D03*
X147612000Y-113495475D03*
D40*
%TO.N,VDD_P*%
X116370000Y-98260000D03*
D39*
%TO.N,L2*%
X168186000Y-69304000D03*
X160566000Y-69304000D03*
%TO.N,SYS_SWCLK*%
X140754000Y-106642000D03*
%TO.N,SYS_SWDIO*%
X141770000Y-106692800D03*
%TO.N,Net-(U103-HO)*%
X155486000Y-83528000D03*
X157518000Y-79464000D03*
%TO.N,Net-(U103-LO)*%
X166662000Y-59144000D03*
X166662000Y-65748000D03*
%TO.N,Net-(U104-HO)*%
X166662000Y-76924000D03*
X157010000Y-70320000D03*
%TO.N,LIN1*%
X165646000Y-75400000D03*
X163106000Y-98768000D03*
%TO.N,LIN2*%
X148374000Y-99022000D03*
X158026000Y-76924000D03*
%TO.N,HIN1*%
X162344000Y-98260000D03*
X164630000Y-75400000D03*
%TO.N,HIN2*%
X157010000Y-76924000D03*
X148120000Y-97752000D03*
%TD*%
D41*
%TO.N,GNDREF*%
X142265000Y-114765475D02*
X142265000Y-116289475D01*
D42*
X166535000Y-72800000D02*
X166535000Y-71463000D01*
X147723000Y-105977475D02*
X149796000Y-105977475D01*
D41*
X145313000Y-117546475D02*
X145326000Y-117559475D01*
D43*
X90000000Y-53810000D02*
X93810000Y-50000000D01*
D42*
X149796000Y-105977475D02*
X149898000Y-105875475D01*
D44*
X126135000Y-114770000D02*
X127800000Y-114770000D01*
D45*
X122974000Y-104356000D02*
X125006000Y-104356000D01*
D42*
X166535000Y-71463000D02*
X166662000Y-71336000D01*
D43*
X153962000Y-50000000D02*
X160312000Y-56350000D01*
D46*
X160312000Y-56350000D02*
X150960000Y-56350000D01*
D42*
X138100000Y-111577475D02*
X137960000Y-111717475D01*
D41*
X153962000Y-76924000D02*
X155994000Y-76924000D01*
D42*
X158407000Y-71463000D02*
X158534000Y-71336000D01*
D41*
X142786000Y-117564000D02*
X142265000Y-117043000D01*
D46*
X165392000Y-61430000D02*
X160312000Y-56350000D01*
D43*
X93810000Y-50000000D02*
X153962000Y-50000000D01*
D41*
X142265000Y-117043000D02*
X142265000Y-116289475D01*
D45*
X123990000Y-106745000D02*
X123990000Y-104356000D01*
D41*
X145313000Y-116289475D02*
X145313000Y-117546475D01*
X162090000Y-76924000D02*
X164122000Y-76924000D01*
X149911000Y-101557475D02*
X149911000Y-105862475D01*
X149911000Y-105862475D02*
X149898000Y-105875475D01*
X118910000Y-116548000D02*
X118910000Y-115225000D01*
D46*
X168740000Y-61430000D02*
X165392000Y-61430000D01*
D42*
X139373000Y-111577475D02*
X138100000Y-111577475D01*
D41*
X135103000Y-112225475D02*
X133896000Y-112225475D01*
D42*
X158407000Y-72800000D02*
X158407000Y-71463000D01*
D41*
%TO.N,+24V*%
X161582000Y-75400000D02*
X161849000Y-75133000D01*
D45*
X109290000Y-103880000D02*
X108750000Y-103340000D01*
D41*
X116338000Y-103880000D02*
X123482000Y-96736000D01*
X152197000Y-75133000D02*
X154978000Y-75133000D01*
X113830000Y-103880000D02*
X116338000Y-103880000D01*
X107887500Y-108420000D02*
X108750000Y-108420000D01*
D45*
X113830000Y-103880000D02*
X109290000Y-103880000D01*
D42*
X154597000Y-74752000D02*
X154978000Y-75133000D01*
D45*
X108750000Y-98800000D02*
X109290000Y-98260000D01*
D42*
X154597000Y-72800000D02*
X154597000Y-74752000D01*
D41*
X106210000Y-110097500D02*
X107887500Y-108420000D01*
X151930000Y-75400000D02*
X152197000Y-75133000D01*
D42*
X162725000Y-74752000D02*
X163106000Y-75133000D01*
D41*
X161849000Y-75133000D02*
X163106000Y-75133000D01*
D42*
X162725000Y-72800000D02*
X162725000Y-74752000D01*
D45*
X108750000Y-108420000D02*
X108750000Y-103340000D01*
X108750000Y-103340000D02*
X108750000Y-98800000D01*
D42*
%TO.N,+3V3*%
X146348000Y-106382000D02*
X144310000Y-108420000D01*
X136690000Y-118580000D02*
X139230000Y-118580000D01*
X128811475Y-110701475D02*
X128205000Y-110095000D01*
X123990000Y-110095000D02*
X128205000Y-110095000D01*
D47*
X114348500Y-110981500D02*
X113830000Y-111500000D01*
D42*
X140748000Y-118574000D02*
X140754000Y-118580000D01*
X143802000Y-116302475D02*
X143815000Y-116289475D01*
X140748000Y-112952475D02*
X140748000Y-112184425D01*
X148358000Y-104602475D02*
X148361000Y-104605475D01*
X140748000Y-112952475D02*
X140748000Y-118574000D01*
D45*
X113290000Y-110960000D02*
X113830000Y-111500000D01*
D42*
X143948000Y-111825475D02*
X144310000Y-111463475D01*
X118910000Y-110985000D02*
X123100000Y-110985000D01*
X128205000Y-110095000D02*
X136690000Y-118580000D01*
D45*
X108750000Y-110960000D02*
X113290000Y-110960000D01*
D42*
X146348000Y-104602475D02*
X148358000Y-104602475D01*
X144310000Y-118580000D02*
X146850000Y-121120000D01*
D44*
X123990000Y-112572500D02*
X123990000Y-110095000D01*
D42*
X145263000Y-114765475D02*
X143815000Y-114765475D01*
X143948000Y-112952475D02*
X143948000Y-114632475D01*
X146850000Y-121120000D02*
X146850000Y-123660000D01*
X144310000Y-108420000D02*
X144310000Y-109939475D01*
X139230000Y-118580000D02*
X140754000Y-118580000D01*
X143815000Y-114765475D02*
X143815000Y-116289475D01*
X140754000Y-118580000D02*
X143802000Y-118580000D01*
X123100000Y-110985000D02*
X123990000Y-110095000D01*
D41*
X148361000Y-101557475D02*
X148361000Y-103081475D01*
D45*
X113830000Y-107880000D02*
X113830000Y-111500000D01*
D41*
X148361000Y-103081475D02*
X148361000Y-104605475D01*
D42*
X135103000Y-110701475D02*
X128811475Y-110701475D01*
X143948000Y-114632475D02*
X143815000Y-114765475D01*
D47*
X114348500Y-110981500D02*
X118910000Y-110981500D01*
D42*
X143802000Y-118580000D02*
X143802000Y-116302475D01*
X143802000Y-118580000D02*
X144310000Y-118580000D01*
X146348000Y-104602475D02*
X146348000Y-106382000D01*
X144310000Y-111463475D02*
X144310000Y-109939475D01*
X143948000Y-112952475D02*
X143948000Y-111825475D01*
D44*
%TO.N,Net-(D103-A)*%
X110750000Y-115500000D02*
X108750000Y-113500000D01*
X113830000Y-115500000D02*
X110750000Y-115500000D01*
X118910000Y-113500000D02*
X115830000Y-113500000D01*
X118910000Y-111800000D02*
X118910000Y-113500000D01*
D41*
X106210000Y-111822500D02*
X105347500Y-111822500D01*
X101210000Y-115960000D02*
X93620000Y-115960000D01*
D44*
X115830000Y-113500000D02*
X113830000Y-115500000D01*
D41*
X107887500Y-113500000D02*
X106210000Y-111822500D01*
X105347500Y-111822500D02*
X101210000Y-115960000D01*
X108750000Y-113500000D02*
X107887500Y-113500000D01*
D42*
%TO.N,Net-(U101-NRST)*%
X147612000Y-114066475D02*
X146913000Y-114765475D01*
X143148000Y-111355475D02*
X143148000Y-112952475D01*
X143294000Y-111209475D02*
X143148000Y-111355475D01*
X147612000Y-113495475D02*
X147612000Y-114066475D01*
X146863000Y-116289475D02*
X146863000Y-114815475D01*
X146863000Y-114815475D02*
X146913000Y-114765475D01*
D45*
%TO.N,VDD_P*%
X116370000Y-98260000D02*
X113290000Y-98260000D01*
D43*
X127500000Y-78610000D02*
X139530000Y-90640000D01*
X127500000Y-76670000D02*
X127500000Y-78610000D01*
D45*
X161120000Y-81750000D02*
X150960000Y-81750000D01*
D43*
X161120000Y-86830000D02*
X161120000Y-81750000D01*
X139530000Y-90640000D02*
X157310000Y-90640000D01*
D45*
X168740000Y-81750000D02*
X161120000Y-81750000D01*
D43*
X157310000Y-90640000D02*
X161120000Y-86830000D01*
%TO.N,VDD*%
X90000000Y-58890000D02*
X90000000Y-76670000D01*
D45*
%TO.N,L2*%
X132880000Y-95720000D02*
X165900000Y-95720000D01*
D42*
X157137000Y-68815000D02*
X157626000Y-69304000D01*
D45*
X173820000Y-71590000D02*
X173820000Y-81750000D01*
X168740000Y-58890000D02*
X171280000Y-58890000D01*
D42*
X157137000Y-66028500D02*
X156856500Y-65748000D01*
D45*
X171280000Y-58890000D02*
X173820000Y-61430000D01*
X171280000Y-84290000D02*
X168740000Y-84290000D01*
X129070000Y-91910000D02*
X132880000Y-95720000D01*
X173820000Y-69304000D02*
X173820000Y-71590000D01*
D42*
X168186000Y-69304000D02*
X173820000Y-69304000D01*
D45*
X90970000Y-91910000D02*
X129070000Y-91910000D01*
X168740000Y-92880000D02*
X168740000Y-84290000D01*
D42*
X157137000Y-67840000D02*
X157137000Y-68815000D01*
D45*
X173820000Y-61430000D02*
X173820000Y-69304000D01*
X173820000Y-81750000D02*
X171280000Y-84290000D01*
D42*
X157626000Y-69304000D02*
X160566000Y-69304000D01*
D45*
X165900000Y-95720000D02*
X168740000Y-92880000D01*
D42*
X157137000Y-67840000D02*
X157137000Y-66028500D01*
D45*
%TO.N,L1*%
X145880000Y-69050000D02*
X145880000Y-60970000D01*
X150960000Y-79210000D02*
X145880000Y-74130000D01*
D42*
X164984500Y-65748000D02*
X159904500Y-60668000D01*
X159904500Y-60668000D02*
X157010000Y-60668000D01*
D45*
X85890000Y-86830000D02*
X88430000Y-84290000D01*
X85890000Y-94450000D02*
X85890000Y-86830000D01*
X88430000Y-84290000D02*
X108750000Y-84290000D01*
X145880000Y-60970000D02*
X147960000Y-58890000D01*
X123990000Y-69050000D02*
X145880000Y-69050000D01*
X88430000Y-96990000D02*
X85890000Y-94450000D01*
D42*
X165265000Y-66028500D02*
X164984500Y-65748000D01*
D45*
X147960000Y-58890000D02*
X150960000Y-58890000D01*
X108750000Y-84290000D02*
X123990000Y-69050000D01*
D42*
X165265000Y-67840000D02*
X165265000Y-66028500D01*
D45*
X90970000Y-96990000D02*
X88430000Y-96990000D01*
D42*
X155232000Y-58890000D02*
X150960000Y-58890000D01*
D45*
X145880000Y-74130000D02*
X145880000Y-69050000D01*
D42*
X157010000Y-60668000D02*
X155232000Y-58890000D01*
%TO.N,G3*%
X152591500Y-61430000D02*
X150960000Y-61430000D01*
X152946000Y-61784500D02*
X152591500Y-61430000D01*
%TO.N,G2*%
X166662000Y-78855500D02*
X167016500Y-79210000D01*
X167016500Y-79210000D02*
X168740000Y-79210000D01*
%TO.N,G1*%
X152946000Y-84443500D02*
X151113500Y-84443500D01*
X151113500Y-84443500D02*
X150960000Y-84290000D01*
%TO.N,G4*%
X166662000Y-57212500D02*
X167524500Y-56350000D01*
X167524500Y-56350000D02*
X168740000Y-56350000D01*
%TO.N,Net-(U101-BOOT0)*%
X139373000Y-110777475D02*
X136829000Y-110777475D01*
X136829000Y-110777475D02*
X136753000Y-110701475D01*
X136753000Y-110701475D02*
X136753000Y-112225475D01*
%TO.N,Net-(U103-VB)*%
X162725000Y-66282500D02*
X162725000Y-67840000D01*
X163259500Y-65748000D02*
X162725000Y-66282500D01*
%TO.N,Net-(U104-VB)*%
X154597000Y-66282500D02*
X154597000Y-67840000D01*
X155131500Y-65748000D02*
X154597000Y-66282500D01*
%TO.N,USART1_TX*%
X147104000Y-129756000D02*
X149898000Y-126962000D01*
X121450000Y-122390000D02*
X121450000Y-123660000D01*
X121450000Y-126962000D02*
X124244000Y-129756000D01*
X149898000Y-114008000D02*
X148634475Y-112744475D01*
X149898000Y-126962000D02*
X149898000Y-114008000D01*
X146556000Y-112744475D02*
X146348000Y-112952475D01*
X148634475Y-112744475D02*
X146556000Y-112744475D01*
X124244000Y-129756000D02*
X147104000Y-129756000D01*
X121450000Y-123660000D02*
X121450000Y-126962000D01*
%TO.N,USART1_RX*%
X117640000Y-126200000D02*
X117640000Y-122136000D01*
X117640000Y-122136000D02*
X119672000Y-120104000D01*
X147394364Y-130457000D02*
X121897000Y-130457000D01*
X148472999Y-111577475D02*
X150599000Y-113703476D01*
X123736000Y-120104000D02*
X126530000Y-122898000D01*
X150599000Y-113703476D02*
X150599000Y-127252364D01*
X119672000Y-120104000D02*
X123736000Y-120104000D01*
X147723000Y-111577475D02*
X148472999Y-111577475D01*
X121897000Y-130457000D02*
X117640000Y-126200000D01*
X126530000Y-122898000D02*
X126530000Y-123660000D01*
X150599000Y-127252364D02*
X147394364Y-130457000D01*
%TO.N,SYS_SWCLK*%
X140754000Y-106642000D02*
X140754000Y-104608475D01*
X140754000Y-104608475D02*
X140748000Y-104602475D01*
%TO.N,SYS_SWDIO*%
X141770000Y-106692800D02*
X141548000Y-106470800D01*
X141548000Y-106470800D02*
X141548000Y-104602475D01*
%TO.N,Net-(U103-HO)*%
X160058000Y-73608952D02*
X160058000Y-76924000D01*
X153046500Y-83528000D02*
X152946000Y-83628500D01*
X163995000Y-69671952D02*
X160058000Y-73608952D01*
X155486000Y-83528000D02*
X153046500Y-83528000D01*
X163995000Y-67840000D02*
X163995000Y-69671952D01*
X160058000Y-76924000D02*
X157518000Y-79464000D01*
%TO.N,Net-(U103-LO)*%
X166535000Y-67840000D02*
X166535000Y-65875000D01*
X166662000Y-59144000D02*
X166662000Y-58027500D01*
X166535000Y-65875000D02*
X166662000Y-65748000D01*
%TO.N,Net-(U104-LO)*%
X156401500Y-62599500D02*
X152946000Y-62599500D01*
X158407000Y-67840000D02*
X158407000Y-64605000D01*
X158407000Y-64605000D02*
X156401500Y-62599500D01*
%TO.N,Net-(U104-HO)*%
X157010000Y-70320000D02*
X155867000Y-69177000D01*
X155867000Y-69177000D02*
X155867000Y-67840000D01*
X166662000Y-78040500D02*
X166662000Y-76924000D01*
%TO.N,LIN1*%
X165646000Y-74130000D02*
X165646000Y-75400000D01*
X152696525Y-109177475D02*
X163106000Y-98768000D01*
X165265000Y-73749000D02*
X165646000Y-74130000D01*
X165265000Y-72800000D02*
X165265000Y-73749000D01*
X147723000Y-109177475D02*
X152696525Y-109177475D01*
%TO.N,LIN2*%
X145548000Y-101848000D02*
X148374000Y-99022000D01*
X157137000Y-72800000D02*
X157137000Y-74053636D01*
X145548000Y-104602475D02*
X145548000Y-101848000D01*
X158026000Y-74942636D02*
X158026000Y-76924000D01*
X157137000Y-74053636D02*
X158026000Y-74942636D01*
%TO.N,HIN1*%
X163995000Y-73775000D02*
X164630000Y-74410000D01*
X164630000Y-74410000D02*
X164630000Y-75400000D01*
X152226525Y-108377475D02*
X162344000Y-98260000D01*
X147723000Y-108377475D02*
X152226525Y-108377475D01*
X163995000Y-72800000D02*
X163995000Y-73775000D01*
%TO.N,HIN2*%
X144748000Y-101124000D02*
X148120000Y-97752000D01*
X144748000Y-104602475D02*
X144748000Y-101124000D01*
X155867000Y-73775000D02*
X157010000Y-74918000D01*
X157010000Y-74918000D02*
X157010000Y-76924000D01*
X155867000Y-72800000D02*
X155867000Y-73775000D01*
D44*
%TO.N,Net-(D104-A)*%
X123990000Y-113387500D02*
X123990000Y-114375000D01*
X123990000Y-114375000D02*
X124385000Y-114770000D01*
%TD*%
M02*
